<svg xmlns="http://www.w3.org/2000/svg" xmlns:xlink="http://www.w3.org/1999/xlink" width="1366" zoomAndPan="magnify" viewBox="0 0 1024.5 576" height="768" preserveAspectRatio="xMidYMid meet" version="1.0"><defs><clipPath id="feb7895bed"><path d="M 389.726562 144.710938 L 685.082031 144.710938 L 685.082031 373 L 389.726562 373 Z M 389.726562 144.710938 " clip-rule="nonzero"/></clipPath><clipPath id="d73f9402bf"><path d="M 464 382 L 515 382 L 515 431.074219 L 464 431.074219 Z M 464 382 " clip-rule="nonzero"/></clipPath><clipPath id="a7e932eae9"><path d="M 605 382 L 655 382 L 655 431.074219 L 605 431.074219 Z M 605 382 " clip-rule="nonzero"/></clipPath></defs><g clip-path="url(#feb7895bed)"><path fill="#cb6ce6" d="M 682.191406 192.113281 C 679.84375 189.273438 676.355469 187.625 672.664062 187.625 L 461.898438 187.625 L 451.753906 153.546875 C 450.195312 148.308594 445.382812 144.71875 439.917969 144.71875 L 402.207031 144.71875 C 395.382812 144.71875 389.851562 150.25 389.851562 157.074219 C 389.851562 163.894531 395.382812 169.425781 402.207031 169.425781 L 430.703125 169.425781 L 476.871094 324.496094 C 471.867188 333.671875 467.117188 346.808594 472.5 357.8125 C 477.265625 367.554688 488.035156 372.496094 504.5 372.496094 C 504.796875 372.496094 505.097656 372.484375 505.394531 372.453125 C 506.464844 372.355469 612.886719 362.597656 649.582031 364.675781 C 654.929688 364.964844 659.566406 360.867188 659.871094 355.488281 C 660.171875 350.113281 656.058594 345.503906 650.679688 345.207031 C 613.425781 343.105469 512.824219 352.1875 504.066406 352.992188 C 495.039062 352.929688 490.859375 350.945312 490.023438 349.246094 C 489.09375 347.351562 489.753906 343.773438 491.320312 339.722656 C 491.582031 339.707031 491.84375 339.707031 492.109375 339.671875 L 653.339844 320.171875 C 658.671875 319.523438 662.972656 315.511719 663.988281 310.242188 L 684.796875 202.320312 C 685.492188 198.699219 684.535156 194.957031 682.191406 192.113281 Z M 592.695312 252.039062 L 541.988281 252.039062 L 541.988281 212.332031 L 592.695312 212.332031 Z M 484.5625 263.738281 L 530.285156 263.738281 L 530.285156 310.167969 L 499.492188 313.898438 Z M 541.988281 263.738281 L 592.695312 263.738281 L 592.695312 302.617188 L 541.988281 308.753906 Z M 650.050781 252.039062 L 604.402344 252.039062 L 604.402344 212.332031 L 657.707031 212.332031 Z M 530.285156 212.332031 L 530.285156 252.039062 L 481.078125 252.039062 L 469.257812 212.332031 Z M 604.402344 301.203125 L 604.402344 263.738281 L 647.796875 263.738281 L 641.433594 296.71875 Z M 604.402344 301.203125 " fill-opacity="1" fill-rule="nonzero"/></g><g clip-path="url(#d73f9402bf)"><path fill="#cb6ce6" d="M 514.03125 406.699219 C 514.03125 407.507812 513.992188 408.3125 513.914062 409.117188 C 513.832031 409.921875 513.714844 410.722656 513.558594 411.515625 C 513.398438 412.308594 513.203125 413.089844 512.96875 413.863281 C 512.734375 414.636719 512.460938 415.398438 512.152344 416.144531 C 511.84375 416.890625 511.496094 417.621094 511.117188 418.335938 C 510.734375 419.046875 510.320312 419.738281 509.871094 420.414062 C 509.421875 421.085938 508.941406 421.734375 508.429688 422.359375 C 507.914062 422.984375 507.375 423.582031 506.800781 424.152344 C 506.230469 424.722656 505.632812 425.265625 505.007812 425.777344 C 504.382812 426.292969 503.734375 426.773438 503.0625 427.222656 C 502.390625 427.671875 501.695312 428.085938 500.984375 428.46875 C 500.269531 428.847656 499.542969 429.195312 498.792969 429.503906 C 498.046875 429.8125 497.289062 430.085938 496.515625 430.320312 C 495.738281 430.554688 494.957031 430.75 494.164062 430.90625 C 493.371094 431.066406 492.574219 431.183594 491.769531 431.261719 C 490.964844 431.34375 490.15625 431.382812 489.347656 431.382812 C 488.539062 431.382812 487.734375 431.34375 486.929688 431.261719 C 486.125 431.183594 485.328125 431.066406 484.535156 430.90625 C 483.742188 430.75 482.957031 430.554688 482.183594 430.320312 C 481.410156 430.085938 480.648438 429.8125 479.902344 429.503906 C 479.15625 429.195312 478.425781 428.847656 477.714844 428.46875 C 477 428.085938 476.308594 427.671875 475.636719 427.222656 C 474.964844 426.773438 474.316406 426.292969 473.691406 425.777344 C 473.066406 425.265625 472.46875 424.722656 471.894531 424.152344 C 471.324219 423.582031 470.78125 422.984375 470.269531 422.359375 C 469.757812 421.734375 469.277344 421.085938 468.828125 420.414062 C 468.378906 419.738281 467.960938 419.046875 467.582031 418.335938 C 467.199219 417.621094 466.855469 416.890625 466.546875 416.144531 C 466.234375 415.398438 465.964844 414.636719 465.730469 413.863281 C 465.496094 413.089844 465.296875 412.308594 465.140625 411.515625 C 464.984375 410.722656 464.863281 409.921875 464.785156 409.117188 C 464.707031 408.3125 464.667969 407.507812 464.667969 406.699219 C 464.667969 405.890625 464.707031 405.085938 464.785156 404.28125 C 464.863281 403.476562 464.984375 402.675781 465.140625 401.882812 C 465.296875 401.089844 465.496094 400.308594 465.730469 399.535156 C 465.964844 398.761719 466.234375 398 466.546875 397.253906 C 466.855469 396.507812 467.199219 395.777344 467.582031 395.066406 C 467.960938 394.351562 468.378906 393.660156 468.828125 392.988281 C 469.277344 392.316406 469.757812 391.667969 470.269531 391.042969 C 470.78125 390.417969 471.324219 389.816406 471.894531 389.246094 C 472.46875 388.675781 473.066406 388.132812 473.691406 387.621094 C 474.316406 387.105469 474.964844 386.625 475.636719 386.175781 C 476.308594 385.726562 477 385.3125 477.714844 384.933594 C 478.425781 384.550781 479.15625 384.207031 479.902344 383.894531 C 480.648438 383.585938 481.410156 383.316406 482.183594 383.082031 C 482.957031 382.84375 483.742188 382.648438 484.535156 382.492188 C 485.328125 382.335938 486.125 382.214844 486.929688 382.136719 C 487.734375 382.058594 488.539062 382.015625 489.347656 382.015625 C 490.15625 382.015625 490.964844 382.058594 491.769531 382.136719 C 492.574219 382.214844 493.371094 382.335938 494.164062 382.492188 C 494.957031 382.648438 495.738281 382.84375 496.515625 383.082031 C 497.289062 383.316406 498.046875 383.585938 498.792969 383.894531 C 499.542969 384.207031 500.269531 384.550781 500.984375 384.933594 C 501.695312 385.3125 502.390625 385.726562 503.0625 386.175781 C 503.734375 386.625 504.382812 387.105469 505.007812 387.621094 C 505.632812 388.132812 506.230469 388.675781 506.800781 389.246094 C 507.375 389.816406 507.914062 390.417969 508.429688 391.042969 C 508.941406 391.667969 509.421875 392.316406 509.871094 392.988281 C 510.320312 393.660156 510.734375 394.351562 511.117188 395.066406 C 511.496094 395.777344 511.84375 396.507812 512.152344 397.253906 C 512.460938 398 512.734375 398.761719 512.96875 399.535156 C 513.203125 400.308594 513.398438 401.089844 513.558594 401.882812 C 513.714844 402.675781 513.832031 403.476562 513.914062 404.28125 C 513.992188 405.085938 514.03125 405.890625 514.03125 406.699219 Z M 514.03125 406.699219 " fill-opacity="1" fill-rule="nonzero"/></g><g clip-path="url(#a7e932eae9)"><path fill="#cb6ce6" d="M 654.460938 406.699219 C 654.460938 407.507812 654.421875 408.3125 654.339844 409.117188 C 654.261719 409.921875 654.144531 410.722656 653.984375 411.515625 C 653.828125 412.308594 653.632812 413.089844 653.398438 413.863281 C 653.164062 414.636719 652.890625 415.398438 652.582031 416.144531 C 652.273438 416.890625 651.925781 417.621094 651.546875 418.335938 C 651.164062 419.046875 650.75 419.738281 650.300781 420.414062 C 649.851562 421.085938 649.371094 421.734375 648.855469 422.359375 C 648.34375 422.984375 647.800781 423.582031 647.230469 424.152344 C 646.660156 424.722656 646.0625 425.265625 645.4375 425.777344 C 644.8125 426.292969 644.164062 426.773438 643.492188 427.222656 C 642.816406 427.671875 642.125 428.085938 641.414062 428.46875 C 640.699219 428.847656 639.96875 429.195312 639.222656 429.503906 C 638.476562 429.8125 637.714844 430.085938 636.941406 430.320312 C 636.167969 430.554688 635.386719 430.75 634.59375 430.90625 C 633.800781 431.066406 633 431.183594 632.195312 431.261719 C 631.390625 431.34375 630.585938 431.382812 629.777344 431.382812 C 628.96875 431.382812 628.164062 431.34375 627.359375 431.261719 C 626.554688 431.183594 625.753906 431.066406 624.960938 430.90625 C 624.167969 430.75 623.386719 430.554688 622.613281 430.320312 C 621.839844 430.085938 621.078125 429.8125 620.332031 429.503906 C 619.585938 429.195312 618.855469 428.847656 618.144531 428.46875 C 617.429688 428.085938 616.738281 427.671875 616.066406 427.222656 C 615.394531 426.773438 614.746094 426.292969 614.121094 425.777344 C 613.496094 425.265625 612.894531 424.722656 612.324219 424.152344 C 611.753906 423.582031 611.210938 422.984375 610.699219 422.359375 C 610.183594 421.734375 609.703125 421.085938 609.253906 420.414062 C 608.804688 419.738281 608.390625 419.046875 608.011719 418.335938 C 607.628906 417.621094 607.285156 416.890625 606.972656 416.144531 C 606.664062 415.398438 606.394531 414.636719 606.160156 413.863281 C 605.921875 413.089844 605.726562 412.308594 605.570312 411.515625 C 605.414062 410.722656 605.292969 409.921875 605.214844 409.117188 C 605.136719 408.3125 605.09375 407.507812 605.09375 406.699219 C 605.09375 405.890625 605.136719 405.085938 605.214844 404.28125 C 605.292969 403.476562 605.414062 402.675781 605.570312 401.882812 C 605.726562 401.089844 605.921875 400.308594 606.160156 399.535156 C 606.394531 398.761719 606.664062 398 606.972656 397.253906 C 607.285156 396.507812 607.628906 395.777344 608.011719 395.066406 C 608.390625 394.351562 608.804688 393.660156 609.253906 392.988281 C 609.703125 392.316406 610.183594 391.667969 610.699219 391.042969 C 611.210938 390.417969 611.753906 389.816406 612.324219 389.246094 C 612.894531 388.675781 613.496094 388.132812 614.121094 387.621094 C 614.746094 387.105469 615.394531 386.625 616.066406 386.175781 C 616.738281 385.726562 617.429688 385.3125 618.144531 384.933594 C 618.855469 384.550781 619.585938 384.207031 620.332031 383.894531 C 621.078125 383.585938 621.839844 383.316406 622.613281 383.082031 C 623.386719 382.84375 624.167969 382.648438 624.960938 382.492188 C 625.753906 382.335938 626.554688 382.214844 627.359375 382.136719 C 628.164062 382.058594 628.96875 382.015625 629.777344 382.015625 C 630.585938 382.015625 631.390625 382.058594 632.195312 382.136719 C 633 382.214844 633.800781 382.335938 634.59375 382.492188 C 635.386719 382.648438 636.167969 382.84375 636.941406 383.082031 C 637.714844 383.316406 638.476562 383.585938 639.222656 383.894531 C 639.96875 384.207031 640.699219 384.550781 641.414062 384.933594 C 642.125 385.3125 642.816406 385.726562 643.492188 386.175781 C 644.164062 386.625 644.8125 387.105469 645.4375 387.621094 C 646.0625 388.132812 646.660156 388.675781 647.230469 389.246094 C 647.800781 389.816406 648.34375 390.417969 648.855469 391.042969 C 649.371094 391.667969 649.851562 392.316406 650.300781 392.988281 C 650.75 393.660156 651.164062 394.351562 651.546875 395.066406 C 651.925781 395.777344 652.273438 396.507812 652.582031 397.253906 C 652.890625 398 653.164062 398.761719 653.398438 399.535156 C 653.632812 400.308594 653.828125 401.089844 653.984375 401.882812 C 654.144531 402.675781 654.261719 403.476562 654.339844 404.28125 C 654.421875 405.085938 654.460938 405.890625 654.460938 406.699219 Z M 654.460938 406.699219 " fill-opacity="1" fill-rule="nonzero"/></g></svg>