<svg xmlns="http://www.w3.org/2000/svg" xmlns:xlink="http://www.w3.org/1999/xlink" width="1366" zoomAndPan="magnify" viewBox="0 0 1024.5 576" height="768" preserveAspectRatio="xMidYMid meet" version="1.0"><defs><clipPath id="bb39fef461"><path d="M 389.726562 144.710938 L 685 144.710938 L 685 373 L 389.726562 373 Z M 389.726562 144.710938 " clip-rule="nonzero"/></clipPath><clipPath id="dbc5379dc5"><path d="M 464 381 L 514 381 L 514 431.074219 L 464 431.074219 Z M 464 381 " clip-rule="nonzero"/></clipPath><clipPath id="b3d21981e6"><path d="M 604 381 L 655 381 L 655 431.074219 L 604 431.074219 Z M 604 381 " clip-rule="nonzero"/></clipPath></defs><g clip-path="url(#bb39fef461)"><path fill="#000000" d="M 681.84375 192.078125 C 679.5 189.238281 676.011719 187.59375 672.328125 187.59375 L 461.8125 187.59375 L 451.679688 153.542969 C 450.125 148.304688 445.316406 144.71875 439.855469 144.71875 L 402.191406 144.71875 C 395.375 144.71875 389.851562 150.246094 389.851562 157.0625 C 389.851562 163.882812 395.375 169.40625 402.191406 169.40625 L 430.652344 169.40625 L 476.765625 324.367188 C 471.769531 333.535156 467.027344 346.660156 472.402344 357.65625 C 477.160156 367.390625 487.917969 372.328125 504.363281 372.328125 C 504.660156 372.328125 504.960938 372.316406 505.257812 372.285156 C 506.328125 372.1875 612.621094 362.4375 649.273438 364.515625 C 654.617188 364.800781 659.246094 360.710938 659.546875 355.335938 C 659.851562 349.960938 655.742188 345.359375 650.367188 345.058594 C 613.160156 342.960938 512.675781 352.035156 503.933594 352.835938 C 494.914062 352.777344 490.738281 350.792969 489.902344 349.09375 C 488.972656 347.203125 489.636719 343.625 491.199219 339.582031 C 491.460938 339.566406 491.71875 339.5625 491.988281 339.53125 L 653.027344 320.042969 C 658.351562 319.394531 662.648438 315.382812 663.660156 310.121094 L 684.445312 202.277344 C 685.140625 198.660156 684.1875 194.917969 681.84375 192.078125 Z M 592.457031 251.957031 L 541.804688 251.957031 L 541.804688 212.28125 L 592.457031 212.28125 Z M 484.449219 263.652344 L 530.117188 263.652344 L 530.117188 310.046875 L 499.359375 313.773438 Z M 541.804688 263.652344 L 592.457031 263.652344 L 592.457031 302.503906 L 541.804688 308.632812 Z M 649.742188 251.957031 L 604.144531 251.957031 L 604.144531 212.28125 L 657.390625 212.28125 Z M 530.117188 212.28125 L 530.117188 251.957031 L 480.96875 251.957031 L 469.160156 212.28125 Z M 604.144531 301.085938 L 604.144531 263.652344 L 647.488281 263.652344 L 641.136719 296.609375 Z M 604.144531 301.085938 " fill-opacity="1" fill-rule="nonzero"/></g><g clip-path="url(#dbc5379dc5)"><path fill="#000000" d="M 513.882812 406.507812 C 513.882812 407.316406 513.84375 408.121094 513.765625 408.925781 C 513.683594 409.726562 513.566406 410.527344 513.410156 411.320312 C 513.253906 412.109375 513.054688 412.894531 512.820312 413.667969 C 512.585938 414.4375 512.316406 415.199219 512.007812 415.945312 C 511.699219 416.691406 511.351562 417.421875 510.972656 418.132812 C 510.589844 418.847656 510.175781 419.539062 509.730469 420.210938 C 509.28125 420.882812 508.800781 421.527344 508.289062 422.152344 C 507.773438 422.777344 507.234375 423.375 506.664062 423.945312 C 506.089844 424.519531 505.496094 425.058594 504.871094 425.574219 C 504.246094 426.085938 503.597656 426.566406 502.925781 427.015625 C 502.253906 427.464844 501.5625 427.878906 500.851562 428.257812 C 500.140625 428.640625 499.410156 428.984375 498.664062 429.292969 C 497.917969 429.601562 497.160156 429.875 496.386719 430.109375 C 495.613281 430.34375 494.832031 430.539062 494.039062 430.695312 C 493.25 430.855469 492.449219 430.972656 491.648438 431.050781 C 490.84375 431.132812 490.039062 431.171875 489.230469 431.171875 C 488.421875 431.171875 487.617188 431.132812 486.8125 431.050781 C 486.011719 430.972656 485.214844 430.855469 484.421875 430.695312 C 483.628906 430.539062 482.847656 430.34375 482.074219 430.109375 C 481.300781 429.875 480.542969 429.601562 479.796875 429.292969 C 479.050781 428.984375 478.320312 428.640625 477.609375 428.257812 C 476.898438 427.878906 476.207031 427.464844 475.535156 427.015625 C 474.863281 426.566406 474.214844 426.085938 473.589844 425.574219 C 472.96875 425.058594 472.371094 424.519531 471.796875 423.945312 C 471.226562 423.375 470.6875 422.777344 470.171875 422.152344 C 469.660156 421.527344 469.179688 420.882812 468.734375 420.210938 C 468.285156 419.539062 467.871094 418.847656 467.488281 418.132812 C 467.109375 417.421875 466.761719 416.691406 466.453125 415.945312 C 466.144531 415.199219 465.875 414.4375 465.640625 413.667969 C 465.40625 412.894531 465.210938 412.109375 465.050781 411.320312 C 464.894531 410.527344 464.777344 409.726562 464.695312 408.925781 C 464.617188 408.121094 464.578125 407.316406 464.578125 406.507812 C 464.578125 405.699219 464.617188 404.894531 464.695312 404.089844 C 464.777344 403.285156 464.894531 402.488281 465.050781 401.695312 C 465.210938 400.902344 465.40625 400.121094 465.640625 399.347656 C 465.875 398.574219 466.144531 397.816406 466.453125 397.070312 C 466.761719 396.320312 467.109375 395.59375 467.488281 394.878906 C 467.871094 394.167969 468.285156 393.476562 468.734375 392.804688 C 469.179688 392.132812 469.660156 391.484375 470.171875 390.859375 C 470.6875 390.234375 471.226562 389.636719 471.796875 389.066406 C 472.371094 388.496094 472.96875 387.953125 473.589844 387.441406 C 474.214844 386.929688 474.863281 386.449219 475.535156 386 C 476.207031 385.550781 476.898438 385.136719 477.609375 384.753906 C 478.320312 384.375 479.050781 384.03125 479.796875 383.71875 C 480.542969 383.410156 481.300781 383.140625 482.074219 382.90625 C 482.847656 382.671875 483.628906 382.472656 484.421875 382.316406 C 485.214844 382.160156 486.011719 382.039062 486.8125 381.960938 C 487.617188 381.882812 488.421875 381.84375 489.230469 381.84375 C 490.039062 381.84375 490.84375 381.882812 491.648438 381.960938 C 492.449219 382.039062 493.25 382.160156 494.039062 382.316406 C 494.832031 382.472656 495.613281 382.671875 496.386719 382.90625 C 497.160156 383.140625 497.917969 383.410156 498.664062 383.71875 C 499.410156 384.03125 500.140625 384.375 500.851562 384.753906 C 501.5625 385.136719 502.253906 385.550781 502.925781 386 C 503.597656 386.449219 504.246094 386.929688 504.871094 387.441406 C 505.496094 387.953125 506.089844 388.496094 506.664062 389.066406 C 507.234375 389.636719 507.773438 390.234375 508.289062 390.859375 C 508.800781 391.484375 509.28125 392.132812 509.730469 392.804688 C 510.175781 393.476562 510.589844 394.167969 510.972656 394.878906 C 511.351562 395.59375 511.699219 396.320312 512.007812 397.070312 C 512.316406 397.816406 512.585938 398.574219 512.820312 399.347656 C 513.054688 400.121094 513.253906 400.902344 513.410156 401.695312 C 513.566406 402.488281 513.683594 403.285156 513.765625 404.089844 C 513.84375 404.894531 513.882812 405.699219 513.882812 406.507812 Z M 513.882812 406.507812 " fill-opacity="1" fill-rule="nonzero"/></g><g clip-path="url(#b3d21981e6)"><path fill="#000000" d="M 654.144531 406.507812 C 654.144531 407.316406 654.105469 408.121094 654.027344 408.925781 C 653.949219 409.726562 653.828125 410.527344 653.671875 411.320312 C 653.515625 412.109375 653.316406 412.894531 653.082031 413.667969 C 652.847656 414.4375 652.578125 415.199219 652.269531 415.945312 C 651.960938 416.691406 651.613281 417.421875 651.234375 418.132812 C 650.855469 418.847656 650.4375 419.539062 649.992188 420.210938 C 649.542969 420.882812 649.0625 421.527344 648.550781 422.152344 C 648.035156 422.777344 647.496094 423.375 646.925781 423.945312 C 646.355469 424.519531 645.757812 425.058594 645.132812 425.574219 C 644.507812 426.085938 643.859375 426.566406 643.1875 427.015625 C 642.515625 427.464844 641.824219 427.878906 641.113281 428.257812 C 640.402344 428.640625 639.671875 428.984375 638.925781 429.292969 C 638.179688 429.601562 637.421875 429.875 636.648438 430.109375 C 635.875 430.34375 635.09375 430.539062 634.300781 430.695312 C 633.511719 430.855469 632.710938 430.972656 631.910156 431.050781 C 631.105469 431.132812 630.300781 431.171875 629.492188 431.171875 C 628.683594 431.171875 627.878906 431.132812 627.074219 431.050781 C 626.273438 430.972656 625.476562 430.855469 624.683594 430.695312 C 623.890625 430.539062 623.109375 430.34375 622.335938 430.109375 C 621.5625 429.875 620.804688 429.601562 620.058594 429.292969 C 619.3125 428.984375 618.582031 428.640625 617.871094 428.257812 C 617.160156 427.878906 616.46875 427.464844 615.796875 427.015625 C 615.125 426.566406 614.476562 426.085938 613.851562 425.574219 C 613.230469 425.058594 612.632812 424.519531 612.058594 423.945312 C 611.488281 423.375 610.949219 422.777344 610.4375 422.152344 C 609.921875 421.527344 609.441406 420.882812 608.996094 420.210938 C 608.546875 419.539062 608.132812 418.847656 607.75 418.132812 C 607.371094 417.421875 607.023438 416.691406 606.714844 415.945312 C 606.40625 415.199219 606.136719 414.4375 605.902344 413.667969 C 605.667969 412.894531 605.472656 412.109375 605.3125 411.320312 C 605.15625 410.527344 605.039062 409.726562 604.957031 408.925781 C 604.878906 408.121094 604.839844 407.316406 604.839844 406.507812 C 604.839844 405.699219 604.878906 404.894531 604.957031 404.089844 C 605.039062 403.285156 605.15625 402.488281 605.3125 401.695312 C 605.472656 400.902344 605.667969 400.121094 605.902344 399.347656 C 606.136719 398.574219 606.40625 397.816406 606.714844 397.070312 C 607.023438 396.320312 607.371094 395.59375 607.75 394.878906 C 608.132812 394.167969 608.546875 393.476562 608.996094 392.804688 C 609.441406 392.132812 609.921875 391.484375 610.4375 390.859375 C 610.949219 390.234375 611.488281 389.636719 612.058594 389.066406 C 612.632812 388.496094 613.230469 387.953125 613.851562 387.441406 C 614.476562 386.929688 615.125 386.449219 615.796875 386 C 616.46875 385.550781 617.160156 385.136719 617.871094 384.753906 C 618.582031 384.375 619.3125 384.03125 620.058594 383.71875 C 620.804688 383.410156 621.5625 383.140625 622.335938 382.90625 C 623.109375 382.671875 623.890625 382.472656 624.683594 382.316406 C 625.476562 382.160156 626.273438 382.039062 627.074219 381.960938 C 627.878906 381.882812 628.683594 381.84375 629.492188 381.84375 C 630.300781 381.84375 631.105469 381.882812 631.910156 381.960938 C 632.710938 382.039062 633.511719 382.160156 634.300781 382.316406 C 635.09375 382.472656 635.875 382.671875 636.648438 382.90625 C 637.421875 383.140625 638.179688 383.410156 638.925781 383.71875 C 639.671875 384.03125 640.402344 384.375 641.113281 384.753906 C 641.824219 385.136719 642.515625 385.550781 643.1875 386 C 643.859375 386.449219 644.507812 386.929688 645.132812 387.441406 C 645.757812 387.953125 646.355469 388.496094 646.925781 389.066406 C 647.496094 389.636719 648.035156 390.234375 648.550781 390.859375 C 649.0625 391.484375 649.542969 392.132812 649.992188 392.804688 C 650.4375 393.476562 650.855469 394.167969 651.234375 394.878906 C 651.613281 395.59375 651.960938 396.320312 652.269531 397.070312 C 652.578125 397.816406 652.847656 398.574219 653.082031 399.347656 C 653.316406 400.121094 653.515625 400.902344 653.671875 401.695312 C 653.828125 402.488281 653.949219 403.285156 654.027344 404.089844 C 654.105469 404.894531 654.144531 405.699219 654.144531 406.507812 Z M 654.144531 406.507812 " fill-opacity="1" fill-rule="nonzero"/></g></svg>