<svg xmlns="http://www.w3.org/2000/svg" xmlns:xlink="http://www.w3.org/1999/xlink" width="1366" zoomAndPan="magnify" viewBox="0 0 1024.5 576" height="768" preserveAspectRatio="xMidYMid meet" version="1.0"><defs><clipPath id="23c2846cd8"><path d="M 491 226 L 676.914062 226 L 676.914062 411.683594 L 491 411.683594 Z M 491 226 " clip-rule="nonzero"/></clipPath><clipPath id="c7eb0e57a1"><path d="M 347.074219 164.304688 L 533 164.304688 L 533 350 L 347.074219 350 Z M 347.074219 164.304688 " clip-rule="nonzero"/></clipPath></defs><g clip-path="url(#23c2846cd8)"><path fill="#cb6ce6" d="M 645.984375 226.152344 L 522.320312 226.152344 C 521.308594 226.152344 520.296875 226.199219 519.289062 226.300781 C 518.28125 226.398438 517.28125 226.546875 516.285156 226.746094 C 515.292969 226.941406 514.308594 227.1875 513.339844 227.484375 C 512.371094 227.777344 511.417969 228.117188 510.484375 228.503906 C 509.546875 228.894531 508.632812 229.324219 507.738281 229.804688 C 506.84375 230.28125 505.976562 230.800781 505.132812 231.363281 C 504.292969 231.925781 503.480469 232.53125 502.695312 233.171875 C 501.914062 233.816406 501.164062 234.496094 500.445312 235.210938 C 499.730469 235.929688 499.050781 236.679688 498.40625 237.460938 C 497.765625 238.246094 497.160156 239.058594 496.597656 239.898438 C 496.035156 240.742188 495.515625 241.609375 495.039062 242.503906 C 494.558594 243.398438 494.128906 244.3125 493.738281 245.246094 C 493.351562 246.183594 493.011719 247.136719 492.71875 248.105469 C 492.421875 249.074219 492.175781 250.058594 491.980469 251.050781 C 491.78125 252.046875 491.632812 253.046875 491.535156 254.054688 C 491.433594 255.0625 491.386719 256.074219 491.386719 257.085938 L 491.386719 339.519531 C 491.386719 340.53125 491.433594 341.542969 491.535156 342.550781 C 491.632812 343.558594 491.78125 344.5625 491.980469 345.554688 C 492.175781 346.546875 492.421875 347.53125 492.71875 348.5 C 493.011719 349.46875 493.351562 350.421875 493.738281 351.359375 C 494.128906 352.292969 494.558594 353.207031 495.039062 354.101562 C 495.515625 354.996094 496.035156 355.863281 496.597656 356.707031 C 497.160156 357.546875 497.765625 358.363281 498.40625 359.144531 C 499.050781 359.929688 499.730469 360.679688 500.445312 361.394531 C 501.164062 362.109375 501.914062 362.789062 502.695312 363.433594 C 503.480469 364.074219 504.292969 364.679688 505.132812 365.242188 C 505.976562 365.804688 506.84375 366.324219 507.738281 366.800781 C 508.632812 367.28125 509.546875 367.710938 510.480469 368.101562 C 511.417969 368.488281 512.371094 368.828125 513.339844 369.121094 C 514.308594 369.417969 515.292969 369.664062 516.285156 369.859375 C 517.28125 370.058594 518.28125 370.207031 519.289062 370.304688 C 520.296875 370.40625 521.308594 370.457031 522.320312 370.457031 L 563.539062 370.457031 L 604.765625 411.683594 L 604.765625 370.457031 L 645.984375 370.457031 C 646.996094 370.457031 648.007812 370.40625 649.015625 370.304688 C 650.023438 370.207031 651.023438 370.058594 652.019531 369.859375 C 653.011719 369.664062 653.992188 369.417969 654.964844 369.121094 C 655.933594 368.828125 656.886719 368.488281 657.820312 368.101562 C 658.757812 367.710938 659.671875 367.28125 660.566406 366.800781 C 661.460938 366.324219 662.328125 365.804688 663.171875 365.242188 C 664.011719 364.679688 664.824219 364.074219 665.609375 363.433594 C 666.390625 362.789062 667.140625 362.109375 667.859375 361.394531 C 668.574219 360.679688 669.253906 359.929688 669.898438 359.144531 C 670.539062 358.363281 671.144531 357.546875 671.707031 356.707031 C 672.269531 355.863281 672.789062 354.996094 673.265625 354.101562 C 673.742188 353.207031 674.175781 352.292969 674.566406 351.359375 C 674.953125 350.421875 675.292969 349.46875 675.585938 348.5 C 675.882812 347.53125 676.128906 346.546875 676.324219 345.554688 C 676.523438 344.5625 676.671875 343.558594 676.769531 342.550781 C 676.871094 341.542969 676.917969 340.53125 676.917969 339.519531 L 676.917969 257.085938 C 676.917969 256.074219 676.871094 255.0625 676.769531 254.054688 C 676.671875 253.046875 676.523438 252.046875 676.324219 251.050781 C 676.128906 250.058594 675.882812 249.074219 675.585938 248.105469 C 675.292969 247.136719 674.953125 246.183594 674.5625 245.246094 C 674.175781 244.3125 673.742188 243.398438 673.265625 242.503906 C 672.789062 241.609375 672.269531 240.742188 671.707031 239.898438 C 671.144531 239.058594 670.539062 238.246094 669.898438 237.460938 C 669.253906 236.679688 668.574219 235.929688 667.859375 235.210938 C 667.140625 234.496094 666.390625 233.816406 665.609375 233.171875 C 664.824219 232.53125 664.011719 231.925781 663.171875 231.363281 C 662.328125 230.800781 661.460938 230.28125 660.566406 229.804688 C 659.671875 229.324219 658.757812 228.894531 657.820312 228.503906 C 656.886719 228.117188 655.933594 227.777344 654.964844 227.484375 C 653.992188 227.1875 653.011719 226.941406 652.019531 226.746094 C 651.023438 226.546875 650.023438 226.398438 649.015625 226.300781 C 648.007812 226.199219 646.996094 226.152344 645.984375 226.152344 Z M 645.984375 226.152344 " fill-opacity="1" fill-rule="nonzero"/></g><g clip-path="url(#c7eb0e57a1)"><path fill="#cb6ce6" d="M 532.613281 205.535156 L 532.613281 195.242188 C 532.613281 194.230469 532.566406 193.21875 532.464844 192.210938 C 532.367188 191.203125 532.21875 190.199219 532.019531 189.207031 C 531.824219 188.210938 531.578125 187.230469 531.28125 186.261719 C 530.988281 185.292969 530.648438 184.339844 530.261719 183.402344 C 529.871094 182.46875 529.4375 181.550781 528.960938 180.660156 C 528.484375 179.765625 527.964844 178.898438 527.402344 178.054688 C 526.839844 177.210938 526.234375 176.398438 525.59375 175.617188 C 524.949219 174.832031 524.269531 174.082031 523.554688 173.367188 C 522.835938 172.648438 522.085938 171.972656 521.304688 171.328125 C 520.519531 170.683594 519.707031 170.082031 518.867188 169.519531 C 518.023438 168.957031 517.15625 168.4375 516.261719 167.957031 C 515.367188 167.480469 514.453125 167.046875 513.515625 166.660156 C 512.582031 166.273438 511.628906 165.933594 510.660156 165.636719 C 509.6875 165.34375 508.707031 165.097656 507.714844 164.898438 C 506.71875 164.703125 505.71875 164.554688 504.710938 164.453125 C 503.703125 164.355469 502.691406 164.304688 501.679688 164.304688 L 378.015625 164.304688 C 377.003906 164.304688 375.992188 164.355469 374.984375 164.453125 C 373.976562 164.554688 372.976562 164.703125 371.980469 164.898438 C 370.988281 165.097656 370.003906 165.34375 369.035156 165.636719 C 368.066406 165.933594 367.113281 166.273438 366.175781 166.660156 C 365.242188 167.046875 364.328125 167.480469 363.433594 167.957031 C 362.539062 168.4375 361.671875 168.957031 360.828125 169.519531 C 359.988281 170.082031 359.175781 170.683594 358.390625 171.328125 C 357.609375 171.972656 356.859375 172.652344 356.140625 173.367188 C 355.425781 174.082031 354.746094 174.832031 354.101562 175.617188 C 353.460938 176.398438 352.855469 177.210938 352.292969 178.054688 C 351.730469 178.898438 351.210938 179.765625 350.734375 180.660156 C 350.253906 181.550781 349.824219 182.46875 349.433594 183.402344 C 349.046875 184.339844 348.707031 185.292969 348.414062 186.261719 C 348.117188 187.230469 347.871094 188.214844 347.675781 189.207031 C 347.476562 190.199219 347.328125 191.203125 347.230469 192.210938 C 347.128906 193.21875 347.082031 194.230469 347.082031 195.242188 L 347.082031 277.675781 C 347.082031 278.6875 347.128906 279.699219 347.230469 280.707031 C 347.328125 281.714844 347.476562 282.714844 347.675781 283.710938 C 347.871094 284.703125 348.117188 285.683594 348.414062 286.65625 C 348.707031 287.625 349.046875 288.578125 349.433594 289.511719 C 349.824219 290.449219 350.253906 291.363281 350.734375 292.257812 C 351.210938 293.152344 351.730469 294.019531 352.292969 294.863281 C 352.855469 295.703125 353.460938 296.515625 354.101562 297.300781 C 354.746094 298.082031 355.425781 298.832031 356.140625 299.550781 C 356.859375 300.265625 357.609375 300.945312 358.390625 301.589844 C 359.175781 302.230469 359.988281 302.832031 360.828125 303.398438 C 361.671875 303.960938 362.539062 304.480469 363.433594 304.957031 C 364.328125 305.433594 365.242188 305.867188 366.175781 306.253906 C 367.113281 306.644531 368.066406 306.984375 369.035156 307.277344 C 370.003906 307.574219 370.988281 307.816406 371.980469 308.015625 C 372.976562 308.214844 373.976562 308.363281 374.984375 308.460938 C 375.992188 308.5625 377.003906 308.609375 378.015625 308.609375 L 419.234375 308.609375 L 419.234375 349.839844 L 460.460938 308.609375 L 470.769531 308.609375 L 470.769531 257.085938 C 470.773438 255.398438 470.859375 253.714844 471.023438 252.035156 C 471.191406 250.355469 471.441406 248.6875 471.769531 247.035156 C 472.101562 245.378906 472.511719 243.742188 473.003906 242.128906 C 473.496094 240.515625 474.0625 238.925781 474.710938 237.367188 C 475.359375 235.808594 476.078125 234.285156 476.875 232.796875 C 477.671875 231.308594 478.539062 229.863281 479.476562 228.460938 C 480.414062 227.058594 481.417969 225.703125 482.488281 224.398438 C 483.5625 223.09375 484.691406 221.84375 485.886719 220.652344 C 487.082031 219.457031 488.328125 218.328125 489.632812 217.253906 C 490.9375 216.183594 492.292969 215.179688 493.695312 214.242188 C 495.097656 213.304688 496.542969 212.4375 498.03125 211.640625 C 499.519531 210.84375 501.042969 210.121094 502.601562 209.476562 C 504.160156 208.828125 505.75 208.257812 507.363281 207.769531 C 508.976562 207.277344 510.613281 206.867188 512.269531 206.535156 C 513.921875 206.203125 515.589844 205.957031 517.269531 205.789062 C 518.949219 205.621094 520.632812 205.535156 522.320312 205.535156 Z M 532.613281 205.535156 " fill-opacity="1" fill-rule="nonzero"/></g></svg>