<svg xmlns="http://www.w3.org/2000/svg" xmlns:xlink="http://www.w3.org/1999/xlink" width="1366" zoomAndPan="magnify" viewBox="0 0 1024.5 576" height="768" preserveAspectRatio="xMidYMid meet" version="1.0"><defs><clipPath id="a4e73a5f82"><path d="M 491 226 L 676.914062 226 L 676.914062 411.683594 L 491 411.683594 Z M 491 226 " clip-rule="nonzero"/></clipPath><clipPath id="521b501f95"><path d="M 347.074219 164.304688 L 533 164.304688 L 533 350 L 347.074219 350 Z M 347.074219 164.304688 " clip-rule="nonzero"/></clipPath></defs><g clip-path="url(#a4e73a5f82)"><path fill="#000000" d="M 645.972656 226.152344 L 522.316406 226.152344 C 521.300781 226.152344 520.292969 226.199219 519.28125 226.300781 C 518.273438 226.398438 517.273438 226.546875 516.28125 226.746094 C 515.285156 226.941406 514.304688 227.1875 513.335938 227.484375 C 512.367188 227.777344 511.414062 228.117188 510.476562 228.503906 C 509.539062 228.894531 508.625 229.324219 507.730469 229.804688 C 506.839844 230.28125 505.972656 230.800781 505.128906 231.363281 C 504.285156 231.925781 503.472656 232.53125 502.691406 233.171875 C 501.90625 233.816406 501.15625 234.496094 500.441406 235.210938 C 499.722656 235.929688 499.042969 236.679688 498.402344 237.460938 C 497.757812 238.246094 497.15625 239.058594 496.59375 239.898438 C 496.03125 240.742188 495.511719 241.609375 495.03125 242.503906 C 494.554688 243.398438 494.121094 244.3125 493.734375 245.246094 C 493.347656 246.183594 493.007812 247.136719 492.710938 248.105469 C 492.417969 249.074219 492.171875 250.058594 491.972656 251.050781 C 491.777344 252.046875 491.628906 253.046875 491.527344 254.054688 C 491.429688 255.0625 491.378906 256.074219 491.378906 257.085938 L 491.378906 339.519531 C 491.378906 340.53125 491.429688 341.542969 491.527344 342.550781 C 491.628906 343.558594 491.777344 344.5625 491.972656 345.554688 C 492.171875 346.546875 492.417969 347.53125 492.710938 348.5 C 493.003906 349.46875 493.347656 350.421875 493.734375 351.359375 C 494.121094 352.292969 494.554688 353.207031 495.03125 354.101562 C 495.511719 354.996094 496.03125 355.863281 496.59375 356.707031 C 497.15625 357.546875 497.757812 358.363281 498.402344 359.144531 C 499.042969 359.929688 499.722656 360.679688 500.441406 361.394531 C 501.15625 362.109375 501.90625 362.789062 502.691406 363.433594 C 503.472656 364.074219 504.285156 364.679688 505.128906 365.242188 C 505.96875 365.804688 506.839844 366.324219 507.730469 366.800781 C 508.625 367.28125 509.539062 367.710938 510.476562 368.101562 C 511.414062 368.488281 512.367188 368.828125 513.335938 369.121094 C 514.304688 369.417969 515.285156 369.664062 516.28125 369.859375 C 517.273438 370.058594 518.273438 370.207031 519.28125 370.304688 C 520.292969 370.40625 521.300781 370.457031 522.316406 370.457031 L 563.53125 370.457031 L 604.757812 411.683594 L 604.757812 370.457031 L 645.972656 370.457031 C 646.984375 370.457031 647.996094 370.40625 649.003906 370.304688 C 650.011719 370.207031 651.015625 370.058594 652.007812 369.859375 C 653 369.664062 653.984375 369.417969 654.953125 369.121094 C 655.921875 368.828125 656.875 368.488281 657.8125 368.101562 C 658.746094 367.710938 659.660156 367.28125 660.554688 366.800781 C 661.449219 366.324219 662.316406 365.804688 663.160156 365.242188 C 664 364.679688 664.816406 364.074219 665.597656 363.433594 C 666.378906 362.789062 667.128906 362.109375 667.847656 361.394531 C 668.5625 360.679688 669.242188 359.929688 669.886719 359.144531 C 670.527344 358.363281 671.132812 357.546875 671.695312 356.707031 C 672.257812 355.863281 672.777344 354.996094 673.253906 354.101562 C 673.734375 353.207031 674.164062 352.292969 674.554688 351.359375 C 674.941406 350.421875 675.28125 349.46875 675.574219 348.5 C 675.871094 347.53125 676.117188 346.546875 676.3125 345.554688 C 676.511719 344.5625 676.660156 343.558594 676.757812 342.550781 C 676.859375 341.542969 676.90625 340.53125 676.90625 339.519531 L 676.90625 257.085938 C 676.90625 256.074219 676.859375 255.0625 676.757812 254.054688 C 676.660156 253.046875 676.511719 252.046875 676.3125 251.050781 C 676.117188 250.058594 675.871094 249.074219 675.574219 248.105469 C 675.28125 247.136719 674.941406 246.183594 674.550781 245.246094 C 674.164062 244.3125 673.730469 243.398438 673.253906 242.503906 C 672.777344 241.609375 672.257812 240.742188 671.695312 239.898438 C 671.132812 239.058594 670.527344 238.246094 669.886719 237.460938 C 669.242188 236.679688 668.5625 235.929688 667.847656 235.210938 C 667.128906 234.496094 666.378906 233.816406 665.597656 233.171875 C 664.8125 232.53125 664 231.925781 663.160156 231.363281 C 662.316406 230.800781 661.449219 230.28125 660.554688 229.804688 C 659.660156 229.324219 658.746094 228.894531 657.8125 228.503906 C 656.875 228.117188 655.921875 227.777344 654.953125 227.484375 C 653.984375 227.1875 653 226.941406 652.007812 226.746094 C 651.015625 226.546875 650.011719 226.398438 649.003906 226.300781 C 647.996094 226.199219 646.984375 226.152344 645.972656 226.152344 Z M 645.972656 226.152344 " fill-opacity="1" fill-rule="nonzero"/></g><g clip-path="url(#521b501f95)"><path fill="#000000" d="M 532.609375 205.535156 L 532.609375 195.242188 C 532.609375 194.230469 532.558594 193.21875 532.460938 192.210938 C 532.359375 191.203125 532.210938 190.199219 532.015625 189.207031 C 531.816406 188.210938 531.570312 187.230469 531.277344 186.261719 C 530.980469 185.292969 530.640625 184.339844 530.253906 183.402344 C 529.867188 182.46875 529.433594 181.550781 528.957031 180.660156 C 528.476562 179.765625 527.957031 178.898438 527.394531 178.054688 C 526.832031 177.210938 526.230469 176.398438 525.585938 175.617188 C 524.945312 174.832031 524.265625 174.082031 523.546875 173.367188 C 522.832031 172.648438 522.082031 171.972656 521.296875 171.328125 C 520.515625 170.683594 519.703125 170.082031 518.859375 169.519531 C 518.015625 168.957031 517.148438 168.4375 516.253906 167.957031 C 515.363281 167.480469 514.449219 167.046875 513.511719 166.660156 C 512.574219 166.273438 511.621094 165.933594 510.652344 165.636719 C 509.683594 165.34375 508.703125 165.097656 507.707031 164.898438 C 506.714844 164.703125 505.714844 164.554688 504.703125 164.453125 C 503.695312 164.355469 502.6875 164.304688 501.671875 164.304688 L 378.015625 164.304688 C 377.003906 164.304688 375.992188 164.355469 374.984375 164.453125 C 373.976562 164.554688 372.972656 164.703125 371.980469 164.898438 C 370.988281 165.097656 370.003906 165.34375 369.035156 165.636719 C 368.066406 165.933594 367.113281 166.273438 366.175781 166.660156 C 365.242188 167.046875 364.324219 167.480469 363.433594 167.957031 C 362.539062 168.4375 361.671875 168.957031 360.828125 169.519531 C 359.984375 170.082031 359.171875 170.683594 358.390625 171.328125 C 357.605469 171.972656 356.855469 172.652344 356.140625 173.367188 C 355.425781 174.082031 354.746094 174.832031 354.101562 175.617188 C 353.460938 176.398438 352.855469 177.210938 352.292969 178.054688 C 351.730469 178.898438 351.210938 179.765625 350.734375 180.660156 C 350.253906 181.550781 349.824219 182.46875 349.433594 183.402344 C 349.046875 184.339844 348.707031 185.292969 348.414062 186.261719 C 348.117188 187.230469 347.871094 188.214844 347.675781 189.207031 C 347.476562 190.199219 347.328125 191.203125 347.230469 192.210938 C 347.128906 193.21875 347.082031 194.230469 347.082031 195.242188 L 347.082031 277.675781 C 347.082031 278.6875 347.128906 279.699219 347.230469 280.707031 C 347.328125 281.714844 347.476562 282.714844 347.675781 283.710938 C 347.871094 284.703125 348.117188 285.683594 348.414062 286.65625 C 348.707031 287.625 349.046875 288.578125 349.433594 289.511719 C 349.824219 290.449219 350.253906 291.363281 350.734375 292.257812 C 351.210938 293.152344 351.730469 294.019531 352.292969 294.863281 C 352.855469 295.703125 353.460938 296.515625 354.101562 297.300781 C 354.746094 298.082031 355.425781 298.832031 356.140625 299.550781 C 356.855469 300.265625 357.605469 300.945312 358.390625 301.589844 C 359.171875 302.230469 359.984375 302.832031 360.828125 303.398438 C 361.671875 303.960938 362.539062 304.480469 363.433594 304.957031 C 364.324219 305.433594 365.242188 305.867188 366.175781 306.253906 C 367.113281 306.644531 368.066406 306.984375 369.035156 307.277344 C 370.003906 307.574219 370.988281 307.816406 371.980469 308.015625 C 372.972656 308.214844 373.976562 308.363281 374.984375 308.460938 C 375.992188 308.5625 377.003906 308.609375 378.015625 308.609375 L 419.230469 308.609375 L 419.230469 349.839844 L 460.457031 308.609375 L 470.765625 308.609375 L 470.765625 257.085938 C 470.769531 255.398438 470.851562 253.714844 471.019531 252.035156 C 471.1875 250.355469 471.4375 248.6875 471.765625 247.035156 C 472.097656 245.378906 472.507812 243.742188 473 242.128906 C 473.492188 240.515625 474.058594 238.925781 474.707031 237.367188 C 475.351562 235.808594 476.074219 234.285156 476.871094 232.796875 C 477.667969 231.308594 478.535156 229.863281 479.472656 228.460938 C 480.410156 227.058594 481.414062 225.703125 482.484375 224.398438 C 483.554688 223.09375 484.6875 221.84375 485.882812 220.652344 C 487.074219 219.457031 488.324219 218.328125 489.628906 217.253906 C 490.933594 216.183594 492.285156 215.179688 493.691406 214.242188 C 495.09375 213.304688 496.539062 212.4375 498.027344 211.640625 C 499.515625 210.84375 501.039062 210.121094 502.597656 209.476562 C 504.15625 208.828125 505.742188 208.257812 507.359375 207.769531 C 508.972656 207.277344 510.605469 206.867188 512.261719 206.535156 C 513.917969 206.203125 515.585938 205.957031 517.265625 205.789062 C 518.945312 205.621094 520.628906 205.535156 522.316406 205.535156 Z M 532.609375 205.535156 " fill-opacity="1" fill-rule="nonzero"/></g></svg>