<svg xmlns="http://www.w3.org/2000/svg" xmlns:xlink="http://www.w3.org/1999/xlink" width="1366" zoomAndPan="magnify" viewBox="0 0 1024.5 576" height="768" preserveAspectRatio="xMidYMid meet" version="1.0"><defs><clipPath id="3db3e150d1"><path d="M 402 206 L 622 206 L 622 431.929688 L 402 431.929688 Z M 402 206 " clip-rule="nonzero"/></clipPath><clipPath id="61ac0c6afd"><path d="M 375 144.070312 L 648 144.070312 L 648 301 L 375 301 Z M 375 144.070312 " clip-rule="nonzero"/></clipPath></defs><g clip-path="url(#3db3e150d1)"><path fill="#000000" d="M 402.300781 315.660156 L 402.300781 426.847656 C 402.300781 429.640625 404.570312 431.914062 407.371094 431.914062 L 526.828125 431.914062 L 526.828125 331.230469 L 582.941406 331.230469 L 582.941406 431.914062 L 616.320312 431.914062 C 619.128906 431.914062 621.390625 429.640625 621.390625 426.847656 L 621.390625 315.660156 L 511.910156 206.757812 Z M 491.386719 378.136719 L 440.75 378.136719 L 440.75 331.238281 L 491.386719 331.238281 Z M 491.386719 378.136719 " fill-opacity="1" fill-rule="nonzero"/></g><g clip-path="url(#61ac0c6afd)"><path fill="#000000" d="M 643.578125 275.675781 L 511.851562 144.085938 L 449.707031 206.164062 L 449.707031 178.84375 C 449.707031 172.464844 444.523438 167.285156 438.136719 167.285156 C 431.746094 167.285156 426.5625 172.464844 426.5625 178.84375 L 426.5625 229.285156 L 380.117188 275.675781 C 374.464844 281.324219 374.464844 290.472656 380.117188 296.117188 C 382.941406 298.9375 386.644531 300.347656 390.347656 300.347656 C 394.050781 300.347656 397.746094 298.9375 400.578125 296.121094 L 511.855469 184.964844 L 623.125 296.117188 C 628.777344 301.761719 637.933594 301.761719 643.578125 296.117188 C 649.226562 290.46875 649.226562 281.316406 643.578125 275.675781 Z M 643.578125 275.675781 " fill-opacity="1" fill-rule="nonzero"/></g></svg>