<svg xmlns="http://www.w3.org/2000/svg" xmlns:xlink="http://www.w3.org/1999/xlink" width="1366" zoomAndPan="magnify" viewBox="0 0 1024.5 576" height="768" preserveAspectRatio="xMidYMid meet" version="1.0"><defs><clipPath id="868844a49d"><path d="M 402 206 L 622 206 L 622 431.929688 L 402 431.929688 Z M 402 206 " clip-rule="nonzero"/></clipPath><clipPath id="327b0ad3c4"><path d="M 375 144.070312 L 648 144.070312 L 648 301 L 375 301 Z M 375 144.070312 " clip-rule="nonzero"/></clipPath></defs><g clip-path="url(#868844a49d)"><path fill="#cb6ce6" d="M 402.273438 315.660156 L 402.273438 426.847656 C 402.273438 429.640625 404.539062 431.914062 407.335938 431.914062 L 526.671875 431.914062 L 526.671875 331.230469 L 582.726562 331.230469 L 582.726562 431.914062 L 616.074219 431.914062 C 618.878906 431.914062 621.136719 429.640625 621.136719 426.847656 L 621.136719 315.660156 L 511.769531 206.757812 Z M 491.265625 378.136719 L 440.683594 378.136719 L 440.683594 331.238281 L 491.265625 331.238281 Z M 491.265625 378.136719 " fill-opacity="1" fill-rule="nonzero"/></g><g clip-path="url(#327b0ad3c4)"><path fill="#cb6ce6" d="M 643.304688 275.675781 L 511.710938 144.085938 L 449.628906 206.164062 L 449.628906 178.84375 C 449.628906 172.464844 444.453125 167.285156 438.070312 167.285156 C 431.6875 167.285156 426.507812 172.464844 426.507812 178.84375 L 426.507812 229.285156 L 380.109375 275.675781 C 374.464844 281.324219 374.464844 290.472656 380.109375 296.117188 C 382.933594 298.9375 386.632812 300.347656 390.332031 300.347656 C 394.03125 300.347656 397.722656 298.9375 400.550781 296.121094 L 511.71875 184.964844 L 622.871094 296.117188 C 628.519531 301.761719 637.664062 301.761719 643.304688 296.117188 C 648.949219 290.46875 648.949219 281.316406 643.304688 275.675781 Z M 643.304688 275.675781 " fill-opacity="1" fill-rule="nonzero"/></g></svg>