<svg xmlns="http://www.w3.org/2000/svg" xmlns:xlink="http://www.w3.org/1999/xlink" width="1366" zoomAndPan="magnify" viewBox="0 0 1024.5 576" height="768" preserveAspectRatio="xMidYMid meet" version="1.0"><defs><clipPath id="ffd6a898b2"><path d="M 418.171875 120 L 637.816406 120 L 637.816406 394.386719 L 418.171875 394.386719 Z M 418.171875 120 " clip-rule="nonzero"/></clipPath></defs><g clip-path="url(#ffd6a898b2)"><path fill="#000000" d="M 454.304688 300.078125 C 433.132812 311.714844 418.722656 334.09375 418.722656 359.484375 L 418.722656 387.542969 C 418.722656 391.304688 421.792969 394.386719 425.550781 394.386719 L 452.871094 394.386719 L 452.871094 360.167969 C 452.871094 356.402344 455.941406 353.324219 459.699219 353.324219 C 463.457031 353.324219 466.527344 356.402344 466.527344 360.167969 L 466.527344 394.386719 L 589.460938 394.386719 L 589.460938 360.167969 C 589.460938 356.402344 592.535156 353.324219 596.292969 353.324219 C 600.046875 353.324219 603.121094 356.402344 603.121094 360.167969 L 603.121094 394.386719 L 630.4375 394.386719 C 634.195312 394.386719 637.269531 391.304688 637.269531 387.542969 L 637.269531 359.484375 C 637.269531 334.09375 622.859375 311.644531 601.6875 300.078125 C 599.570312 307.8125 594.582031 321.15625 583.179688 332.585938 C 572.113281 343.742188 554.835938 353.253906 527.996094 353.324219 C 501.15625 353.324219 483.945312 343.808594 472.8125 332.585938 C 461.472656 321.15625 456.421875 307.8125 454.304688 300.078125 Z M 467.074219 294.671875 C 468.441406 300.148438 472.265625 311.644531 481.894531 321.363281 C 491.113281 330.671875 505.59375 338.128906 527.925781 338.128906 C 550.257812 338.128906 564.738281 330.671875 573.957031 321.363281 C 583.589844 311.644531 587.414062 300.214844 588.777344 294.742188 C 582.972656 292.960938 576.757812 291.933594 570.40625 291.796875 C 567.058594 291.730469 564.125 294.058594 563.507812 297.34375 C 560.84375 311.371094 545.683594 321.433594 527.925781 321.363281 C 510.167969 321.363281 495.007812 311.371094 492.34375 297.34375 C 491.730469 294.058594 488.792969 291.730469 485.445312 291.796875 C 479.027344 291.933594 472.878906 292.960938 467.007812 294.742188 Z M 542.679688 209.539062 C 547.734375 217.339844 556.472656 226.921875 568.90625 229.519531 L 568.90625 249.640625 C 568.90625 272.703125 550.464844 291.730469 527.925781 291.730469 C 505.390625 291.730469 486.949219 272.636719 486.949219 249.640625 L 486.949219 227.671875 C 495.757812 227.261719 509.351562 225.757812 521.710938 221.445312 C 529.632812 218.707031 537.011719 214.808594 542.609375 209.539062 Z M 480.121094 276.398438 C 475.816406 268.460938 473.359375 259.292969 473.359375 249.640625 L 473.359375 220.828125 C 473.359375 218.980469 474.109375 217.203125 475.476562 215.902344 C 476.839844 214.601562 478.617188 213.917969 480.527344 213.984375 C 486.335938 214.257812 502.863281 213.507812 517.410156 208.441406 C 526.015625 205.429688 534.140625 201.050781 537.828125 193.796875 C 539.265625 190.992188 542.472656 189.554688 545.480469 190.238281 C 547.800781 190.785156 549.644531 192.496094 550.328125 194.6875 L 550.464844 195.027344 C 551.285156 196.945312 553.878906 202.558594 558.386719 207.621094 C 562.417969 212.136719 568.085938 216.449219 575.664062 216.3125 C 577.507812 216.3125 579.285156 216.996094 580.582031 218.296875 C 581.878906 219.597656 582.632812 221.308594 582.632812 223.15625 L 582.632812 249.503906 C 582.632812 259.085938 580.242188 268.121094 576.007812 275.988281 L 585.296875 282.492188 C 587.824219 283.996094 590.691406 284.816406 593.695312 284.816406 C 602.644531 284.816406 609.949219 277.496094 609.949219 268.734375 C 609.949219 268.53125 609.949219 268.324219 609.949219 268.121094 C 609.949219 268.1875 609.949219 211.453125 609.949219 193.59375 C 608.242188 194.207031 606.605469 194.753906 605.167969 195.097656 C 601.414062 195.988281 598.273438 195.851562 596.222656 195.097656 C 592.535156 193.660156 589.257812 189.210938 588.230469 182.640625 C 587.34375 177.304688 587.617188 170.324219 587.960938 165.53125 C 583.109375 163.753906 576.007812 160.949219 570.953125 157.867188 C 567.46875 155.746094 564.941406 153.351562 563.644531 151.230469 C 562.484375 149.3125 562.074219 147.328125 562.210938 145.480469 C 562.347656 143.632812 563.03125 141.511719 564.671875 139.320312 C 566.105469 137.335938 568.5625 134.941406 571.566406 132.613281 C 556.882812 123.785156 539.742188 119.613281 522.53125 120.84375 C 478.820312 123.785156 446.039062 161.90625 446.039062 205.292969 L 446.039062 268.597656 C 446.039062 277.496094 453.484375 284.886719 462.5 284.886719 C 465.777344 284.886719 468.988281 283.929688 471.71875 282.082031 L 480.1875 276.398438 Z M 621.96875 170.664062 C 620.605469 171.898438 618.761719 173.539062 617.121094 174.636719 C 612.886719 177.441406 607.832031 180.042969 603.667969 181.410156 C 603.1875 181.546875 602.574219 181.683594 602.027344 181.820312 C 601.753906 180.589844 601.414062 178.808594 601.34375 177.441406 C 601.070312 172.992188 601.34375 168.132812 601.617188 165.054688 L 605.101562 163 C 608.3125 164.09375 613.773438 166.148438 618.417969 168.476562 C 619.582031 169.023438 620.945312 169.914062 622.039062 170.664062 Z M 597.453125 134.597656 C 597.726562 135.832031 598.066406 137.679688 598.203125 139.046875 C 598.476562 143.425781 598.203125 148.285156 597.929688 151.433594 L 594.445312 153.488281 C 591.238281 152.394531 585.773438 150.339844 581.199219 148.011719 C 580.035156 147.464844 578.671875 146.574219 577.578125 145.824219 C 578.945312 144.589844 580.71875 143.015625 582.359375 141.855469 C 586.59375 139.046875 591.578125 136.378906 595.746094 135.011719 C 596.292969 134.875 596.90625 134.667969 597.519531 134.53125 Z M 597.453125 134.597656 " fill-opacity="1" fill-rule="evenodd"/></g></svg>