<svg xmlns="http://www.w3.org/2000/svg" xmlns:xlink="http://www.w3.org/1999/xlink" width="1366" zoomAndPan="magnify" viewBox="0 0 1024.5 576" height="768" preserveAspectRatio="xMidYMid meet" version="1.0"><defs><clipPath id="ddc37d842c"><path d="M 418.171875 120 L 637.816406 120 L 637.816406 394.386719 L 418.171875 394.386719 Z M 418.171875 120 " clip-rule="nonzero"/></clipPath></defs><g clip-path="url(#ddc37d842c)"><path fill="#cb6ce6" d="M 454.328125 299.832031 C 433.140625 311.453125 418.722656 333.800781 418.722656 359.15625 L 418.722656 387.175781 C 418.722656 390.933594 421.796875 394.011719 425.554688 394.011719 L 452.894531 394.011719 L 452.894531 359.839844 C 452.894531 356.078125 455.96875 353.003906 459.726562 353.003906 C 463.488281 353.003906 466.5625 356.078125 466.5625 359.839844 L 466.5625 394.011719 L 589.582031 394.011719 L 589.582031 359.839844 C 589.582031 356.078125 592.65625 353.003906 596.414062 353.003906 C 600.171875 353.003906 603.25 356.078125 603.25 359.839844 L 603.25 394.011719 L 630.585938 394.011719 C 634.34375 394.011719 637.421875 390.933594 637.421875 387.175781 L 637.421875 359.15625 C 637.421875 333.800781 623 311.382812 601.8125 299.832031 C 599.695312 307.554688 594.707031 320.882812 583.292969 332.296875 C 572.222656 343.4375 554.929688 352.9375 528.070312 353.003906 C 501.210938 353.003906 483.988281 343.503906 472.847656 332.296875 C 461.503906 320.882812 456.445312 307.554688 454.328125 299.832031 Z M 467.109375 294.433594 C 468.476562 299.902344 472.304688 311.382812 481.9375 321.089844 C 491.164062 330.382812 505.65625 337.832031 528.003906 337.832031 C 550.351562 337.832031 564.839844 330.382812 574.066406 321.089844 C 583.703125 311.382812 587.53125 299.96875 588.898438 294.503906 C 583.085938 292.726562 576.867188 291.699219 570.511719 291.5625 C 567.164062 291.496094 564.226562 293.820312 563.609375 297.097656 C 560.945312 311.109375 545.773438 321.15625 528.003906 321.089844 C 510.234375 321.089844 495.0625 311.109375 492.394531 297.097656 C 491.78125 293.820312 488.84375 291.496094 485.492188 291.5625 C 479.070312 291.699219 472.917969 292.726562 467.039062 294.503906 Z M 542.765625 209.414062 C 547.824219 217.207031 556.570312 226.773438 569.007812 229.371094 L 569.007812 249.464844 C 569.007812 272.496094 550.554688 291.496094 528.003906 291.496094 C 505.449219 291.496094 486.996094 272.425781 486.996094 249.464844 L 486.996094 227.527344 C 495.8125 227.117188 509.414062 225.613281 521.785156 221.304688 C 529.710938 218.574219 537.09375 214.675781 542.695312 209.414062 Z M 480.164062 276.1875 C 475.855469 268.257812 473.394531 259.101562 473.394531 249.464844 L 473.394531 220.691406 C 473.394531 218.847656 474.148438 217.070312 475.515625 215.769531 C 476.882812 214.472656 478.660156 213.789062 480.574219 213.855469 C 486.382812 214.128906 502.921875 213.378906 517.476562 208.320312 C 526.089844 205.3125 534.222656 200.941406 537.914062 193.695312 C 539.347656 190.894531 542.558594 189.457031 545.566406 190.140625 C 547.890625 190.6875 549.734375 192.398438 550.417969 194.585938 L 550.554688 194.925781 C 551.375 196.839844 553.972656 202.445312 558.484375 207.5 C 562.515625 212.011719 568.1875 216.316406 575.773438 216.179688 C 577.621094 216.179688 579.398438 216.863281 580.695312 218.164062 C 581.996094 219.460938 582.746094 221.167969 582.746094 223.015625 L 582.746094 249.328125 C 582.746094 258.894531 580.355469 267.917969 576.117188 275.777344 L 585.410156 282.269531 C 587.941406 283.773438 590.808594 284.59375 593.816406 284.59375 C 602.769531 284.59375 610.082031 277.28125 610.082031 268.53125 C 610.082031 268.328125 610.082031 268.121094 610.082031 267.917969 C 610.082031 267.984375 610.082031 211.328125 610.082031 193.492188 C 608.375 194.105469 606.734375 194.652344 605.300781 194.996094 C 601.539062 195.882812 598.398438 195.746094 596.347656 194.996094 C 592.65625 193.558594 589.375 189.117188 588.351562 182.554688 C 587.460938 177.226562 587.734375 170.253906 588.078125 165.46875 C 583.222656 163.691406 576.117188 160.890625 571.058594 157.816406 C 567.574219 155.695312 565.046875 153.304688 563.746094 151.1875 C 562.585938 149.273438 562.175781 147.289062 562.3125 145.445312 C 562.449219 143.601562 563.132812 141.480469 564.773438 139.292969 C 566.207031 137.3125 568.667969 134.921875 571.675781 132.597656 C 556.980469 123.78125 539.828125 119.609375 522.605469 120.839844 C 478.863281 123.78125 446.058594 161.847656 446.058594 205.175781 L 446.058594 268.394531 C 446.058594 277.28125 453.507812 284.660156 462.53125 284.660156 C 465.808594 284.660156 469.023438 283.703125 471.757812 281.859375 L 480.230469 276.1875 Z M 622.113281 170.59375 C 620.746094 171.824219 618.898438 173.464844 617.257812 174.558594 C 613.023438 177.363281 607.964844 179.957031 603.796875 181.324219 C 603.316406 181.460938 602.703125 181.597656 602.15625 181.734375 C 601.882812 180.503906 601.539062 178.726562 601.472656 177.363281 C 601.199219 172.917969 601.472656 168.066406 601.746094 164.992188 L 605.230469 162.941406 C 608.441406 164.035156 613.910156 166.085938 618.558594 168.410156 C 619.71875 168.957031 621.085938 169.84375 622.179688 170.59375 Z M 597.578125 134.578125 C 597.851562 135.808594 598.191406 137.652344 598.328125 139.019531 C 598.601562 143.394531 598.328125 148.246094 598.054688 151.390625 L 594.570312 153.441406 C 591.355469 152.347656 585.890625 150.296875 581.3125 147.972656 C 580.148438 147.425781 578.78125 146.539062 577.6875 145.785156 C 579.054688 144.554688 580.832031 142.984375 582.472656 141.824219 C 586.710938 139.019531 591.699219 136.355469 595.867188 134.988281 C 596.414062 134.851562 597.03125 134.648438 597.644531 134.511719 Z M 597.578125 134.578125 " fill-opacity="1" fill-rule="evenodd"/></g></svg>