<svg xmlns="http://www.w3.org/2000/svg" xmlns:xlink="http://www.w3.org/1999/xlink" width="1366" zoomAndPan="magnify" viewBox="0 0 1024.5 576" height="768" preserveAspectRatio="xMidYMid meet" version="1.0"><defs><clipPath id="ec9c54dbf0"><path d="M 406.40625 161.195312 L 617.804688 161.195312 L 617.804688 414.574219 L 406.40625 414.574219 Z M 406.40625 161.195312 " clip-rule="nonzero"/></clipPath></defs><g clip-path="url(#ec9c54dbf0)"><path fill="#000000" d="M 406.40625 324.890625 C 406.40625 300.867188 412.910156 281.390625 423.320312 266.460938 C 423.320312 296 430.472656 306.386719 446.085938 306.386719 C 456.492188 306.386719 467.222656 298.597656 467.222656 285.289062 C 467.222656 273.277344 459.09375 251.527344 459.09375 228.15625 C 459.09375 204.78125 466.898438 179.785156 498.769531 161.285156 C 491.617188 180.113281 488.6875 196.019531 488.6875 209.003906 C 488.6875 243.410156 509.503906 258.992188 528.042969 258.992188 C 543 258.992188 558.613281 249.253906 558.613281 221.011719 C 568.695312 232.050781 573.246094 244.710938 573.246094 257.371094 C 573.246094 277.496094 562.191406 295.351562 562.191406 311.582031 C 562.191406 324.890625 572.921875 332.679688 583.328125 332.679688 C 601.867188 332.679688 607.398438 316.125 607.398438 288.859375 C 612.925781 298.273438 617.804688 316.773438 617.804688 332.679688 C 617.804688 380.074219 572.921875 414.484375 522.835938 414.484375 C 565.117188 398.578125 572.921875 377.476562 572.921875 353.78125 C 562.515625 372.285156 551.78125 374.882812 546.578125 374.882812 C 514.707031 374.882812 549.179688 314.179688 493.566406 271.976562 C 502.671875 291.453125 506.25 308.335938 506.25 321.96875 C 506.25 351.183594 490.316406 367.089844 475.03125 367.089844 C 462.019531 367.089844 449.011719 356.703125 443.808594 334.628906 C 443.808594 365.46875 452.914062 394.683594 493.566406 414.484375 C 430.148438 404.097656 406.40625 364.492188 406.40625 324.890625 Z M 406.40625 324.890625 " fill-opacity="1" fill-rule="nonzero"/></g></svg>