<svg xmlns="http://www.w3.org/2000/svg" xmlns:xlink="http://www.w3.org/1999/xlink" width="1366" zoomAndPan="magnify" viewBox="0 0 1024.5 576" height="768" preserveAspectRatio="xMidYMid meet" version="1.0"><defs><clipPath id="c7294d5bf9"><path d="M 406.40625 161.195312 L 617.804688 161.195312 L 617.804688 414.574219 L 406.40625 414.574219 Z M 406.40625 161.195312 " clip-rule="nonzero"/></clipPath></defs><g clip-path="url(#c7294d5bf9)"><path fill="#cb6ce6" d="M 406.40625 325.035156 C 406.40625 300.992188 412.90625 281.496094 423.300781 266.550781 C 423.300781 296.117188 430.449219 306.515625 446.046875 306.515625 C 456.441406 306.515625 467.164062 298.71875 467.164062 285.394531 C 467.164062 273.375 459.039062 251.605469 459.039062 228.214844 C 459.039062 204.820312 466.839844 179.804688 498.679688 161.285156 C 491.53125 180.128906 488.605469 196.046875 488.605469 209.042969 C 488.605469 243.484375 509.402344 259.078125 527.921875 259.078125 C 542.867188 259.078125 558.460938 249.332031 558.460938 221.066406 C 568.53125 232.113281 573.082031 244.785156 573.082031 257.453125 C 573.082031 277.597656 562.035156 295.46875 562.035156 311.714844 C 562.035156 325.035156 572.757812 332.832031 583.152344 332.832031 C 601.671875 332.832031 607.195312 316.261719 607.195312 288.96875 C 612.71875 298.390625 617.59375 316.910156 617.59375 332.832031 C 617.59375 380.265625 572.757812 414.707031 522.722656 414.707031 C 564.957031 398.785156 572.757812 377.667969 572.757812 353.949219 C 562.359375 372.46875 551.636719 375.070312 546.441406 375.070312 C 514.597656 375.070312 549.039062 314.3125 493.480469 272.074219 C 502.578125 291.570312 506.152344 308.464844 506.152344 322.109375 C 506.152344 351.351562 490.230469 367.269531 474.960938 367.269531 C 461.964844 367.269531 448.96875 356.875 443.769531 334.78125 C 443.769531 365.648438 452.867188 394.886719 493.480469 414.707031 C 430.125 404.308594 406.40625 364.671875 406.40625 325.035156 Z M 406.40625 325.035156 " fill-opacity="1" fill-rule="nonzero"/></g></svg>