<svg xmlns="http://www.w3.org/2000/svg" xmlns:xlink="http://www.w3.org/1999/xlink" width="1366" zoomAndPan="magnify" viewBox="0 0 1024.5 576" height="768" preserveAspectRatio="xMidYMid meet" version="1.0"><defs><clipPath id="59ab6e1c10"><path d="M 453.261719 117.164062 L 660.910156 117.164062 L 660.910156 401 L 453.261719 401 Z M 453.261719 117.164062 " clip-rule="nonzero"/></clipPath></defs><g clip-path="url(#59ab6e1c10)"><path fill="#cb6ce6" d="M 651.796875 155.097656 L 623.433594 155.097656 C 623.433594 149.898438 619.179688 145.644531 613.980469 145.644531 L 593.75 145.644531 C 589.496094 129.382812 574.839844 117.28125 557.257812 117.28125 C 539.671875 117.28125 525.019531 129.382812 520.761719 145.644531 L 500.53125 145.644531 C 495.332031 145.644531 491.078125 149.898438 491.078125 155.097656 L 462.714844 155.097656 C 457.515625 155.097656 453.261719 159.351562 453.261719 164.550781 L 453.261719 391.449219 C 453.261719 396.648438 457.515625 400.902344 462.714844 400.902344 L 651.796875 400.902344 C 656.996094 400.902344 661.25 396.648438 661.25 391.449219 L 661.25 164.550781 C 661.25 159.351562 656.996094 155.097656 651.796875 155.097656 Z M 557.257812 136.191406 C 564.253906 136.191406 570.207031 140.066406 573.515625 145.644531 L 540.996094 145.644531 C 544.304688 140.066406 550.355469 136.191406 557.257812 136.191406 Z M 604.527344 164.550781 L 604.527344 174.007812 L 509.984375 174.007812 L 509.984375 164.550781 Z M 632.886719 381.996094 L 481.625 381.996094 C 476.425781 381.996094 472.167969 377.742188 472.167969 372.539062 L 472.167969 183.460938 C 472.167969 178.261719 476.425781 174.007812 481.625 174.007812 L 491.078125 174.007812 L 491.078125 183.460938 C 491.078125 188.660156 495.332031 192.914062 500.53125 192.914062 L 613.980469 192.914062 C 619.179688 192.914062 623.433594 188.660156 623.433594 183.460938 L 623.433594 174.007812 L 632.886719 174.007812 C 638.085938 174.007812 642.34375 178.261719 642.34375 183.460938 L 642.34375 372.539062 C 642.34375 377.742188 638.085938 381.996094 632.886719 381.996094 Z M 535.324219 224.300781 C 539.007812 227.988281 539.007812 233.945312 535.324219 237.632812 L 516.605469 256.351562 C 514.714844 258.242188 512.347656 259.09375 509.890625 259.09375 C 507.433594 259.09375 505.070312 258.148438 503.179688 256.351562 L 493.726562 246.898438 C 490.039062 243.210938 490.039062 237.253906 493.726562 233.566406 C 497.410156 229.878906 503.367188 229.878906 507.054688 233.566406 L 509.796875 236.308594 L 521.804688 224.300781 C 525.492188 220.613281 531.445312 220.613281 535.132812 224.300781 Z M 623.433594 240.183594 C 623.433594 245.382812 619.179688 249.636719 613.980469 249.636719 L 566.710938 249.636719 C 561.511719 249.636719 557.257812 245.382812 557.257812 240.183594 C 557.257812 234.984375 561.511719 230.730469 566.710938 230.730469 L 613.980469 230.730469 C 619.179688 230.730469 623.433594 234.984375 623.433594 240.183594 Z M 535.324219 271.570312 C 539.007812 275.257812 539.007812 281.214844 535.324219 284.902344 L 516.605469 303.621094 C 514.714844 305.511719 512.347656 306.363281 509.890625 306.363281 C 507.433594 306.363281 505.070312 305.417969 503.179688 303.621094 L 493.726562 294.167969 C 490.039062 290.480469 490.039062 284.523438 493.726562 280.835938 C 497.410156 277.148438 503.367188 277.148438 507.054688 280.835938 L 509.796875 283.578125 L 521.804688 271.570312 C 525.492188 267.882812 531.445312 267.882812 535.132812 271.570312 Z M 623.433594 287.453125 C 623.433594 292.652344 619.179688 296.910156 613.980469 296.910156 L 566.710938 296.910156 C 561.511719 296.910156 557.257812 292.652344 557.257812 287.453125 C 557.257812 282.253906 561.511719 278 566.710938 278 L 613.980469 278 C 619.179688 278 623.433594 282.253906 623.433594 287.453125 Z M 535.324219 318.84375 C 539.007812 322.527344 539.007812 328.484375 535.324219 332.171875 L 516.605469 350.890625 C 514.714844 352.78125 512.347656 353.632812 509.890625 353.632812 C 507.433594 353.632812 505.070312 352.6875 503.179688 350.890625 L 493.726562 341.4375 C 490.039062 337.75 490.039062 331.792969 493.726562 328.105469 C 497.410156 324.417969 503.367188 324.417969 507.054688 328.105469 L 509.796875 330.847656 L 521.804688 318.84375 C 525.492188 315.15625 531.445312 315.15625 535.132812 318.84375 Z M 623.433594 334.726562 C 623.433594 339.925781 619.179688 344.179688 613.980469 344.179688 L 566.710938 344.179688 C 561.511719 344.179688 557.257812 339.925781 557.257812 334.726562 C 557.257812 329.523438 561.511719 325.269531 566.710938 325.269531 L 613.980469 325.269531 C 619.179688 325.269531 623.433594 329.523438 623.433594 334.726562 Z M 623.433594 334.726562 " fill-opacity="1" fill-rule="nonzero"/></g></svg>