<svg xmlns="http://www.w3.org/2000/svg" xmlns:xlink="http://www.w3.org/1999/xlink" width="1366" zoomAndPan="magnify" viewBox="0 0 1024.5 576" height="768" preserveAspectRatio="xMidYMid meet" version="1.0"><defs><clipPath id="6b55bcbb98"><path d="M 453.261719 117.164062 L 660.910156 117.164062 L 660.910156 401.277344 L 453.261719 401.277344 Z M 453.261719 117.164062 " clip-rule="nonzero"/></clipPath></defs><g clip-path="url(#6b55bcbb98)"><path fill="#000000" d="M 651.472656 155.132812 L 623.15625 155.132812 C 623.15625 149.929688 618.910156 145.671875 613.71875 145.671875 L 593.519531 145.671875 C 589.273438 129.394531 574.640625 117.28125 557.085938 117.28125 C 539.53125 117.28125 524.902344 129.394531 520.652344 145.671875 L 500.453125 145.671875 C 495.261719 145.671875 491.015625 149.929688 491.015625 155.132812 L 462.699219 155.132812 C 457.507812 155.132812 453.261719 159.390625 453.261719 164.59375 L 453.261719 391.699219 C 453.261719 396.902344 457.507812 401.160156 462.699219 401.160156 L 651.472656 401.160156 C 656.664062 401.160156 660.910156 396.902344 660.910156 391.699219 L 660.910156 164.59375 C 660.910156 159.390625 656.664062 155.132812 651.472656 155.132812 Z M 557.085938 136.207031 C 564.070312 136.207031 570.015625 140.085938 573.320312 145.671875 L 540.851562 145.671875 C 544.15625 140.085938 550.195312 136.207031 557.085938 136.207031 Z M 604.277344 164.59375 L 604.277344 174.058594 L 509.894531 174.058594 L 509.894531 164.59375 Z M 632.59375 382.234375 L 481.578125 382.234375 C 476.386719 382.234375 472.140625 377.976562 472.140625 372.773438 L 472.140625 183.519531 C 472.140625 178.316406 476.386719 174.058594 481.578125 174.058594 L 491.015625 174.058594 L 491.015625 183.519531 C 491.015625 188.726562 495.261719 192.984375 500.453125 192.984375 L 613.71875 192.984375 C 618.910156 192.984375 623.15625 188.726562 623.15625 183.519531 L 623.15625 174.058594 L 632.59375 174.058594 C 637.785156 174.058594 642.035156 178.316406 642.035156 183.519531 L 642.035156 372.773438 C 642.035156 377.976562 637.785156 382.234375 632.59375 382.234375 Z M 535.1875 224.398438 C 538.871094 228.089844 538.871094 234.050781 535.1875 237.742188 L 516.5 256.476562 C 514.613281 258.371094 512.253906 259.222656 509.800781 259.222656 C 507.34375 259.222656 504.984375 258.273438 503.097656 256.476562 L 493.660156 247.015625 C 489.976562 243.324219 489.976562 237.363281 493.660156 233.671875 C 497.339844 229.980469 503.285156 229.980469 506.96875 233.671875 L 509.703125 236.417969 L 521.691406 224.398438 C 525.371094 220.707031 531.320312 220.707031 535 224.398438 Z M 623.15625 240.296875 C 623.15625 245.5 618.910156 249.757812 613.71875 249.757812 L 566.523438 249.757812 C 561.332031 249.757812 557.085938 245.5 557.085938 240.296875 C 557.085938 235.089844 561.332031 230.832031 566.523438 230.832031 L 613.71875 230.832031 C 618.910156 230.832031 623.15625 235.089844 623.15625 240.296875 Z M 535.1875 271.710938 C 538.871094 275.402344 538.871094 281.363281 535.1875 285.054688 L 516.5 303.789062 C 514.613281 305.683594 512.253906 306.535156 509.800781 306.535156 C 507.34375 306.535156 504.984375 305.589844 503.097656 303.789062 L 493.660156 294.328125 C 489.976562 290.636719 489.976562 284.675781 493.660156 280.984375 C 497.339844 277.292969 503.285156 277.292969 506.96875 280.984375 L 509.703125 283.730469 L 521.691406 271.710938 C 525.371094 268.023438 531.320312 268.023438 535 271.710938 Z M 623.15625 287.609375 C 623.15625 292.8125 618.910156 297.070312 613.71875 297.070312 L 566.523438 297.070312 C 561.332031 297.070312 557.085938 292.8125 557.085938 287.609375 C 557.085938 282.40625 561.332031 278.148438 566.523438 278.148438 L 613.71875 278.148438 C 618.910156 278.148438 623.15625 282.40625 623.15625 287.609375 Z M 535.1875 319.023438 C 538.871094 322.714844 538.871094 328.675781 535.1875 332.367188 L 516.5 351.101562 C 514.613281 352.996094 512.253906 353.847656 509.800781 353.847656 C 507.34375 353.847656 504.984375 352.902344 503.097656 351.101562 L 493.660156 341.640625 C 489.976562 337.949219 489.976562 331.988281 493.660156 328.296875 C 497.339844 324.609375 503.285156 324.609375 506.96875 328.296875 L 509.703125 331.042969 L 521.691406 319.023438 C 525.371094 315.335938 531.320312 315.335938 535 319.023438 Z M 623.15625 334.921875 C 623.15625 340.125 618.910156 344.382812 613.71875 344.382812 L 566.523438 344.382812 C 561.332031 344.382812 557.085938 340.125 557.085938 334.921875 C 557.085938 329.71875 561.332031 325.460938 566.523438 325.460938 L 613.71875 325.460938 C 618.910156 325.460938 623.15625 329.71875 623.15625 334.921875 Z M 623.15625 334.921875 " fill-opacity="1" fill-rule="nonzero"/></g></svg>