<svg xmlns="http://www.w3.org/2000/svg" xmlns:xlink="http://www.w3.org/1999/xlink" width="765" zoomAndPan="magnify" viewBox="0 0 573.75 155.999997" height="208" preserveAspectRatio="xMidYMid meet" version="1.0"><defs><g/><clipPath id="752991c548"><path d="M 11.660156 30.574219 L 573 30.574219 L 573 125.3125 L 11.660156 125.3125 Z M 11.660156 30.574219 " clip-rule="nonzero"/></clipPath><clipPath id="f320a6ddce"><path d="M 49.144531 30.574219 L 535.332031 30.574219 C 545.273438 30.574219 554.804688 34.523438 561.835938 41.550781 C 568.863281 48.582031 572.8125 58.117188 572.8125 68.058594 L 572.8125 87.832031 C 572.8125 97.773438 568.863281 107.304688 561.835938 114.335938 C 554.804688 121.363281 545.273438 125.3125 535.332031 125.3125 L 49.144531 125.3125 C 39.203125 125.3125 29.671875 121.363281 22.640625 114.335938 C 15.609375 107.304688 11.660156 97.773438 11.660156 87.832031 L 11.660156 68.058594 C 11.660156 58.117188 15.609375 48.582031 22.640625 41.550781 C 29.671875 34.523438 39.203125 30.574219 49.144531 30.574219 Z M 49.144531 30.574219 " clip-rule="nonzero"/></clipPath><clipPath id="05fcd573ea"><path d="M 11 6 L 144 6 L 144 134 L 11 134 Z M 11 6 " clip-rule="nonzero"/></clipPath><clipPath id="1cecec46f5"><path d="M 26.230469 0.0351562 L 164.269531 28.476562 L 138.097656 155.5 L 0.0585938 127.058594 Z M 26.230469 0.0351562 " clip-rule="nonzero"/></clipPath><clipPath id="d7f0accc15"><path d="M 26.230469 0.0351562 L 164.269531 28.476562 L 138.097656 155.5 L 0.0585938 127.058594 Z M 26.230469 0.0351562 " clip-rule="nonzero"/></clipPath></defs><g clip-path="url(#752991c548)"><g clip-path="url(#f320a6ddce)"><path fill="#f2eaf6" d="M 11.660156 30.574219 L 572.703125 30.574219 L 572.703125 125.3125 L 11.660156 125.3125 Z M 11.660156 30.574219 " fill-opacity="1" fill-rule="nonzero"/></g></g><g clip-path="url(#05fcd573ea)"><g clip-path="url(#1cecec46f5)"><g clip-path="url(#d7f0accc15)"><path fill="#cb6ce6" d="M 84.621094 27.980469 C 85.511719 27.867188 86.515625 27.789062 87.5625 27.761719 C 88.265625 27.753906 88.945312 27.761719 89.589844 27.828125 C 88.589844 25.429688 87.21875 23.359375 85.675781 21.59375 C 85.527344 23.472656 85.21875 25.625 84.621094 27.980469 Z M 97.804688 57.476562 C 95.832031 56.445312 93.796875 55.730469 91.851562 55.230469 C 90.964844 55.003906 90.105469 54.804688 89.265625 54.632812 C 88.847656 55.480469 88.398438 56.328125 87.929688 57.164062 C 87.808594 57.382812 87.671875 57.617188 87.542969 57.820312 C 88.828125 58.085938 90.15625 58.390625 91.535156 58.828125 C 93.542969 59.460938 95.601562 60.292969 97.554688 61.660156 C 98.503906 62.382812 99.496094 63.253906 99.980469 64.582031 C 100.503906 65.976562 99.988281 67.46875 99.355469 68.578125 C 98.019531 70.902344 95.984375 72.699219 93.792969 74.386719 C 91.570312 76.066406 89.042969 77.476562 86.332031 78.660156 C 80.863281 80.976562 74.652344 82.375 68.082031 83.390625 C 61.503906 84.445312 54.519531 85.125 47.257812 86.050781 C 40.019531 87.0625 32.339844 88.078125 25.148438 91.257812 C 21.691406 92.804688 18.425781 94.984375 15.871094 97.910156 L 15.652344 98.164062 C 15.132812 98.777344 14.648438 99.425781 14.1875 100.121094 C 12.445312 102.765625 11.335938 105.871094 11.152344 109.144531 C 10.925781 113.222656 12.113281 117.425781 14.414062 121.003906 C 16.71875 124.617188 20.066406 127.578125 23.980469 129.65625 C 31.855469 133.910156 41.667969 134.144531 50.855469 131.871094 C 59.101562 129.804688 66.988281 125.859375 74.65625 121.277344 L 76.859375 119.953125 C 77.074219 119.8125 77.296875 119.691406 77.507812 119.5625 C 86.125 114.25 94.640625 108.175781 104.105469 103.171875 C 108.839844 100.683594 113.835938 98.464844 119.214844 97.117188 C 121.96875 96.410156 124.941406 96.3125 127.761719 96.773438 C 130.601562 97.269531 133.441406 98.226562 135.8125 100.238281 C 136.984375 101.261719 138.003906 102.632812 138.410156 104.296875 C 138.835938 105.996094 138.503906 107.671875 137.976562 109.097656 C 137.699219 109.820312 137.332031 110.535156 136.992188 111.121094 C 136.664062 111.691406 136.433594 112.222656 136.199219 112.84375 C 135.734375 114.019531 135.445312 115.277344 135.292969 116.550781 C 134.984375 119.097656 135.289062 121.726562 136.425781 123.925781 C 137.535156 126.160156 139.527344 127.777344 141.945312 128.496094 L 142.847656 128.734375 L 143.324219 128.824219 L 143.554688 128.871094 L 143.589844 128.855469 C 143.605469 128.890625 143.8125 128.792969 143.90625 128.492188 C 144.136719 127.90625 143.738281 126.921875 142.867188 126.207031 C 142.449219 125.835938 141.921875 125.515625 141.375 125.242188 L 140.957031 125.042969 L 140.402344 124.796875 C 139.722656 124.375 139.5625 124.078125 139.253906 123.71875 C 138.179688 122.289062 137.792969 120.695312 137.695312 119.140625 C 137.605469 117.566406 137.816406 116.050781 138.253906 114.582031 C 138.46875 113.859375 138.75 113.128906 139.15625 112.433594 C 139.503906 111.804688 139.773438 111.300781 140.050781 110.699219 C 141.074219 108.398438 141.453125 105.867188 140.847656 103.527344 C 140.265625 101.191406 138.742188 99.15625 136.78125 97.65625 C 134.808594 96.117188 132.410156 95.074219 129.972656 94.453125 C 127.503906 93.832031 124.933594 93.578125 122.410156 93.738281 C 119.917969 93.90625 117.382812 94.558594 114.894531 95.25 C 104.9375 98.175781 95.984375 103.507812 87.207031 108.585938 C 82.144531 111.535156 77.121094 114.523438 72.035156 117.226562 C 71.230469 117.675781 70.40625 118.109375 69.585938 118.519531 C 66.679688 120.003906 63.75 121.398438 60.757812 122.667969 C 56.210938 124.570312 51.503906 126.015625 46.710938 126.75 C 41.925781 127.464844 37.003906 127.5 32.347656 126.257812 C 27.703125 125.070312 23.375 122.488281 20.480469 118.699219 C 19.015625 116.820312 17.945312 114.605469 17.53125 112.25 C 17.101562 109.878906 17.414062 107.386719 18.390625 105.21875 C 18.953125 103.964844 19.703125 102.835938 20.585938 101.84375 C 21.21875 101.117188 21.914062 100.449219 22.648438 99.867188 L 22.78125 99.761719 C 24.511719 98.398438 26.363281 97.332031 28.3125 96.503906 C 32.265625 94.820312 36.3125 93.820312 40.292969 93.027344 C 48.222656 91.472656 55.890625 90.671875 63.121094 89.527344 C 70.355469 88.429688 77.210938 87.046875 83.371094 84.839844 C 89.527344 82.6875 94.957031 79.59375 99.039062 75.542969 C 101.058594 73.558594 102.820312 71.34375 103.644531 68.9375 C 104.523438 66.539062 104.234375 63.945312 102.976562 61.953125 C 101.679688 59.898438 99.753906 58.492188 97.804688 57.476562 Z M 56.730469 37.828125 C 57.585938 37.457031 58.40625 37.054688 59.203125 36.648438 C 58.980469 35 58.707031 33.410156 58.3125 31.859375 C 57.761719 31.503906 57.195312 31.210938 56.625 30.898438 C 55.5 32.410156 54.445312 34.011719 53.429688 35.699219 C 54.542969 36.367188 55.636719 37.066406 56.730469 37.828125 Z M 52.574219 37.191406 C 52.316406 37.652344 52.046875 38.101562 51.820312 38.570312 C 51.558594 39.042969 51.304688 39.527344 51.082031 40.019531 C 52.378906 39.585938 53.644531 39.132812 54.871094 38.609375 C 54.105469 38.109375 53.335938 37.644531 52.574219 37.191406 Z M 43.78125 9.332031 C 43.132812 8.925781 42.507812 8.554688 41.910156 8.253906 C 41.210938 8.507812 40.539062 8.796875 39.871094 9.097656 C 36.757812 10.484375 33.921875 12.542969 31.1875 15.007812 C 28.933594 17.054688 26.820312 19.371094 24.996094 21.957031 C 24.730469 22.328125 24.488281 22.707031 24.222656 23.089844 L 23.957031 23.53125 C 23.664062 23.984375 23.386719 24.441406 23.132812 24.917969 C 23.019531 25.101562 22.933594 25.261719 22.839844 25.4375 C 20.511719 29.707031 19.121094 34.652344 19.023438 39.753906 C 19.585938 35.800781 20.910156 31.71875 23.039062 27.925781 C 23.425781 27.226562 23.84375 26.535156 24.253906 25.871094 L 24.71875 25.210938 C 25.152344 24.535156 25.621094 23.863281 26.136719 23.234375 C 26.414062 22.828125 26.738281 22.425781 27.058594 22.050781 C 29.351562 19.234375 31.917969 16.824219 34.519531 14.859375 C 37.640625 12.476562 40.8125 10.660156 43.78125 9.332031 Z M 55.683594 6.726562 C 56.644531 7.277344 57.671875 7.929688 58.765625 8.691406 C 60.136719 8.261719 61.40625 7.960938 62.566406 7.761719 C 61.234375 7.347656 59.855469 7.019531 58.402344 6.773438 C 57.832031 6.675781 57.246094 6.589844 56.652344 6.542969 C 56.347656 6.589844 56.027344 6.65625 55.683594 6.726562 Z M 34.417969 67.820312 C 34.113281 67.648438 33.796875 67.429688 33.519531 67.230469 C 31.363281 65.722656 29.410156 63.972656 27.691406 62.046875 C 28.355469 62.109375 29.050781 62.144531 29.746094 62.175781 C 30.125 62.199219 30.511719 62.203125 30.917969 62.199219 C 32.136719 64.414062 33.355469 66.277344 34.417969 67.820312 Z M 40.824219 71.226562 C 39.214844 70.574219 37.628906 69.800781 36.121094 68.875 C 35.0625 67.152344 33.699219 64.933594 32.285156 62.214844 C 33.546875 62.203125 34.910156 62.144531 36.320312 62.0625 C 37.117188 65.734375 38.695312 68.945312 40.824219 71.226562 Z M 44.039062 64.296875 C 44.277344 66.714844 44.683594 68.773438 45.132812 70.433594 C 44.367188 70.859375 43.632812 71.222656 42.941406 71.550781 C 42.851562 71.5 42.777344 71.429688 42.703125 71.359375 C 40.417969 69.199219 38.648438 65.863281 37.835938 61.933594 C 39.777344 61.777344 41.800781 61.488281 43.898438 61.101562 C 43.875 62.214844 43.929688 63.277344 44.039062 64.296875 Z M 56.8125 57.390625 C 56.722656 57.613281 56.644531 57.835938 56.546875 58.046875 C 55.441406 60.539062 54.066406 62.746094 52.523438 64.589844 C 50.988281 66.453125 49.207031 67.851562 47.5 69.015625 C 46.964844 69.367188 46.441406 69.675781 45.921875 69.960938 C 45.625 68.367188 45.355469 66.421875 45.246094 64.195312 C 45.191406 63.132812 45.175781 62.03125 45.242188 60.851562 L 45.246094 60.839844 C 48.976562 60.085938 52.867188 58.976562 56.8125 57.390625 Z M 63.210938 54.441406 C 64.429688 53.792969 65.59375 53.101562 66.738281 52.339844 C 66.089844 54.683594 65.203125 56.867188 64.132812 58.863281 C 61.421875 63.921875 57.734375 67.667969 54.089844 70.023438 C 51.925781 71.472656 49.902344 72.570312 48.140625 73.457031 C 47.613281 73.347656 47.066406 73.234375 46.546875 73.097656 C 46.335938 73.050781 46.105469 73.003906 45.898438 72.941406 C 45.222656 72.769531 44.527344 72.570312 43.863281 72.335938 L 43.855469 72.332031 C 43.828125 72.304688 43.808594 72.289062 43.765625 72.28125 C 44.3125 72.066406 44.875 71.796875 45.449219 71.5 C 45.675781 71.414062 45.902344 71.285156 46.148438 71.148438 C 46.808594 70.824219 47.464844 70.457031 48.164062 70.039062 C 49.996094 68.914062 51.917969 67.480469 53.601562 65.535156 C 55.300781 63.613281 56.796875 61.300781 57.992188 58.707031 C 58.320312 58.015625 58.605469 57.308594 58.871094 56.550781 C 60.320312 55.90625 61.769531 55.207031 63.210938 54.441406 Z M 68.492188 52.28125 C 68.621094 51.828125 68.734375 51.390625 68.824219 50.9375 C 69.039062 50.816406 69.207031 50.6875 69.367188 50.542969 C 70.886719 49.441406 72.328125 48.246094 73.640625 47.003906 C 74.023438 46.621094 74.417969 46.265625 74.78125 45.878906 C 75.140625 45.515625 75.488281 45.160156 75.816406 44.796875 C 75.777344 45.667969 75.683594 46.546875 75.554688 47.398438 C 75.445312 48.296875 75.277344 49.164062 75.085938 50.042969 C 74.835938 51.15625 74.535156 52.234375 74.152344 53.296875 C 74.089844 53.492188 74.039062 53.679688 73.960938 53.859375 C 73.535156 55.019531 73.054688 56.128906 72.511719 57.210938 L 72.484375 57.285156 C 72.414062 57.476562 72.324219 57.636719 72.222656 57.8125 C 72.003906 58.25 71.773438 58.671875 71.519531 59.09375 C 70.84375 60.300781 70.097656 61.429688 69.300781 62.472656 C 65.585938 67.402344 61.191406 71.003906 57.066406 73.144531 C 56.332031 73.519531 55.613281 73.867188 54.921875 74.183594 C 53.210938 74.140625 51.460938 74 49.722656 73.714844 C 51.265625 73.027344 52.941406 72.144531 54.75 71.035156 C 58.601562 68.726562 62.613281 64.855469 65.523438 59.621094 C 66.125 58.5625 66.667969 57.421875 67.136719 56.203125 C 67.136719 56.203125 67.160156 56.207031 67.160156 56.199219 C 67.164062 56.1875 67.1875 56.171875 67.171875 56.144531 L 67.203125 56.097656 C 67.726562 54.890625 68.132812 53.601562 68.492188 52.28125 Z M 70.582031 63.4375 C 71.105469 62.757812 71.617188 62.03125 72.113281 61.277344 C 72.777344 64.011719 73.023438 66.652344 73.054688 68.996094 C 73.0625 69.226562 73.050781 69.453125 73.035156 69.691406 C 68.5625 72.289062 63.304688 73.839844 57.828125 74.125 C 62.152344 72.035156 66.714844 68.421875 70.582031 63.4375 Z M 39.519531 44.175781 C 42.273438 43.917969 45.105469 43.417969 47.953125 42.6875 C 48.519531 42.5625 49.078125 42.402344 49.636719 42.246094 L 50.070312 42.113281 C 52.3125 41.449219 54.457031 40.671875 56.511719 39.757812 L 56.53125 39.761719 C 57.132812 39.5 57.726562 39.230469 58.3125 38.933594 C 58.675781 38.765625 59.042969 38.589844 59.398438 38.398438 C 59.949219 38.128906 60.480469 37.832031 61.019531 37.515625 C 62.042969 36.960938 63.039062 36.34375 63.984375 35.683594 C 64.359375 35.453125 64.730469 35.199219 65.089844 34.945312 C 65.21875 34.859375 65.34375 34.777344 65.445312 34.667969 C 65.976562 34.316406 66.457031 33.953125 66.898438 33.5625 C 67.421875 33.164062 67.886719 32.757812 68.347656 32.335938 C 70.011719 30.871094 71.429688 29.308594 72.597656 27.730469 C 73.011719 27.210938 73.375 26.671875 73.699219 26.15625 C 74.023438 25.664062 74.316406 25.1875 74.582031 24.695312 C 76.117188 21.929688 76.878906 19.355469 77.226562 17.296875 C 77.3125 16.722656 77.378906 16.1875 77.417969 15.726562 L 77.433594 15.542969 C 77.441406 15.457031 77.460938 15.359375 77.457031 15.273438 C 78.125 15.597656 78.804688 15.96875 79.46875 16.378906 C 79.777344 16.574219 80.097656 16.769531 80.425781 16.992188 L 80.425781 17.003906 C 80.445312 17.28125 80.445312 17.589844 80.460938 17.933594 C 80.464844 18.558594 80.441406 19.265625 80.367188 20.050781 C 80.320312 20.644531 80.246094 21.265625 80.109375 21.9375 C 79.855469 23.445312 79.378906 25.113281 78.601562 26.859375 C 77.910156 28.40625 76.992188 29.992188 75.804688 31.546875 C 75.417969 32.09375 75 32.632812 74.542969 33.152344 C 74.046875 33.742188 73.523438 34.3125 72.96875 34.878906 L 72.585938 35.238281 C 71.847656 36.007812 71.03125 36.726562 70.171875 37.4375 C 69.957031 37.625 69.730469 37.808594 69.472656 37.996094 C 69.40625 38.058594 69.335938 38.132812 69.226562 38.175781 C 68.804688 38.539062 68.351562 38.875 67.882812 39.226562 C 67.871094 39.179688 67.871094 39.179688 67.847656 39.175781 C 67.867188 39.203125 67.863281 39.222656 67.859375 39.234375 C 66.28125 40.390625 64.574219 41.503906 62.761719 42.527344 C 62.292969 42.824219 61.824219 43.078125 61.320312 43.335938 L 61.160156 43.425781 C 60.644531 43.703125 60.113281 43.976562 59.578125 44.238281 C 58.328125 44.878906 57.054688 45.460938 55.742188 46.035156 C 52.96875 47.207031 50.195312 48.207031 47.460938 49.011719 C 46.832031 49.203125 46.210938 49.390625 45.585938 49.546875 C 43.542969 50.101562 41.53125 50.554688 39.578125 50.875 C 38.988281 50.972656 38.394531 51.070312 37.832031 51.140625 C 37.242188 51.238281 36.671875 51.296875 36.101562 51.355469 C 33.515625 51.613281 31.078125 51.613281 28.84375 51.496094 C 28.316406 51.453125 27.816406 51.425781 27.324219 51.367188 C 26.816406 51.339844 26.335938 51.273438 25.875 51.210938 C 23.933594 50.945312 22.238281 50.507812 20.796875 49.945312 C 20.722656 49.929688 20.660156 49.90625 20.59375 49.859375 C 20.203125 48.714844 19.898438 47.546875 19.65625 46.375 C 19.300781 44.636719 19.089844 42.902344 19.042969 41.160156 L 19.09375 41.226562 L 20.449219 41.78125 C 22.59375 42.59375 25.015625 43.359375 27.710938 43.847656 C 28.214844 43.953125 28.75 44.027344 29.316406 44.089844 C 30.40625 44.238281 31.535156 44.339844 32.703125 44.371094 C 34.320312 44.453125 35.964844 44.453125 37.679688 44.320312 C 38.289062 44.292969 38.902344 44.246094 39.519531 44.175781 Z M 56.382812 47.617188 C 57.417969 47.171875 58.445312 46.714844 59.421875 46.214844 C 60.03125 45.933594 60.628906 45.628906 61.210938 45.308594 C 61.636719 45.113281 62.035156 44.875 62.441406 44.664062 C 62.964844 44.367188 63.460938 44.085938 63.964844 43.761719 C 65.359375 42.953125 66.71875 42.058594 67.96875 41.140625 C 68.324219 40.910156 68.664062 40.660156 68.964844 40.414062 C 69.195312 40.253906 69.417969 40.082031 69.617188 39.902344 C 69.851562 39.730469 70.074219 39.546875 70.277344 39.359375 C 70.589844 39.136719 70.875 38.867188 71.160156 38.640625 C 72.136719 37.800781 73.070312 36.929688 73.917969 36.015625 C 74.125 35.820312 74.3125 35.59375 74.507812 35.394531 L 74.964844 34.875 C 75.449219 34.328125 75.890625 33.78125 76.289062 33.238281 C 77.769531 31.261719 78.929688 29.261719 79.6875 27.335938 C 80.203125 26.050781 80.578125 24.820312 80.816406 23.664062 C 80.933594 22.988281 81.035156 22.347656 81.105469 21.738281 C 81.257812 20.257812 81.222656 18.933594 81.109375 17.890625 C 81.085938 17.71875 81.066406 17.5625 81.0625 17.417969 C 82.375 18.347656 83.652344 19.433594 84.863281 20.691406 C 84.636719 22.695312 84.210938 25.085938 83.433594 27.789062 C 83.398438 27.902344 83.371094 28.027344 83.328125 28.140625 C 83.191406 28.59375 83.050781 29.058594 82.898438 29.523438 L 82.894531 29.542969 C 82.804688 29.765625 82.746094 29.996094 82.65625 30.226562 C 82.558594 30.539062 82.441406 30.851562 82.335938 31.148438 C 81.5625 33.195312 80.617188 35.335938 79.320312 37.472656 C 79.210938 37.679688 79.070312 37.890625 78.929688 38.101562 C 78.703125 38.496094 78.453125 38.859375 78.183594 39.265625 C 78.023438 39.515625 77.84375 39.742188 77.660156 40 C 77.601562 40.066406 77.5625 40.148438 77.492188 40.21875 C 77.257812 40.566406 76.980469 40.902344 76.710938 41.253906 C 76.445312 41.582031 76.164062 41.929688 75.875 42.265625 C 75.277344 42.988281 74.636719 43.699219 73.957031 44.394531 C 73.570312 44.773438 73.1875 45.15625 72.773438 45.507812 C 71.714844 46.542969 70.558594 47.53125 69.304688 48.449219 C 69.035156 48.6875 68.730469 48.898438 68.433594 49.113281 C 68.082031 49.390625 67.722656 49.644531 67.34375 49.886719 C 67.261719 49.96875 67.171875 50.015625 67.085938 50.074219 C 65.59375 51.082031 64.039062 52.035156 62.410156 52.90625 C 61.488281 53.394531 60.558594 53.859375 59.617188 54.316406 C 58.957031 54.605469 58.289062 54.90625 57.617188 55.195312 C 53.453125 56.992188 49.316406 58.269531 45.359375 59.164062 C 44.875 59.285156 44.390625 59.390625 43.945312 59.488281 C 41.75 59.921875 39.617188 60.261719 37.585938 60.480469 C 37.0625 60.535156 36.554688 60.597656 36.050781 60.644531 C 34.496094 60.785156 33.03125 60.867188 31.636719 60.886719 C 31.167969 60.921875 30.695312 60.933594 30.25 60.910156 L 29.777344 60.921875 C 28.667969 60.914062 27.625 60.871094 26.640625 60.800781 C 24.199219 57.863281 22.292969 54.542969 21 51.074219 C 22.355469 51.628906 23.910156 52.078125 25.644531 52.382812 C 26.230469 52.480469 26.824219 52.570312 27.441406 52.664062 L 28.988281 52.828125 C 31.128906 53.019531 33.457031 53.058594 35.886719 52.878906 C 36.441406 52.839844 37 52.792969 37.574219 52.722656 C 38.300781 52.652344 39.035156 52.550781 39.792969 52.433594 C 41.539062 52.160156 43.300781 51.808594 45.113281 51.371094 C 45.691406 51.226562 46.269531 51.070312 46.875 50.910156 C 50 50.105469 53.199219 49.011719 56.382812 47.617188 Z M 57.117188 27.597656 L 56.167969 28.742188 L 55.113281 30.148438 C 53.996094 31.617188 52.933594 33.207031 51.957031 34.871094 L 51.933594 34.867188 C 51.664062 35.335938 51.375 35.835938 51.105469 36.328125 L 51.085938 36.324219 L 50.28125 37.78125 C 49.773438 38.753906 49.28125 39.714844 48.835938 40.699219 C 45.90625 41.5 42.976562 42.089844 40.136719 42.414062 C 40.285156 41.953125 40.484375 41.476562 40.664062 41.023438 C 41.824219 38.167969 43.183594 35.507812 44.648438 33.023438 L 45.476562 31.671875 C 46.425781 30.15625 47.421875 28.726562 48.453125 27.382812 C 48.804688 26.90625 49.175781 26.433594 49.539062 25.992188 C 51.066406 24.125 52.621094 22.429688 54.210938 20.945312 C 54.671875 21.742188 55.070312 22.570312 55.46875 23.421875 C 56.074219 24.738281 56.625 26.148438 57.117188 27.597656 Z M 47.929688 25.464844 C 47.550781 25.914062 47.191406 26.375 46.820312 26.847656 C 45.8125 28.164062 44.824219 29.5625 43.921875 31.019531 C 43.632812 31.457031 43.355469 31.890625 43.101562 32.34375 C 41.601562 34.832031 40.238281 37.5 39.078125 40.367188 C 38.78125 41.117188 38.496094 41.859375 38.230469 42.613281 C 36.339844 42.796875 34.523438 42.835938 32.746094 42.777344 C 31.683594 42.769531 30.65625 42.710938 29.648438 42.589844 C 30.527344 38.957031 32.046875 35.265625 34.085938 31.746094 C 34.546875 30.945312 35.039062 30.15625 35.546875 29.394531 C 35.792969 29.007812 36.039062 28.609375 36.300781 28.246094 C 37.109375 27.085938 37.945312 25.953125 38.851562 24.867188 C 39.207031 24.414062 39.597656 23.957031 39.972656 23.507812 C 43.085938 19.894531 46.507812 16.914062 49.835938 14.605469 C 51.128906 16.054688 52.378906 17.761719 53.488281 19.667969 C 51.585938 21.335938 49.695312 23.285156 47.929688 25.464844 Z M 38.027344 23.171875 C 37.660156 23.613281 37.296875 24.050781 36.949219 24.515625 C 36.132812 25.535156 35.34375 26.601562 34.597656 27.71875 C 34.335938 28.082031 34.101562 28.4375 33.855469 28.828125 C 33.421875 29.492188 32.984375 30.183594 32.582031 30.902344 C 30.449219 34.597656 28.863281 38.511719 28.011719 42.386719 C 25.277344 41.976562 22.792969 41.253906 20.585938 40.472656 C 21.128906 36.558594 22.441406 32.539062 24.566406 28.777344 C 25.027344 27.960938 25.503906 27.148438 26.011719 26.386719 C 26.175781 26.125 26.359375 25.878906 26.554688 25.621094 C 27.039062 24.855469 27.597656 24.125 28.148438 23.417969 C 28.484375 23.015625 28.8125 22.578125 29.167969 22.203125 C 31.15625 19.890625 33.308594 17.855469 35.496094 16.125 C 38.722656 13.554688 42.015625 11.632812 45.066406 10.242188 C 45.710938 10.683594 46.339844 11.195312 46.988281 11.757812 C 47.613281 12.292969 48.230469 12.878906 48.832031 13.507812 C 45.164062 15.945312 41.414062 19.1875 38.027344 23.171875 Z M 62.960938 23.253906 L 63.109375 23.582031 C 64.449219 26.125 65.601562 28.953125 66.441406 31.964844 C 65.726562 32.554688 64.976562 33.109375 64.179688 33.671875 L 64.167969 33.679688 C 63.679688 34.019531 63.160156 34.359375 62.632812 34.679688 C 62.042969 35.050781 61.417969 35.425781 60.800781 35.75 C 60.664062 34.867188 60.511719 33.96875 60.320312 33.085938 C 60.15625 32.28125 59.988281 31.492188 59.765625 30.710938 C 59.542969 29.765625 59.273438 28.84375 58.96875 27.9375 C 58.785156 27.339844 58.574219 26.757812 58.351562 26.1875 C 57.90625 24.988281 57.417969 23.84375 56.898438 22.75 C 56.425781 21.742188 55.917969 20.804688 55.382812 19.894531 C 55.160156 19.472656 54.898438 19.046875 54.628906 18.652344 C 53.507812 16.863281 52.269531 15.257812 50.980469 13.851562 C 50.648438 13.488281 50.304688 13.121094 49.96875 12.789062 C 49.242188 12.058594 48.507812 11.414062 47.773438 10.824219 C 47.269531 10.402344 46.746094 10.019531 46.242188 9.6875 C 45.816406 9.367188 45.398438 9.105469 44.96875 8.84375 C 44.355469 8.472656 43.746094 8.128906 43.15625 7.84375 C 44.367188 7.457031 45.574219 7.136719 46.816406 6.910156 C 47.261719 7.132812 47.730469 7.371094 48.207031 7.65625 C 48.621094 7.882812 49.0625 8.140625 49.496094 8.425781 C 50.636719 9.121094 51.855469 9.976562 53.101562 11 C 53.25 11.128906 53.414062 11.25 53.570312 11.394531 C 53.773438 11.566406 53.976562 11.75 54.191406 11.9375 C 55.507812 13.109375 56.855469 14.492188 58.15625 16.054688 C 58.410156 16.371094 58.683594 16.703125 58.953125 17.042969 C 60.179688 18.601562 61.34375 20.34375 62.390625 22.226562 C 62.585938 22.5625 62.78125 22.898438 62.960938 23.253906 Z M 60.136719 16.246094 C 59.878906 15.894531 59.605469 15.585938 59.347656 15.292969 C 58.058594 13.777344 56.738281 12.460938 55.390625 11.328125 C 55.058594 11.03125 54.695312 10.726562 54.355469 10.457031 C 54.332031 10.453125 54.335938 10.441406 54.3125 10.4375 C 53.121094 9.46875 51.925781 8.675781 50.800781 8.003906 C 50.363281 7.738281 49.929688 7.496094 49.53125 7.257812 C 49.113281 7.050781 48.691406 6.855469 48.3125 6.667969 C 49.996094 6.421875 51.6875 6.3125 53.328125 6.339844 L 53.347656 6.347656 C 53.691406 6.546875 54.03125 6.761719 54.40625 7.003906 C 55.371094 7.597656 56.414062 8.28125 57.515625 9.113281 C 57.882812 9.351562 58.25 9.648438 58.632812 9.925781 C 58.847656 10.101562 59.0625 10.277344 59.289062 10.464844 C 59.429688 10.570312 59.582031 10.691406 59.726562 10.828125 C 60.171875 11.183594 60.617188 11.574219 61.070312 11.972656 C 61.621094 12.449219 62.152344 12.964844 62.695312 13.515625 C 62.96875 13.777344 63.242188 14.054688 63.535156 14.34375 C 64.773438 15.609375 66.015625 17.039062 67.210938 18.644531 C 67.472656 18.960938 67.730469 19.3125 67.976562 19.667969 C 69.121094 21.242188 70.191406 22.957031 71.175781 24.792969 C 71.453125 25.308594 71.714844 25.847656 71.964844 26.378906 C 70.835938 27.871094 69.46875 29.355469 67.867188 30.777344 C 66.9375 27.789062 65.734375 25 64.34375 22.496094 L 64.324219 22.480469 C 64.089844 22.070312 63.859375 21.652344 63.597656 21.222656 C 62.527344 19.390625 61.363281 17.746094 60.136719 16.246094 Z M 64.011719 12.972656 C 63.300781 12.277344 62.570312 11.625 61.863281 11.050781 C 61.851562 11.015625 61.820312 11.007812 61.800781 10.992188 C 61.546875 10.777344 61.304688 10.585938 61.066406 10.402344 C 60.65625 10.054688 60.265625 9.765625 59.863281 9.476562 C 61.515625 8.917969 63.007812 8.542969 64.304688 8.316406 C 66.671875 9.167969 68.8125 10.234375 70.695312 11.476562 C 70.359375 11.507812 69.984375 11.515625 69.601562 11.570312 C 68.996094 11.632812 68.351562 11.730469 67.628906 11.875 C 66.539062 12.113281 65.3125 12.472656 64.011719 12.972656 Z M 64.832031 13.746094 C 66.054688 14.984375 67.296875 16.359375 68.484375 17.886719 C 68.570312 17.839844 68.636719 17.789062 68.722656 17.75 C 71.1875 16.371094 73.445312 15.574219 75.246094 15.101562 C 75.707031 14.988281 76.128906 14.902344 76.53125 14.820312 C 75.492188 14.320312 74.480469 13.902344 73.515625 13.539062 C 72.074219 13.023438 70.710938 12.609375 69.441406 12.292969 L 69.417969 12.289062 C 68.136719 12.550781 66.550781 13.003906 64.832031 13.746094 Z M 73.519531 24.101562 C 75.261719 21.246094 76.128906 18.574219 76.5625 16.535156 C 76.648438 16.222656 76.6875 15.925781 76.746094 15.632812 L 76.785156 15.441406 C 76.496094 15.523438 76.179688 15.625 75.847656 15.742188 C 74.09375 16.324219 71.847656 17.273438 69.324219 18.808594 C 69.300781 18.824219 69.265625 18.839844 69.246094 18.867188 C 70.429688 20.425781 71.550781 22.171875 72.582031 24.027344 C 72.722656 24.300781 72.894531 24.585938 73.023438 24.875 C 73.195312 24.625 73.347656 24.363281 73.519531 24.101562 Z M 77.570312 44.050781 C 77.585938 43.605469 77.589844 43.167969 77.589844 42.730469 L 77.964844 42.246094 C 78.414062 41.660156 78.855469 41.070312 79.25 40.472656 C 79.710938 41.0625 80.167969 41.714844 80.570312 42.433594 C 80.914062 43.042969 81.238281 43.699219 81.519531 44.371094 C 81.660156 44.742188 81.800781 45.132812 81.917969 45.519531 C 82.328125 46.722656 82.621094 48.011719 82.785156 49.347656 C 82.9375 50.578125 83 51.773438 82.976562 52.953125 C 82.996094 53.230469 82.980469 53.503906 82.96875 53.773438 C 82.929688 54.929688 82.851562 56.054688 82.695312 57.128906 C 82.683594 57.398438 82.636719 57.6875 82.597656 57.929688 C 82.375 59.484375 82.082031 60.90625 81.800781 62.164062 C 81.003906 63.152344 80.171875 64.101562 79.253906 64.996094 C 79.121094 65.109375 78.992188 65.25 78.847656 65.371094 C 78.960938 63.652344 78.972656 61.726562 78.808594 59.605469 C 78.753906 58.96875 78.691406 58.308594 78.589844 57.632812 C 78.5625 57.386719 78.523438 57.15625 78.476562 56.90625 C 78.308594 55.851562 78.074219 54.761719 77.789062 53.640625 C 77.726562 53.417969 77.683594 53.191406 77.617188 52.980469 C 77.371094 52.105469 77.082031 51.210938 76.75 50.320312 C 77.242188 48.304688 77.515625 46.191406 77.570312 44.050781 Z M 75.800781 53.710938 C 75.875 53.507812 75.960938 53.296875 76.015625 53.097656 L 76.109375 52.800781 L 76.203125 53.082031 C 76.273438 53.28125 76.328125 53.492188 76.378906 53.675781 C 76.695312 54.796875 76.964844 55.871094 77.15625 56.917969 C 77.21875 57.152344 77.257812 57.378906 77.292969 57.59375 C 77.417969 58.3125 77.53125 59.035156 77.613281 59.710938 C 77.898438 62.152344 77.9375 64.363281 77.851562 66.273438 C 76.75 67.253906 75.554688 68.148438 74.273438 68.949219 C 74.335938 66.132812 74.085938 62.878906 73.195312 59.480469 C 73.535156 58.894531 73.855469 58.300781 74.148438 57.679688 C 74.265625 57.484375 74.359375 57.285156 74.4375 57.082031 C 74.957031 55.996094 75.414062 54.882812 75.800781 53.710938 Z M 83.769531 45.800781 C 85.574219 46.085938 87.703125 46.503906 89.917969 47.253906 C 89.277344 49.304688 88.414062 51.355469 87.398438 53.371094 C 87.261719 53.660156 87.113281 53.9375 86.957031 54.222656 C 86.648438 54.828125 86.304688 55.414062 85.960938 56.023438 L 85.117188 57.40625 C 84.949219 57.679688 84.777344 57.941406 84.609375 58.226562 C 84.390625 58.585938 84.144531 58.941406 83.917969 59.289062 C 83.992188 58.921875 84.070312 58.542969 84.132812 58.136719 C 84.191406 57.863281 84.246094 57.578125 84.285156 57.292969 C 84.449219 56.230469 84.59375 55.097656 84.628906 53.917969 C 84.644531 53.636719 84.667969 53.355469 84.664062 53.058594 C 84.703125 51.796875 84.648438 50.46875 84.488281 49.117188 C 84.339844 47.96875 84.109375 46.859375 83.769531 45.800781 Z M 83.296875 44.421875 C 85.285156 44.5 87.769531 44.792969 90.382812 45.628906 C 91.289062 42.304688 91.648438 38.96875 91.433594 35.808594 C 91.148438 35.75 90.84375 35.730469 90.5 35.703125 C 88.867188 35.589844 86.609375 35.957031 84.222656 36.890625 C 82.835938 37.449219 81.550781 38.050781 80.417969 38.640625 C 80.289062 38.832031 80.175781 39.027344 80.058594 39.222656 C 80.726562 39.910156 81.351562 40.71875 81.910156 41.625 C 82.460938 42.460938 82.921875 43.421875 83.296875 44.421875 Z M 83.632812 35.277344 C 86.210938 34.273438 88.878906 34.035156 90.714844 34.5 L 91.367188 34.6875 C 91.167969 32.882812 90.808594 31.164062 90.25 29.523438 C 89.453125 29.492188 88.558594 29.46875 87.59375 29.480469 C 86.367188 29.511719 85.210938 29.546875 84.199219 29.558594 C 83.621094 31.621094 82.828125 33.863281 81.75 36.117188 C 82.347656 35.824219 82.976562 35.546875 83.632812 35.277344 Z M 83.632812 35.277344 " fill-opacity="1" fill-rule="evenodd"/></g></g></g><g fill="#be9fd4" fill-opacity="1"><g transform="translate(212.585063, 90.113737)"><g><path d="M 15.5 2.84375 C 17.171875 2.84375 18.3125 1.90625 18.734375 0.1875 C 20.609375 -7.40625 24.15625 -17.140625 28.203125 -22.984375 C 29.0625 -24.265625 28.671875 -25.859375 27.3125 -26.765625 C 25.90625 -27.65625 24.46875 -27.265625 23.53125 -25.78125 C 20.21875 -20.453125 17.09375 -11.71875 14.953125 -4.59375 C 11.296875 -11.6875 8.53125 -18.859375 5.953125 -26.796875 C 5.421875 -28.46875 4.09375 -29.09375 2.65625 -28.671875 C 1.171875 -28.234375 0.1875 -26.921875 0.734375 -25.203125 C 2.796875 -18.78125 7.171875 -8.296875 12.234375 0.625 C 13.046875 2.109375 14.140625 2.84375 15.5 2.84375 Z M 15.5 2.84375 "/></g></g></g><g fill="#be9fd4" fill-opacity="1"><g transform="translate(241.834882, 90.113737)"><g><path d="M 8.453125 2.796875 C 12.3125 2.796875 15.3125 -0.234375 18.265625 -6.109375 C 18.390625 -4.953125 18.546875 -3.859375 18.734375 -2.875 C 19.171875 -1.125 21.078125 -0.625 22.625 -1.59375 C 23.5625 -2.1875 23.796875 -3.15625 23.609375 -4.203125 C 23.0625 -7.171875 23.171875 -12.78125 24.109375 -18 C 24.5 -20.171875 23.875 -21.96875 22.4375 -22.3125 C 21.46875 -22.515625 20.484375 -22.203125 19.90625 -21.46875 C 19.703125 -21.78125 19.46875 -22.125 19.125 -22.390625 C 17.765625 -23.53125 16.171875 -24 14.40625 -24 C 7.984375 -24 1.171875 -14.328125 1.171875 -5.6875 C 1.171875 -0.8125 4.09375 2.796875 8.453125 2.796875 Z M 6.234375 -5.6875 C 6.234375 -11.375 11.0625 -18.9375 14.40625 -18.9375 C 15.1875 -18.9375 15.703125 -18.546875 16.328125 -18.1875 C 16.9375 -17.84375 17.765625 -17.640625 18.546875 -17.875 C 15.390625 -9.15625 10.90625 -2.265625 8.453125 -2.265625 C 7.125 -2.265625 6.234375 -3.5 6.234375 -5.6875 Z M 6.265625 9.625 C 7.125 10.90625 9.109375 10.796875 10.40625 9.890625 C 10.90625 9.546875 11.484375 9 11.875 8.53125 C 12.96875 7.203125 12.734375 5.21875 11.375 4.359375 C 10.25 3.65625 8.875 4.328125 8.40625 4.828125 C 7.828125 5.453125 7.4375 5.921875 6.890625 6.234375 C 5.71875 6.890625 5.609375 8.609375 6.265625 9.625 Z M 10.40625 -26.640625 C 11.40625 -25.625 12.8125 -26.140625 13.9375 -26.953125 L 17.171875 -29.296875 L 19.46875 -26.875 C 20.453125 -25.828125 21.625 -25.359375 22.828125 -26.296875 C 23.953125 -27.15625 24.15625 -28.625 23.296875 -29.765625 C 22.25 -31.125 20.875 -32.25 19.671875 -33.453125 C 18.46875 -34.671875 17.015625 -34.625 15.734375 -33.84375 C 14.6875 -33.234375 11.921875 -31.46875 10.59375 -30.34375 C 9.390625 -29.296875 9.34375 -27.703125 10.40625 -26.640625 Z M 10.40625 -26.640625 "/></g></g></g><g fill="#be9fd4" fill-opacity="1"><g transform="translate(267.618355, 90.113737)"><g><path d="M 9.890625 1.09375 C 10.71875 1.09375 11.6875 0.890625 12.625 0.546875 C 14.0625 0.03125 15.15625 -1.484375 14.5625 -3.078125 C 14.09375 -4.25 13.09375 -4.875 11.6875 -4.328125 C 11.171875 -4.125 10.875 -3.96875 10.25 -3.96875 C 9.15625 -3.96875 8.71875 -5.34375 8.71875 -7.125 C 8.71875 -9.578125 8.875 -12.5 9.234375 -15.78125 C 11.609375 -15.859375 14.015625 -15.890625 15.5 -16.015625 C 16.984375 -16.125 18 -17.296875 17.875 -18.734375 C 17.765625 -20.171875 16.640625 -21.1875 15.15625 -21.078125 C 13.875 -20.953125 11.921875 -20.921875 9.859375 -20.84375 L 10.25 -23.53125 C 10.484375 -25.015625 9.625 -26.25 8.1875 -26.484375 C 6.734375 -26.71875 5.5 -25.78125 5.265625 -24.3125 C 5.0625 -23.015625 4.875 -21.78125 4.71875 -20.5625 C 4.09375 -20.53125 3.546875 -20.453125 3.03125 -20.375 C 1.359375 -20.09375 0.46875 -18.703125 0.859375 -17.171875 C 1.203125 -15.8125 2.421875 -15.15625 3.8125 -15.390625 L 4.09375 -15.421875 C 3.8125 -12.34375 3.65625 -9.546875 3.65625 -7.125 C 3.65625 -2.578125 5.421875 1.09375 9.890625 1.09375 Z M 9.890625 1.09375 "/></g></g></g><g fill="#be9fd4" fill-opacity="1"><g transform="translate(285.884892, 90.113737)"><g/></g></g><g fill="#be9fd4" fill-opacity="1"><g transform="translate(305.358805, 90.113737)"><g><path d="M 5.453125 1.28125 C 6.859375 0.890625 7.515625 -0.265625 7.28125 -1.671875 C 6.15625 -8.21875 6.46875 -18.703125 8.03125 -26.328125 C 8.296875 -27.703125 7.75 -29.09375 6.15625 -29.53125 C 4.75 -29.921875 3.390625 -29.09375 3.078125 -27.578125 C 1.40625 -19.25 1.046875 -7.984375 2.296875 -0.703125 C 2.578125 0.859375 4.015625 1.671875 5.453125 1.28125 Z M 5.453125 1.28125 "/></g></g></g><g fill="#be9fd4" fill-opacity="1"><g transform="translate(315.017873, 90.113737)"><g><path d="M 4.75 1.5625 C 6.1875 1.28125 6.96875 0 6.734375 -1.4375 C 5.875 -6.8125 6 -10.90625 7.09375 -15.65625 C 7.40625 -17.015625 6.65625 -18.265625 5.296875 -18.65625 C 3.890625 -19.046875 2.53125 -18.265625 2.1875 -16.75 C 0.9375 -11.40625 0.859375 -6.578125 1.75 -0.578125 C 1.984375 0.96875 3.3125 1.828125 4.75 1.5625 Z M 3.859375 -24.703125 C 2.296875 -23.84375 3.421875 -21.234375 5.84375 -21.46875 C 7.75 -21.625 9.078125 -23.25 9.34375 -24.78125 C 9.65625 -26.484375 7.484375 -27.625 6.109375 -26.6875 C 5.03125 -25.9375 4.984375 -25.3125 3.859375 -24.703125 Z M 3.859375 -24.703125 "/></g></g></g><g fill="#be9fd4" fill-opacity="1"><g transform="translate(324.482201, 90.113737)"><g><path d="M 10.046875 2.140625 C 13.25 2.140625 15.578125 1.328125 18.421875 -1.09375 C 19.625 -2.109375 19.671875 -3.703125 18.65625 -4.796875 C 17.6875 -5.84375 16.203125 -5.84375 15.03125 -4.875 C 13.171875 -3.3125 11.921875 -2.921875 10.046875 -2.921875 C 7.984375 -2.921875 6.234375 -4.640625 6.234375 -6.96875 C 6.234375 -7.25 6.234375 -7.484375 6.265625 -7.75 L 6.390625 -7.71875 C 14.328125 -5.765625 23.296875 -9.9375 23.296875 -16.28125 C 23.296875 -20.71875 19.75 -24.265625 15.1875 -24.265625 C 7.875 -24.265625 1.171875 -15.96875 1.171875 -6.96875 C 1.171875 -1.875 4.984375 2.140625 10.046875 2.140625 Z M 7.09375 9.859375 C 7.953125 11.140625 9.9375 11.03125 11.21875 10.125 C 11.71875 9.78125 12.3125 9.234375 12.703125 8.765625 C 13.796875 7.4375 13.5625 5.453125 12.1875 4.59375 C 11.0625 3.890625 9.703125 4.5625 9.234375 5.0625 C 8.640625 5.6875 8.265625 6.15625 7.71875 6.46875 C 6.546875 7.125 6.421875 8.84375 7.09375 9.859375 Z M 7.484375 -12.625 C 9.109375 -16.40625 12.1875 -19.203125 15.1875 -19.203125 C 16.9375 -19.203125 18.234375 -17.921875 18.234375 -16.28125 C 18.234375 -13.59375 12.5 -11.5625 7.796875 -12.578125 C 7.671875 -12.625 7.5625 -12.625 7.484375 -12.625 Z M 9.421875 -26.921875 C 10.4375 -25.90625 11.84375 -26.40625 12.96875 -27.234375 L 16.203125 -29.5625 L 18.5 -27.15625 C 19.46875 -26.09375 20.640625 -25.625 21.859375 -26.5625 C 22.984375 -27.421875 23.171875 -28.90625 22.3125 -30.03125 C 21.265625 -31.390625 19.90625 -32.53125 18.703125 -33.734375 C 17.484375 -34.9375 16.046875 -34.90625 14.765625 -34.125 C 13.71875 -33.5 10.953125 -31.75 9.625 -30.609375 C 8.40625 -29.5625 8.375 -27.96875 9.421875 -26.921875 Z M 9.421875 -26.921875 "/></g></g></g><g fill="#be9fd4" fill-opacity="1"><g transform="translate(348.551958, 90.113737)"><g><path d="M 9.390625 1.953125 C 10.953125 1.953125 12.34375 1.28125 13.59375 -0.03125 C 14.53125 -1.046875 15.5 -2.421875 16.125 -4.015625 C 16.5625 -2.421875 17.015625 -1.328125 17.328125 -0.421875 C 17.875 1.09375 19.59375 1.59375 20.921875 0.8125 C 22.125 0.109375 22.4375 -1.09375 21.9375 -2.375 C 20.484375 -6.03125 20.171875 -10.671875 20.921875 -17.71875 C 21.03125 -19.09375 20.296875 -20.375 18.65625 -20.609375 C 17.21875 -20.796875 15.96875 -19.90625 15.734375 -18.421875 C 14.484375 -9.859375 12.109375 -3.109375 9.390625 -3.109375 C 7.125 -3.109375 6 -8.6875 7.28125 -18 C 7.484375 -19.4375 6.859375 -20.640625 5.5 -21.03125 C 3.96875 -21.46875 2.609375 -20.640625 2.296875 -19.09375 C 0.1875 -8.53125 2.453125 1.953125 9.390625 1.953125 Z M 9.390625 1.953125 "/></g></g></g></svg>