<svg xmlns="http://www.w3.org/2000/svg" xmlns:xlink="http://www.w3.org/1999/xlink" width="769" zoomAndPan="magnify" viewBox="0 0 576.75 95.999999" height="128" preserveAspectRatio="xMidYMid meet" version="1.0"><defs><g/><clipPath id="a9acbb5f9c"><path d="M 0 6.464844 L 538 6.464844 L 538 95.804688 L 0 95.804688 Z M 0 6.464844 " clip-rule="nonzero"/></clipPath><clipPath id="ff0e8d751a"><path d="M 37.484375 6.464844 L 500.371094 6.464844 C 510.3125 6.464844 519.847656 10.414062 526.878906 17.445312 C 533.90625 24.472656 537.855469 34.007812 537.855469 43.949219 L 537.855469 58.324219 C 537.855469 68.265625 533.90625 77.796875 526.878906 84.828125 C 519.847656 91.855469 510.3125 95.804688 500.371094 95.804688 L 37.484375 95.804688 C 27.542969 95.804688 18.007812 91.855469 10.980469 84.828125 C 3.949219 77.796875 0 68.265625 0 58.324219 L 0 43.949219 C 0 34.007812 3.949219 24.472656 10.980469 17.445312 C 18.007812 10.414062 27.542969 6.464844 37.484375 6.464844 Z M 37.484375 6.464844 " clip-rule="nonzero"/></clipPath><clipPath id="e1b41c4ae8"><path d="M 480.269531 0.0195312 L 576.230469 0.0195312 L 576.230469 95.976562 L 480.269531 95.976562 Z M 480.269531 0.0195312 " clip-rule="nonzero"/></clipPath></defs><g clip-path="url(#a9acbb5f9c)"><g clip-path="url(#ff0e8d751a)"><path fill="#be9fd4" d="M 0 6.464844 L 537.789062 6.464844 L 537.789062 95.804688 L 0 95.804688 Z M 0 6.464844 " fill-opacity="1" fill-rule="nonzero"/></g></g><path fill="#cb6ce6" d="M 575.058594 47.914062 C 575.058594 73.816406 554.058594 94.8125 528.160156 94.8125 C 502.257812 94.8125 481.261719 73.816406 481.261719 47.914062 C 481.261719 22.015625 502.257812 1.019531 528.160156 1.019531 C 554.058594 1.019531 575.058594 22.015625 575.058594 47.914062 " fill-opacity="1" fill-rule="nonzero"/><g clip-path="url(#e1b41c4ae8)"><path fill="#2f1f32" d="M 538.933594 92.546875 L 538.738281 92.597656 C 538.609375 92.625 538.492188 92.679688 538.386719 92.757812 C 538.277344 92.835938 538.191406 92.929688 538.121094 93.042969 C 538.050781 93.152344 538.007812 93.273438 537.988281 93.40625 C 537.964844 93.535156 537.972656 93.664062 538 93.792969 C 538.03125 93.917969 538.085938 94.035156 538.164062 94.144531 C 538.238281 94.25 538.335938 94.339844 538.445312 94.40625 C 538.558594 94.476562 538.679688 94.519531 538.808594 94.542969 C 538.941406 94.5625 539.070312 94.558594 539.195312 94.527344 L 539.394531 94.480469 C 539.523438 94.449219 539.640625 94.394531 539.746094 94.320312 C 539.855469 94.242188 539.941406 94.148438 540.011719 94.035156 C 540.078125 93.921875 540.125 93.800781 540.144531 93.671875 C 540.167969 93.542969 540.160156 93.414062 540.132812 93.285156 C 540.101562 93.15625 540.046875 93.039062 539.96875 92.933594 C 539.890625 92.824219 539.796875 92.738281 539.683594 92.667969 C 539.574219 92.601562 539.453125 92.554688 539.324219 92.535156 C 539.191406 92.511719 539.0625 92.519531 538.933594 92.546875 Z M 536.394531 93.082031 C 533.6875 93.574219 530.941406 93.820312 528.164062 93.820312 C 523.796875 93.820312 519.535156 93.21875 515.382812 92.015625 C 513.367188 91.433594 511.398438 90.714844 509.480469 89.859375 C 507.585938 89.011719 505.757812 88.042969 503.988281 86.945312 C 502.238281 85.859375 500.566406 84.65625 498.972656 83.34375 C 497.382812 82.03125 495.890625 80.621094 494.488281 79.113281 C 493.085938 77.601562 491.792969 76.003906 490.605469 74.316406 C 489.414062 72.625 488.339844 70.859375 487.386719 69.023438 C 487.328125 68.90625 487.246094 68.804688 487.144531 68.722656 C 487.046875 68.636719 486.933594 68.574219 486.808594 68.535156 C 486.679688 68.496094 486.554688 68.480469 486.421875 68.492188 C 486.289062 68.503906 486.167969 68.539062 486.050781 68.597656 C 485.933594 68.660156 485.832031 68.742188 485.746094 68.839844 C 485.664062 68.941406 485.601562 69.054688 485.5625 69.179688 C 485.519531 69.304688 485.507812 69.433594 485.519531 69.566406 C 485.53125 69.695312 485.566406 69.820312 485.625 69.9375 C 486.621094 71.851562 487.738281 73.695312 488.984375 75.460938 C 490.222656 77.21875 491.570312 78.886719 493.03125 80.460938 C 494.492188 82.039062 496.050781 83.507812 497.707031 84.875 C 499.371094 86.246094 501.113281 87.5 502.941406 88.632812 C 504.785156 89.777344 506.695312 90.789062 508.671875 91.671875 C 510.675781 92.566406 512.726562 93.316406 514.832031 93.925781 C 519.164062 95.175781 523.609375 95.804688 528.164062 95.804688 C 531.0625 95.804688 533.921875 95.546875 536.75 95.035156 C 536.878906 95.011719 537 94.964844 537.109375 94.894531 C 537.21875 94.824219 537.3125 94.734375 537.386719 94.625 C 537.464844 94.519531 537.515625 94.398438 537.542969 94.269531 C 537.570312 94.140625 537.574219 94.011719 537.550781 93.882812 C 537.527344 93.753906 537.480469 93.632812 537.40625 93.523438 C 537.335938 93.414062 537.246094 93.320312 537.136719 93.246094 C 537.03125 93.167969 536.910156 93.117188 536.78125 93.089844 C 536.65625 93.0625 536.523438 93.058594 536.394531 93.082031 Z M 486.179688 66.507812 L 486.097656 66.320312 C 486.042969 66.203125 485.96875 66.09375 485.875 66.003906 C 485.78125 65.914062 485.671875 65.84375 485.546875 65.796875 C 485.425781 65.75 485.296875 65.726562 485.167969 65.730469 C 485.035156 65.734375 484.910156 65.761719 484.789062 65.8125 C 484.667969 65.867188 484.5625 65.941406 484.472656 66.035156 C 484.378906 66.132812 484.3125 66.242188 484.261719 66.363281 C 484.214844 66.484375 484.195312 66.613281 484.195312 66.746094 C 484.199219 66.875 484.226562 67.003906 484.28125 67.121094 L 484.363281 67.308594 C 484.414062 67.429688 484.488281 67.535156 484.585938 67.625 C 484.679688 67.71875 484.789062 67.785156 484.910156 67.835938 C 485.035156 67.882812 485.160156 67.90625 485.292969 67.902344 C 485.425781 67.898438 485.550781 67.871094 485.671875 67.816406 C 485.792969 67.765625 485.898438 67.691406 485.988281 67.59375 C 486.078125 67.5 486.148438 67.390625 486.195312 67.269531 C 486.246094 67.144531 486.265625 67.019531 486.261719 66.886719 C 486.261719 66.753906 486.234375 66.628906 486.179688 66.507812 Z M 485.195312 64.105469 C 484.234375 61.558594 483.507812 58.941406 483.015625 56.261719 C 482.507812 53.511719 482.257812 50.730469 482.257812 47.910156 C 482.257812 44.269531 482.675781 40.691406 483.519531 37.179688 C 484.335938 33.769531 485.53125 30.496094 487.105469 27.355469 C 488.652344 24.273438 490.523438 21.398438 492.726562 18.726562 C 494.914062 16.074219 497.371094 13.691406 500.089844 11.585938 C 500.195312 11.507812 500.277344 11.410156 500.34375 11.292969 C 500.410156 11.179688 500.449219 11.058594 500.46875 10.925781 C 500.484375 10.796875 500.476562 10.667969 500.441406 10.542969 C 500.40625 10.414062 500.347656 10.296875 500.265625 10.195312 C 500.1875 10.089844 500.089844 10.003906 499.976562 9.941406 C 499.859375 9.875 499.738281 9.832031 499.609375 9.816406 C 499.476562 9.800781 499.347656 9.808594 499.222656 9.84375 C 499.09375 9.878906 498.980469 9.9375 498.875 10.015625 C 496.039062 12.214844 493.476562 14.695312 491.195312 17.464844 C 488.898438 20.25 486.945312 23.25 485.328125 26.464844 C 483.6875 29.742188 482.4375 33.160156 481.585938 36.71875 C 480.710938 40.382812 480.273438 44.113281 480.273438 47.910156 C 480.273438 50.851562 480.535156 53.753906 481.0625 56.617188 C 481.574219 59.417969 482.335938 62.148438 483.335938 64.808594 C 483.382812 64.929688 483.453125 65.039062 483.542969 65.136719 C 483.632812 65.234375 483.738281 65.308594 483.855469 65.363281 C 483.976562 65.417969 484.101562 65.445312 484.234375 65.449219 C 484.367188 65.453125 484.492188 65.433594 484.617188 65.386719 C 484.738281 65.339844 484.847656 65.273438 484.945312 65.179688 C 485.042969 65.089844 485.117188 64.988281 485.171875 64.867188 C 485.226562 64.746094 485.253906 64.621094 485.257812 64.488281 C 485.261719 64.359375 485.242188 64.230469 485.195312 64.105469 Z M 502.347656 9.945312 L 502.515625 9.832031 C 502.625 9.757812 502.714844 9.667969 502.789062 9.554688 C 502.859375 9.445312 502.910156 9.328125 502.933594 9.199219 C 502.960938 9.066406 502.957031 8.9375 502.933594 8.808594 C 502.90625 8.679688 502.855469 8.5625 502.78125 8.453125 C 502.707031 8.34375 502.617188 8.253906 502.503906 8.179688 C 502.394531 8.109375 502.277344 8.058594 502.144531 8.035156 C 502.015625 8.011719 501.886719 8.011719 501.757812 8.039062 C 501.628906 8.066406 501.511719 8.113281 501.402344 8.1875 L 501.234375 8.304688 C 501.125 8.378906 501.035156 8.46875 500.960938 8.578125 C 500.890625 8.6875 500.839844 8.808594 500.816406 8.9375 C 500.789062 9.066406 500.792969 9.195312 500.820312 9.324219 C 500.84375 9.453125 500.894531 9.574219 500.96875 9.683594 C 501.042969 9.789062 501.136719 9.882812 501.246094 9.953125 C 501.355469 10.027344 501.472656 10.074219 501.605469 10.101562 C 501.734375 10.125 501.863281 10.125 501.992188 10.097656 C 502.121094 10.070312 502.238281 10.019531 502.347656 9.945312 Z M 504.535156 8.546875 C 508.042969 6.433594 511.761719 4.824219 515.695312 3.71875 C 519.75 2.574219 523.90625 2.003906 528.164062 2.003906 C 531.082031 2.003906 533.957031 2.273438 536.796875 2.816406 C 539.570312 3.34375 542.265625 4.121094 544.890625 5.148438 C 547.46875 6.15625 549.9375 7.390625 552.296875 8.851562 C 554.632812 10.296875 556.820312 11.941406 558.867188 13.78125 C 558.964844 13.871094 559.074219 13.9375 559.199219 13.980469 C 559.324219 14.023438 559.449219 14.042969 559.582031 14.035156 C 559.714844 14.027344 559.839844 13.996094 559.957031 13.941406 C 560.074219 13.882812 560.179688 13.804688 560.265625 13.707031 C 560.355469 13.609375 560.421875 13.5 560.464844 13.375 C 560.507812 13.25 560.527344 13.125 560.519531 12.992188 C 560.515625 12.859375 560.480469 12.734375 560.425781 12.617188 C 560.367188 12.496094 560.292969 12.394531 560.195312 12.304688 C 558.0625 10.386719 555.777344 8.671875 553.339844 7.164062 C 550.878906 5.640625 548.304688 4.351562 545.613281 3.300781 C 542.875 2.226562 540.0625 1.414062 537.167969 0.863281 C 534.207031 0.300781 531.207031 0.0195312 528.164062 0.0195312 C 523.726562 0.0195312 519.390625 0.617188 515.15625 1.808594 C 511.054688 2.960938 507.171875 4.640625 503.507812 6.84375 C 503.398438 6.914062 503.300781 7 503.222656 7.105469 C 503.144531 7.210938 503.089844 7.328125 503.058594 7.457031 C 503.027344 7.582031 503.019531 7.710938 503.039062 7.84375 C 503.058594 7.972656 503.101562 8.09375 503.171875 8.207031 C 503.238281 8.320312 503.324219 8.414062 503.429688 8.492188 C 503.539062 8.570312 503.652344 8.625 503.78125 8.660156 C 503.910156 8.691406 504.039062 8.695312 504.167969 8.675781 C 504.300781 8.65625 504.421875 8.613281 504.535156 8.546875 Z M 560.882812 15.710938 L 560.980469 15.808594 L 561.023438 15.855469 C 561.117188 15.949219 561.222656 16.023438 561.34375 16.074219 C 561.464844 16.125 561.589844 16.152344 561.722656 16.15625 C 561.855469 16.15625 561.980469 16.132812 562.101562 16.082031 C 562.226562 16.035156 562.332031 15.964844 562.429688 15.871094 C 562.523438 15.78125 562.59375 15.671875 562.648438 15.550781 C 562.699219 15.429688 562.726562 15.304688 562.726562 15.171875 C 562.726562 15.042969 562.703125 14.914062 562.65625 14.792969 C 562.605469 14.671875 562.535156 14.5625 562.445312 14.46875 L 562.398438 14.417969 L 562.300781 14.320312 C 562.207031 14.226562 562.101562 14.152344 561.980469 14.101562 C 561.859375 14.050781 561.730469 14.023438 561.601562 14.023438 C 561.46875 14.023438 561.34375 14.046875 561.21875 14.09375 C 561.097656 14.144531 560.988281 14.214844 560.894531 14.308594 C 560.800781 14.398438 560.730469 14.507812 560.679688 14.628906 C 560.625 14.75 560.601562 14.875 560.597656 15.007812 C 560.597656 15.136719 560.621094 15.265625 560.671875 15.386719 C 560.71875 15.507812 560.789062 15.617188 560.882812 15.710938 Z M 562.652344 17.613281 C 564.4375 19.644531 566.03125 21.816406 567.433594 24.125 C 568.851562 26.457031 570.050781 28.898438 571.027344 31.4375 C 572.023438 34.027344 572.773438 36.6875 573.285156 39.414062 C 573.808594 42.210938 574.070312 45.042969 574.070312 47.910156 C 574.070312 50.46875 573.863281 52.996094 573.445312 55.496094 C 573.039062 57.945312 572.4375 60.339844 571.644531 62.683594 C 570.859375 64.984375 569.898438 67.214844 568.757812 69.367188 C 567.632812 71.496094 566.34375 73.523438 564.894531 75.457031 C 563.453125 77.375 561.871094 79.171875 560.148438 80.84375 C 558.421875 82.519531 556.582031 84.046875 554.621094 85.433594 C 552.644531 86.828125 550.578125 88.058594 548.414062 89.125 C 546.222656 90.203125 543.960938 91.097656 541.625 91.8125 C 541.5 91.851562 541.386719 91.914062 541.285156 91.996094 C 541.183594 92.082031 541.101562 92.179688 541.039062 92.296875 C 540.980469 92.414062 540.941406 92.539062 540.929688 92.667969 C 540.917969 92.800781 540.929688 92.925781 540.96875 93.054688 C 541.007812 93.179688 541.066406 93.292969 541.152344 93.394531 C 541.234375 93.496094 541.335938 93.578125 541.453125 93.640625 C 541.566406 93.703125 541.691406 93.738281 541.824219 93.75 C 541.953125 93.761719 542.082031 93.75 542.207031 93.710938 C 544.640625 92.964844 547.003906 92.03125 549.289062 90.90625 C 551.546875 89.792969 553.707031 88.511719 555.765625 87.054688 C 557.808594 85.609375 559.730469 84.015625 561.53125 82.269531 C 563.328125 80.523438 564.976562 78.648438 566.480469 76.648438 C 567.992188 74.632812 569.335938 72.519531 570.511719 70.296875 C 571.703125 68.050781 572.707031 65.722656 573.523438 63.320312 C 574.355469 60.875 574.980469 58.375 575.40625 55.824219 C 575.839844 53.214844 576.054688 50.578125 576.054688 47.910156 C 576.054688 44.921875 575.78125 41.964844 575.238281 39.050781 C 574.703125 36.203125 573.917969 33.429688 572.878906 30.726562 C 571.859375 28.074219 570.609375 25.53125 569.132812 23.09375 C 567.667969 20.683594 566.007812 18.421875 564.140625 16.300781 C 564.054688 16.203125 563.953125 16.125 563.835938 16.066406 C 563.714844 16.007812 563.589844 15.972656 563.460938 15.964844 C 563.328125 15.957031 563.199219 15.972656 563.074219 16.015625 C 562.953125 16.058594 562.839844 16.125 562.742188 16.210938 C 562.640625 16.296875 562.5625 16.398438 562.503906 16.519531 C 562.445312 16.636719 562.414062 16.761719 562.40625 16.890625 C 562.398438 17.023438 562.414062 17.152344 562.457031 17.277344 C 562.5 17.402344 562.5625 17.511719 562.652344 17.613281 Z M 562.652344 17.613281 " fill-opacity="1" fill-rule="nonzero"/></g><path fill="#e8bed8" d="M 555.046875 20.796875 L 499.710938 20.796875 L 499.710938 42.484375 L 506.742188 42.484375 L 512.023438 48.613281 L 512.023438 42.484375 L 524.164062 42.484375 L 528.75 48.613281 L 528.75 42.484375 L 539.90625 42.484375 L 545.183594 48.613281 L 545.183594 42.484375 L 555.046875 42.484375 L 555.046875 20.796875 " fill-opacity="1" fill-rule="nonzero"/><path fill="#2f1f32" d="M 498.71875 34.773438 L 498.71875 35 C 498.71875 35.132812 498.746094 35.257812 498.792969 35.378906 C 498.84375 35.5 498.917969 35.609375 499.011719 35.703125 C 499.101562 35.796875 499.210938 35.867188 499.332031 35.917969 C 499.453125 35.96875 499.582031 35.992188 499.710938 35.992188 C 499.84375 35.992188 499.96875 35.96875 500.089844 35.917969 C 500.214844 35.867188 500.320312 35.796875 500.414062 35.703125 C 500.507812 35.609375 500.578125 35.5 500.628906 35.378906 C 500.679688 35.257812 500.703125 35.132812 500.703125 35 L 500.703125 34.773438 C 500.703125 34.644531 500.679688 34.515625 500.628906 34.394531 C 500.578125 34.273438 500.507812 34.164062 500.414062 34.074219 C 500.320312 33.980469 500.214844 33.90625 500.089844 33.859375 C 499.96875 33.808594 499.84375 33.78125 499.710938 33.78125 C 499.582031 33.78125 499.453125 33.808594 499.332031 33.859375 C 499.210938 33.90625 499.101562 33.980469 499.011719 34.074219 C 498.917969 34.164062 498.84375 34.273438 498.792969 34.394531 C 498.746094 34.515625 498.71875 34.644531 498.71875 34.773438 Z M 498.71875 37.710938 L 498.71875 42.484375 C 498.71875 42.617188 498.746094 42.742188 498.792969 42.863281 C 498.84375 42.984375 498.917969 43.09375 499.011719 43.1875 C 499.101562 43.277344 499.210938 43.351562 499.332031 43.402344 C 499.453125 43.449219 499.582031 43.476562 499.710938 43.476562 L 506.742188 43.476562 L 506.742188 42.484375 L 505.992188 43.132812 L 511.269531 49.261719 C 511.355469 49.359375 511.457031 49.441406 511.574219 49.5 C 511.691406 49.558594 511.816406 49.59375 511.949219 49.601562 C 512.078125 49.613281 512.207031 49.597656 512.332031 49.554688 C 512.457031 49.515625 512.570312 49.453125 512.667969 49.367188 C 512.898438 49.167969 513.015625 48.917969 513.015625 48.613281 L 513.015625 42.484375 L 512.023438 42.484375 L 512.023438 43.476562 L 524.164062 43.476562 L 524.164062 42.484375 L 523.367188 43.078125 L 527.957031 49.207031 C 528.035156 49.3125 528.128906 49.398438 528.242188 49.46875 C 528.355469 49.535156 528.480469 49.578125 528.609375 49.597656 C 528.738281 49.613281 528.867188 49.609375 528.996094 49.574219 C 529.125 49.542969 529.238281 49.488281 529.34375 49.40625 C 529.609375 49.210938 529.742188 48.945312 529.742188 48.613281 L 529.742188 42.484375 L 528.75 42.484375 L 528.75 43.476562 L 539.90625 43.476562 L 539.90625 42.484375 L 539.152344 43.132812 L 541.140625 45.4375 C 541.226562 45.539062 541.328125 45.617188 541.445312 45.675781 C 541.5625 45.738281 541.6875 45.769531 541.820312 45.78125 C 541.949219 45.789062 542.078125 45.773438 542.203125 45.734375 C 542.328125 45.691406 542.441406 45.628906 542.539062 45.542969 C 542.640625 45.457031 542.71875 45.355469 542.777344 45.238281 C 542.839844 45.121094 542.871094 44.996094 542.882812 44.863281 C 542.894531 44.734375 542.875 44.605469 542.835938 44.480469 C 542.792969 44.355469 542.730469 44.242188 542.644531 44.144531 L 540.65625 41.835938 C 540.460938 41.605469 540.207031 41.492188 539.90625 41.492188 L 528.75 41.492188 C 528.617188 41.492188 528.492188 41.515625 528.371094 41.566406 C 528.25 41.617188 528.140625 41.6875 528.046875 41.78125 C 527.957031 41.875 527.882812 41.980469 527.832031 42.105469 C 527.78125 42.226562 527.757812 42.351562 527.757812 42.484375 L 527.757812 48.613281 L 528.75 48.613281 L 529.546875 48.019531 L 524.957031 41.890625 C 524.761719 41.625 524.496094 41.492188 524.164062 41.492188 L 512.023438 41.492188 C 511.890625 41.492188 511.761719 41.515625 511.640625 41.566406 C 511.519531 41.617188 511.414062 41.6875 511.320312 41.78125 C 511.226562 41.875 511.15625 41.980469 511.105469 42.105469 C 511.054688 42.226562 511.027344 42.351562 511.027344 42.484375 L 511.027344 48.613281 L 512.023438 48.613281 L 512.773438 47.964844 L 507.496094 41.835938 C 507.296875 41.605469 507.046875 41.492188 506.742188 41.492188 L 499.710938 41.492188 L 499.710938 42.484375 L 500.703125 42.484375 L 500.703125 37.710938 C 500.703125 37.578125 500.679688 37.453125 500.628906 37.328125 C 500.578125 37.207031 500.507812 37.101562 500.414062 37.007812 C 500.320312 36.914062 500.214844 36.84375 500.089844 36.792969 C 499.96875 36.742188 499.84375 36.71875 499.710938 36.71875 C 499.582031 36.71875 499.453125 36.742188 499.332031 36.792969 C 499.210938 36.84375 499.101562 36.914062 499.011719 37.007812 C 498.917969 37.101562 498.84375 37.207031 498.792969 37.328125 C 498.746094 37.453125 498.71875 37.578125 498.71875 37.710938 Z M 543.203125 47.832031 L 543.351562 48.003906 C 543.4375 48.105469 543.539062 48.183594 543.65625 48.242188 C 543.773438 48.300781 543.898438 48.335938 544.03125 48.347656 C 544.160156 48.355469 544.289062 48.339844 544.414062 48.300781 C 544.539062 48.257812 544.652344 48.195312 544.75 48.109375 C 544.851562 48.023438 544.929688 47.921875 544.988281 47.804688 C 545.046875 47.6875 545.082031 47.5625 545.09375 47.429688 C 545.101562 47.300781 545.085938 47.171875 545.046875 47.046875 C 545.003906 46.921875 544.941406 46.808594 544.855469 46.710938 L 544.707031 46.539062 C 544.621094 46.4375 544.519531 46.359375 544.402344 46.300781 C 544.285156 46.242188 544.160156 46.207031 544.03125 46.195312 C 543.898438 46.1875 543.769531 46.203125 543.644531 46.242188 C 543.519531 46.285156 543.40625 46.347656 543.308594 46.433594 C 543.207031 46.519531 543.128906 46.621094 543.070312 46.738281 C 543.011719 46.855469 542.976562 46.980469 542.964844 47.113281 C 542.957031 47.242188 542.972656 47.371094 543.011719 47.496094 C 543.054688 47.621094 543.117188 47.734375 543.203125 47.832031 Z M 546.179688 47.5625 L 546.179688 42.484375 L 545.183594 42.484375 L 545.183594 43.476562 L 555.046875 43.476562 C 555.175781 43.476562 555.304688 43.449219 555.425781 43.402344 C 555.546875 43.351562 555.652344 43.277344 555.746094 43.1875 C 555.839844 43.09375 555.910156 42.984375 555.960938 42.863281 C 556.011719 42.742188 556.039062 42.617188 556.039062 42.484375 L 556.039062 20.796875 C 556.039062 20.664062 556.011719 20.539062 555.960938 20.414062 C 555.910156 20.292969 555.839844 20.1875 555.746094 20.09375 C 555.652344 20 555.546875 19.929688 555.425781 19.878906 C 555.304688 19.828125 555.175781 19.804688 555.046875 19.804688 L 499.710938 19.804688 C 499.582031 19.804688 499.453125 19.828125 499.332031 19.878906 C 499.210938 19.929688 499.101562 20 499.011719 20.09375 C 498.917969 20.1875 498.84375 20.292969 498.792969 20.414062 C 498.746094 20.539062 498.71875 20.664062 498.71875 20.796875 L 498.71875 31.613281 C 498.71875 31.746094 498.746094 31.871094 498.792969 31.992188 C 498.84375 32.113281 498.917969 32.222656 499.011719 32.316406 C 499.101562 32.410156 499.210938 32.480469 499.332031 32.53125 C 499.453125 32.582031 499.582031 32.605469 499.710938 32.605469 C 499.84375 32.605469 499.96875 32.582031 500.089844 32.53125 C 500.214844 32.480469 500.320312 32.410156 500.414062 32.316406 C 500.507812 32.222656 500.578125 32.113281 500.628906 31.992188 C 500.679688 31.871094 500.703125 31.746094 500.703125 31.613281 L 500.703125 20.796875 L 499.710938 20.796875 L 499.710938 21.789062 L 555.046875 21.789062 L 555.046875 20.796875 L 554.050781 20.796875 L 554.050781 42.484375 L 555.046875 42.484375 L 555.046875 41.492188 L 545.183594 41.492188 C 545.054688 41.492188 544.925781 41.515625 544.804688 41.566406 C 544.683594 41.617188 544.578125 41.6875 544.484375 41.78125 C 544.390625 41.875 544.320312 41.980469 544.269531 42.105469 C 544.21875 42.226562 544.191406 42.351562 544.191406 42.484375 L 544.191406 47.5625 C 544.191406 47.695312 544.21875 47.820312 544.269531 47.941406 C 544.320312 48.0625 544.390625 48.171875 544.484375 48.265625 C 544.578125 48.355469 544.683594 48.429688 544.804688 48.480469 C 544.925781 48.53125 545.054688 48.554688 545.183594 48.554688 C 545.316406 48.554688 545.445312 48.53125 545.566406 48.480469 C 545.6875 48.429688 545.792969 48.355469 545.886719 48.265625 C 545.980469 48.171875 546.050781 48.0625 546.101562 47.941406 C 546.152344 47.820312 546.179688 47.695312 546.179688 47.5625 Z M 546.179688 47.5625 " fill-opacity="1" fill-rule="nonzero"/><path fill="#e8bed8" d="M 500.125 69.347656 C 500.125 69.347656 500.933594 60.488281 511.472656 60.488281 C 522.011719 60.488281 522.96875 69.347656 522.96875 69.347656 C 522.96875 69.347656 510.800781 74.617188 500.125 69.347656 " fill-opacity="1" fill-rule="nonzero"/><path fill="#2f1f32" d="M 501.113281 69.441406 C 501.117188 69.375 501.132812 69.273438 501.15625 69.140625 C 501.207031 68.851562 501.277344 68.554688 501.367188 68.242188 C 501.496094 67.800781 501.652344 67.371094 501.84375 66.953125 C 502.074219 66.429688 502.351562 65.941406 502.664062 65.480469 C 503.460938 64.324219 504.476562 63.414062 505.71875 62.75 C 507.304688 61.90625 509.222656 61.484375 511.472656 61.484375 C 513.722656 61.484375 515.648438 61.90625 517.25 62.753906 C 518.507812 63.414062 519.542969 64.328125 520.359375 65.492188 C 520.683594 65.949219 520.96875 66.441406 521.210938 66.964844 C 521.40625 67.386719 521.570312 67.816406 521.707031 68.257812 C 521.800781 68.566406 521.878906 68.867188 521.933594 69.15625 C 521.960938 69.292969 521.976562 69.390625 521.984375 69.457031 L 522.96875 69.347656 L 522.574219 68.4375 C 522.460938 68.488281 522.296875 68.554688 522.074219 68.636719 C 521.621094 68.808594 521.128906 68.976562 520.601562 69.144531 C 518.910156 69.675781 517.175781 70.078125 515.402344 70.34375 C 512.929688 70.714844 510.558594 70.796875 508.289062 70.582031 C 505.476562 70.320312 502.902344 69.613281 500.5625 68.460938 C 500.445312 68.402344 500.320312 68.367188 500.191406 68.359375 C 500.058594 68.351562 499.929688 68.367188 499.804688 68.410156 C 499.679688 68.453125 499.570312 68.515625 499.46875 68.601562 C 499.371094 68.691406 499.292969 68.792969 499.234375 68.910156 C 499.175781 69.027344 499.144531 69.152344 499.132812 69.285156 C 499.125 69.414062 499.140625 69.542969 499.183594 69.667969 C 499.226562 69.792969 499.292969 69.90625 499.378906 70.003906 C 499.464844 70.101562 499.566406 70.179688 499.683594 70.238281 C 502.242188 71.5 505.046875 72.273438 508.105469 72.558594 C 510.535156 72.785156 513.066406 72.703125 515.699219 72.304688 C 517.574219 72.023438 519.40625 71.601562 521.199219 71.035156 C 521.761719 70.859375 522.289062 70.679688 522.777344 70.492188 C 523.027344 70.398438 523.222656 70.320312 523.363281 70.261719 C 523.5625 70.175781 523.71875 70.035156 523.828125 69.847656 C 523.9375 69.660156 523.980469 69.457031 523.957031 69.242188 C 523.945312 69.121094 523.917969 68.96875 523.882812 68.78125 C 523.8125 68.421875 523.722656 68.054688 523.605469 67.675781 C 523.441406 67.144531 523.246094 66.628906 523.011719 66.128906 C 522.71875 65.496094 522.375 64.90625 521.984375 64.347656 C 521.523438 63.6875 520.996094 63.09375 520.410156 62.558594 C 519.738281 61.949219 518.996094 61.429688 518.179688 60.996094 C 516.285156 59.996094 514.050781 59.496094 511.472656 59.496094 C 508.890625 59.496094 506.664062 59.996094 504.785156 61 C 503.976562 61.429688 503.238281 61.953125 502.578125 62.5625 C 501.996094 63.097656 501.480469 63.695312 501.027344 64.359375 C 500.644531 64.914062 500.3125 65.507812 500.03125 66.140625 C 499.804688 66.644531 499.613281 67.160156 499.460938 67.6875 C 499.351562 68.070312 499.265625 68.4375 499.203125 68.796875 C 499.167969 68.984375 499.148438 69.140625 499.136719 69.257812 C 499.125 69.390625 499.136719 69.519531 499.175781 69.644531 C 499.214844 69.769531 499.277344 69.882812 499.363281 69.984375 C 499.445312 70.085938 499.546875 70.167969 499.664062 70.226562 C 499.78125 70.289062 499.902344 70.324219 500.035156 70.339844 C 500.164062 70.351562 500.292969 70.335938 500.417969 70.296875 C 500.546875 70.257812 500.660156 70.195312 500.761719 70.113281 C 500.859375 70.027344 500.941406 69.925781 501.003906 69.8125 C 501.066406 69.695312 501.101562 69.570312 501.113281 69.441406 Z M 501.113281 69.441406 " fill-opacity="1" fill-rule="nonzero"/><path fill="#e8bed8" d="M 517.601562 56.300781 C 517.601562 59.644531 514.890625 62.355469 511.546875 62.355469 C 508.203125 62.355469 505.492188 59.644531 505.492188 56.300781 C 505.492188 52.957031 508.203125 50.246094 511.546875 50.246094 C 514.890625 50.246094 517.601562 52.957031 517.601562 56.300781 " fill-opacity="1" fill-rule="nonzero"/><path fill="#2f1f32" d="M 516.609375 56.300781 C 516.609375 56.988281 516.476562 57.644531 516.214844 58.269531 C 515.957031 58.875 515.59375 59.414062 515.128906 59.882812 C 514.660156 60.347656 514.125 60.710938 513.519531 60.964844 C 512.890625 61.230469 512.234375 61.363281 511.546875 61.363281 C 510.859375 61.363281 510.203125 61.230469 509.578125 60.964844 C 508.96875 60.710938 508.433594 60.347656 507.964844 59.878906 C 507.5 59.414062 507.136719 58.875 506.882812 58.269531 C 506.617188 57.644531 506.484375 56.988281 506.484375 56.300781 C 506.484375 55.613281 506.617188 54.957031 506.882812 54.328125 C 507.136719 53.722656 507.5 53.1875 507.964844 52.71875 C 508.433594 52.253906 508.96875 51.890625 509.578125 51.632812 C 510.203125 51.371094 510.859375 51.238281 511.546875 51.238281 C 512.234375 51.238281 512.890625 51.371094 513.519531 51.632812 C 514.125 51.890625 514.660156 52.253906 515.128906 52.71875 C 515.59375 53.1875 515.957031 53.722656 516.214844 54.328125 C 516.476562 54.957031 516.609375 55.613281 516.609375 56.300781 C 516.609375 56.429688 516.636719 56.558594 516.6875 56.679688 C 516.738281 56.800781 516.808594 56.910156 516.902344 57 C 516.996094 57.09375 517.101562 57.167969 517.222656 57.21875 C 517.34375 57.265625 517.472656 57.292969 517.601562 57.292969 C 517.734375 57.292969 517.863281 57.265625 517.984375 57.21875 C 518.105469 57.167969 518.210938 57.09375 518.304688 57 C 518.398438 56.910156 518.46875 56.800781 518.519531 56.679688 C 518.570312 56.558594 518.597656 56.429688 518.597656 56.300781 C 518.597656 55.34375 518.410156 54.429688 518.042969 53.554688 C 517.683594 52.710938 517.179688 51.964844 516.53125 51.316406 C 515.882812 50.664062 515.132812 50.164062 514.292969 49.804688 C 513.417969 49.4375 512.503906 49.25 511.546875 49.25 C 510.589844 49.25 509.675781 49.4375 508.804688 49.804688 C 507.960938 50.164062 507.210938 50.664062 506.5625 51.316406 C 505.914062 51.964844 505.410156 52.710938 505.050781 53.554688 C 504.683594 54.429688 504.5 55.34375 504.5 56.300781 C 504.5 57.253906 504.683594 58.171875 505.050781 59.042969 C 505.410156 59.886719 505.914062 60.632812 506.5625 61.285156 C 507.210938 61.933594 507.960938 62.4375 508.804688 62.792969 C 509.675781 63.164062 510.589844 63.347656 511.546875 63.347656 C 512.503906 63.347656 513.417969 63.164062 514.292969 62.792969 C 515.132812 62.4375 515.882812 61.933594 516.53125 61.285156 C 517.179688 60.632812 517.683594 59.886719 518.042969 59.042969 C 518.410156 58.171875 518.597656 57.253906 518.597656 56.300781 C 518.597656 56.167969 518.570312 56.042969 518.519531 55.921875 C 518.46875 55.796875 518.398438 55.691406 518.304688 55.597656 C 518.210938 55.503906 518.105469 55.433594 517.984375 55.382812 C 517.863281 55.332031 517.734375 55.308594 517.601562 55.308594 C 517.472656 55.308594 517.34375 55.332031 517.222656 55.382812 C 517.101562 55.433594 516.996094 55.503906 516.902344 55.597656 C 516.808594 55.691406 516.738281 55.796875 516.6875 55.921875 C 516.636719 56.042969 516.609375 56.167969 516.609375 56.300781 Z M 516.609375 56.300781 " fill-opacity="1" fill-rule="nonzero"/><path fill="#e8bed8" d="M 533.761719 69.347656 C 533.761719 69.347656 534.570312 60.488281 545.109375 60.488281 C 555.648438 60.488281 556.605469 69.347656 556.605469 69.347656 C 556.605469 69.347656 544.4375 74.617188 533.761719 69.347656 " fill-opacity="1" fill-rule="nonzero"/><path fill="#2f1f32" d="M 534.75 69.441406 C 534.757812 69.375 534.773438 69.273438 534.796875 69.140625 C 534.847656 68.851562 534.917969 68.554688 535.007812 68.242188 C 535.132812 67.800781 535.292969 67.371094 535.480469 66.953125 C 535.714844 66.429688 535.988281 65.941406 536.300781 65.480469 C 537.097656 64.324219 538.117188 63.414062 539.359375 62.75 C 540.941406 61.90625 542.859375 61.484375 545.109375 61.484375 C 547.359375 61.484375 549.289062 61.90625 550.890625 62.753906 C 552.144531 63.414062 553.183594 64.328125 554 65.492188 C 554.320312 65.949219 554.605469 66.441406 554.847656 66.964844 C 555.042969 67.386719 555.207031 67.816406 555.34375 68.257812 C 555.441406 68.566406 555.515625 68.867188 555.570312 69.15625 C 555.597656 69.292969 555.613281 69.390625 555.621094 69.457031 L 556.605469 69.347656 L 556.214844 68.4375 C 556.101562 68.488281 555.933594 68.554688 555.710938 68.636719 C 555.257812 68.808594 554.769531 68.976562 554.242188 69.144531 C 552.546875 69.675781 550.8125 70.078125 549.039062 70.34375 C 546.566406 70.714844 544.195312 70.796875 541.929688 70.582031 C 539.113281 70.320312 536.539062 69.613281 534.203125 68.460938 C 534.082031 68.402344 533.960938 68.367188 533.828125 68.359375 C 533.695312 68.351562 533.566406 68.367188 533.445312 68.410156 C 533.320312 68.453125 533.207031 68.515625 533.109375 68.601562 C 533.007812 68.691406 532.929688 68.792969 532.871094 68.910156 C 532.8125 69.027344 532.78125 69.152344 532.773438 69.285156 C 532.761719 69.414062 532.78125 69.542969 532.824219 69.667969 C 532.863281 69.792969 532.929688 69.90625 533.015625 70.003906 C 533.101562 70.101562 533.207031 70.179688 533.324219 70.238281 C 535.878906 71.5 538.6875 72.273438 541.742188 72.558594 C 544.171875 72.785156 546.703125 72.703125 549.335938 72.304688 C 551.210938 72.023438 553.042969 71.601562 554.835938 71.035156 C 555.398438 70.859375 555.925781 70.679688 556.414062 70.492188 C 556.664062 70.398438 556.859375 70.320312 557 70.261719 C 557.199219 70.175781 557.355469 70.035156 557.464844 69.847656 C 557.574219 69.660156 557.617188 69.457031 557.59375 69.242188 C 557.582031 69.121094 557.554688 68.96875 557.519531 68.78125 C 557.449219 68.421875 557.359375 68.054688 557.242188 67.675781 C 557.082031 67.144531 556.882812 66.628906 556.648438 66.128906 C 556.355469 65.496094 556.011719 64.90625 555.621094 64.347656 C 555.160156 63.6875 554.632812 63.09375 554.046875 62.558594 C 553.375 61.949219 552.632812 61.429688 551.816406 60.996094 C 549.925781 59.996094 547.6875 59.496094 545.109375 59.496094 C 542.53125 59.496094 540.300781 59.996094 538.421875 61 C 537.613281 61.429688 536.875 61.953125 536.214844 62.5625 C 535.636719 63.097656 535.117188 63.695312 534.664062 64.359375 C 534.285156 64.914062 533.949219 65.507812 533.667969 66.140625 C 533.441406 66.644531 533.253906 67.160156 533.101562 67.6875 C 532.988281 68.070312 532.902344 68.4375 532.839844 68.796875 C 532.808594 68.984375 532.785156 69.140625 532.773438 69.257812 C 532.761719 69.390625 532.777344 69.519531 532.816406 69.644531 C 532.855469 69.769531 532.914062 69.882812 533 69.984375 C 533.085938 70.085938 533.183594 70.167969 533.300781 70.226562 C 533.417969 70.289062 533.542969 70.324219 533.671875 70.339844 C 533.804688 70.351562 533.933594 70.335938 534.058594 70.296875 C 534.183594 70.257812 534.296875 70.195312 534.398438 70.113281 C 534.5 70.027344 534.582031 69.925781 534.640625 69.8125 C 534.703125 69.695312 534.738281 69.570312 534.75 69.441406 Z M 534.75 69.441406 " fill-opacity="1" fill-rule="nonzero"/><path fill="#e8bed8" d="M 551.242188 56.300781 C 551.242188 59.644531 548.53125 62.355469 545.183594 62.355469 C 541.839844 62.355469 539.128906 59.644531 539.128906 56.300781 C 539.128906 52.957031 541.839844 50.246094 545.183594 50.246094 C 548.53125 50.246094 551.242188 52.957031 551.242188 56.300781 " fill-opacity="1" fill-rule="nonzero"/><path fill="#2f1f32" d="M 550.25 56.300781 C 550.25 56.988281 550.117188 57.644531 549.851562 58.269531 C 549.59375 58.875 549.234375 59.414062 548.765625 59.882812 C 548.296875 60.347656 547.761719 60.710938 547.15625 60.964844 C 546.53125 61.230469 545.871094 61.363281 545.183594 61.363281 C 544.496094 61.363281 543.839844 61.230469 543.214844 60.964844 C 542.609375 60.710938 542.070312 60.347656 541.605469 59.878906 C 541.136719 59.414062 540.773438 58.875 540.519531 58.269531 C 540.253906 57.644531 540.121094 56.988281 540.121094 56.300781 C 540.121094 55.613281 540.253906 54.957031 540.519531 54.328125 C 540.773438 53.722656 541.136719 53.1875 541.605469 52.71875 C 542.070312 52.253906 542.609375 51.890625 543.214844 51.632812 C 543.839844 51.371094 544.5 51.238281 545.183594 51.238281 C 545.871094 51.238281 546.53125 51.371094 547.15625 51.632812 C 547.761719 51.890625 548.296875 52.253906 548.765625 52.71875 C 549.234375 53.1875 549.59375 53.722656 549.851562 54.328125 C 550.117188 54.957031 550.25 55.613281 550.25 56.300781 C 550.25 56.429688 550.273438 56.558594 550.324219 56.679688 C 550.375 56.800781 550.445312 56.910156 550.539062 57 C 550.632812 57.09375 550.738281 57.167969 550.859375 57.21875 C 550.984375 57.265625 551.109375 57.292969 551.242188 57.292969 C 551.371094 57.292969 551.5 57.265625 551.621094 57.21875 C 551.742188 57.167969 551.851562 57.09375 551.941406 57 C 552.035156 56.910156 552.109375 56.800781 552.15625 56.679688 C 552.207031 56.558594 552.234375 56.429688 552.234375 56.300781 C 552.234375 55.34375 552.050781 54.429688 551.679688 53.554688 C 551.324219 52.710938 550.820312 51.964844 550.167969 51.316406 C 549.519531 50.664062 548.773438 50.164062 547.929688 49.804688 C 547.054688 49.4375 546.140625 49.25 545.183594 49.25 C 544.230469 49.25 543.316406 49.4375 542.441406 49.804688 C 541.597656 50.164062 540.851562 50.664062 540.199219 51.316406 C 539.550781 51.964844 539.046875 52.710938 538.691406 53.554688 C 538.320312 54.429688 538.136719 55.34375 538.136719 56.300781 C 538.136719 57.253906 538.320312 58.171875 538.691406 59.042969 C 539.046875 59.886719 539.550781 60.632812 540.199219 61.285156 C 540.851562 61.933594 541.597656 62.4375 542.441406 62.792969 C 543.316406 63.164062 544.230469 63.347656 545.183594 63.347656 C 546.140625 63.347656 547.054688 63.164062 547.929688 62.792969 C 548.773438 62.4375 549.519531 61.933594 550.167969 61.285156 C 550.820312 60.632812 551.324219 59.886719 551.679688 59.042969 C 552.050781 58.171875 552.234375 57.253906 552.234375 56.300781 C 552.234375 56.167969 552.207031 56.042969 552.15625 55.921875 C 552.109375 55.796875 552.035156 55.691406 551.941406 55.597656 C 551.851562 55.503906 551.742188 55.433594 551.621094 55.382812 C 551.5 55.332031 551.371094 55.308594 551.242188 55.308594 C 551.109375 55.308594 550.984375 55.332031 550.859375 55.382812 C 550.738281 55.433594 550.632812 55.503906 550.539062 55.597656 C 550.445312 55.691406 550.375 55.796875 550.324219 55.921875 C 550.273438 56.042969 550.25 56.167969 550.25 56.300781 Z M 550.25 56.300781 " fill-opacity="1" fill-rule="nonzero"/><path fill="#e8bed8" d="M 517.601562 72.695312 C 517.601562 72.695312 518.410156 63.835938 528.949219 63.835938 C 539.492188 63.835938 540.449219 72.695312 540.449219 72.695312 C 540.449219 72.695312 528.277344 77.964844 517.601562 72.695312 " fill-opacity="1" fill-rule="nonzero"/><path fill="#2f1f32" d="M 518.589844 72.785156 C 518.597656 72.722656 518.613281 72.621094 518.636719 72.488281 C 518.6875 72.199219 518.757812 71.898438 518.847656 71.585938 C 518.976562 71.148438 519.132812 70.71875 519.320312 70.296875 C 519.554688 69.777344 519.828125 69.285156 520.144531 68.828125 C 520.9375 67.667969 521.957031 66.757812 523.199219 66.097656 C 524.785156 65.253906 526.699219 64.828125 528.949219 64.828125 C 531.203125 64.828125 533.128906 65.253906 534.730469 66.097656 C 535.988281 66.761719 537.023438 67.675781 537.839844 68.835938 C 538.164062 69.296875 538.445312 69.789062 538.691406 70.3125 C 538.886719 70.730469 539.050781 71.160156 539.183594 71.601562 C 539.28125 71.914062 539.355469 72.214844 539.410156 72.503906 C 539.4375 72.636719 539.453125 72.738281 539.460938 72.800781 L 540.449219 72.695312 L 540.054688 71.785156 C 539.941406 71.832031 539.773438 71.898438 539.554688 71.984375 C 539.097656 72.15625 538.609375 72.324219 538.082031 72.488281 C 536.386719 73.023438 534.652344 73.421875 532.882812 73.6875 C 530.40625 74.0625 528.039062 74.140625 525.769531 73.929688 C 522.953125 73.667969 520.378906 72.957031 518.042969 71.804688 C 517.925781 71.746094 517.800781 71.714844 517.667969 71.703125 C 517.535156 71.695312 517.410156 71.714844 517.285156 71.753906 C 517.160156 71.796875 517.046875 71.863281 516.949219 71.949219 C 516.851562 72.035156 516.769531 72.136719 516.714844 72.257812 C 516.65625 72.375 516.621094 72.5 516.613281 72.628906 C 516.605469 72.761719 516.621094 72.890625 516.664062 73.015625 C 516.707031 73.140625 516.769531 73.25 516.855469 73.351562 C 516.945312 73.449219 517.046875 73.527344 517.164062 73.585938 C 519.71875 74.847656 522.527344 75.621094 525.585938 75.90625 C 528.011719 76.132812 530.542969 76.046875 533.175781 75.652344 C 535.050781 75.371094 536.886719 74.949219 538.679688 74.382812 C 539.242188 74.207031 539.765625 74.023438 540.253906 73.839844 C 540.507812 73.746094 540.703125 73.667969 540.84375 73.605469 C 541.042969 73.519531 541.195312 73.382812 541.304688 73.195312 C 541.414062 73.007812 541.457031 72.804688 541.433594 72.589844 C 541.421875 72.46875 541.398438 72.316406 541.359375 72.125 C 541.292969 71.769531 541.199219 71.402344 541.082031 71.019531 C 540.921875 70.492188 540.722656 69.976562 540.488281 69.472656 C 540.195312 68.84375 539.855469 68.25 539.464844 67.695312 C 539 67.035156 538.476562 66.4375 537.886719 65.90625 C 537.21875 65.296875 536.472656 64.773438 535.65625 64.34375 C 533.765625 63.34375 531.53125 62.84375 528.949219 62.84375 C 526.371094 62.84375 524.140625 63.34375 522.265625 64.34375 C 521.453125 64.777344 520.71875 65.300781 520.054688 65.910156 C 519.476562 66.445312 518.960938 67.042969 518.507812 67.703125 C 518.125 68.261719 517.792969 68.855469 517.507812 69.488281 C 517.28125 69.992188 517.09375 70.507812 516.941406 71.035156 C 516.832031 71.414062 516.742188 71.785156 516.679688 72.144531 C 516.648438 72.332031 516.625 72.484375 516.613281 72.605469 C 516.601562 72.738281 516.617188 72.863281 516.65625 72.992188 C 516.695312 73.117188 516.757812 73.230469 516.839844 73.332031 C 516.925781 73.433594 517.023438 73.511719 517.140625 73.574219 C 517.257812 73.636719 517.382812 73.671875 517.511719 73.683594 C 517.644531 73.695312 517.773438 73.683594 517.898438 73.644531 C 518.023438 73.605469 518.136719 73.542969 518.238281 73.457031 C 518.339844 73.375 518.421875 73.273438 518.480469 73.15625 C 518.542969 73.039062 518.578125 72.917969 518.589844 72.785156 Z M 518.589844 72.785156 " fill-opacity="1" fill-rule="nonzero"/><path fill="#e8bed8" d="M 535.082031 59.644531 C 535.082031 62.992188 532.371094 65.703125 529.027344 65.703125 C 525.679688 65.703125 522.96875 62.992188 522.96875 59.644531 C 522.96875 56.300781 525.679688 53.589844 529.027344 53.589844 C 532.371094 53.589844 535.082031 56.300781 535.082031 59.644531 " fill-opacity="1" fill-rule="nonzero"/><path fill="#2f1f32" d="M 534.089844 59.644531 C 534.089844 60.332031 533.957031 60.992188 533.691406 61.617188 C 533.4375 62.222656 533.074219 62.757812 532.605469 63.226562 C 532.140625 63.695312 531.601562 64.054688 530.996094 64.3125 C 530.371094 64.578125 529.714844 64.710938 529.027344 64.710938 C 528.339844 64.710938 527.683594 64.578125 527.054688 64.3125 C 526.449219 64.054688 525.914062 63.695312 525.445312 63.226562 C 524.976562 62.757812 524.617188 62.222656 524.359375 61.617188 C 524.09375 60.988281 523.960938 60.332031 523.960938 59.644531 C 523.960938 58.957031 524.09375 58.300781 524.359375 57.675781 C 524.617188 57.070312 524.976562 56.53125 525.445312 56.066406 C 525.914062 55.597656 526.449219 55.238281 527.054688 54.980469 C 527.683594 54.714844 528.339844 54.582031 529.027344 54.582031 C 529.714844 54.582031 530.371094 54.714844 530.996094 54.980469 C 531.601562 55.238281 532.140625 55.597656 532.605469 56.066406 C 533.074219 56.53125 533.4375 57.070312 533.691406 57.675781 C 533.957031 58.300781 534.089844 58.957031 534.089844 59.644531 C 534.089844 59.777344 534.113281 59.902344 534.164062 60.027344 C 534.214844 60.148438 534.289062 60.253906 534.378906 60.347656 C 534.472656 60.441406 534.582031 60.511719 534.703125 60.5625 C 534.824219 60.613281 534.949219 60.636719 535.082031 60.636719 C 535.214844 60.636719 535.339844 60.613281 535.460938 60.5625 C 535.582031 60.511719 535.691406 60.441406 535.785156 60.347656 C 535.878906 60.253906 535.949219 60.148438 536 60.027344 C 536.050781 59.902344 536.074219 59.777344 536.074219 59.644531 C 536.074219 58.691406 535.890625 57.777344 535.519531 56.902344 C 535.164062 56.058594 534.660156 55.3125 534.011719 54.660156 C 533.359375 54.011719 532.613281 53.507812 531.769531 53.152344 C 530.898438 52.78125 529.980469 52.597656 529.027344 52.597656 C 528.070312 52.597656 527.15625 52.78125 526.28125 53.152344 C 525.4375 53.507812 524.691406 54.011719 524.042969 54.660156 C 523.390625 55.3125 522.886719 56.058594 522.53125 56.902344 C 522.160156 57.777344 521.976562 58.691406 521.976562 59.644531 C 521.976562 60.601562 522.160156 61.515625 522.53125 62.390625 C 522.886719 63.234375 523.390625 63.980469 524.042969 64.628906 C 524.691406 65.28125 525.4375 65.785156 526.28125 66.140625 C 527.15625 66.511719 528.070312 66.695312 529.027344 66.695312 C 529.980469 66.695312 530.898438 66.511719 531.769531 66.140625 C 532.613281 65.785156 533.359375 65.28125 534.011719 64.628906 C 534.660156 63.980469 535.164062 63.234375 535.519531 62.390625 C 535.890625 61.515625 536.074219 60.601562 536.074219 59.644531 C 536.074219 59.515625 536.050781 59.386719 536 59.265625 C 535.949219 59.144531 535.878906 59.035156 535.785156 58.945312 C 535.691406 58.851562 535.582031 58.777344 535.460938 58.730469 C 535.339844 58.679688 535.214844 58.652344 535.082031 58.652344 C 534.949219 58.652344 534.824219 58.679688 534.703125 58.730469 C 534.582031 58.777344 534.472656 58.851562 534.378906 58.945312 C 534.289062 59.035156 534.214844 59.144531 534.164062 59.265625 C 534.113281 59.386719 534.089844 59.515625 534.089844 59.644531 Z M 534.089844 59.644531 " fill-opacity="1" fill-rule="nonzero"/><path fill="#f2b10f" d="M 522.019531 31.863281 C 522.019531 32.648438 521.382812 33.285156 520.597656 33.285156 C 519.816406 33.285156 519.179688 32.648438 519.179688 31.863281 C 519.179688 31.082031 519.816406 30.445312 520.597656 30.445312 C 521.382812 30.445312 522.019531 31.082031 522.019531 31.863281 " fill-opacity="1" fill-rule="nonzero"/><path fill="#f2b10f" d="M 528.796875 31.863281 C 528.796875 32.648438 528.164062 33.285156 527.378906 33.285156 C 526.59375 33.285156 525.960938 32.648438 525.960938 31.863281 C 525.960938 31.082031 526.59375 30.445312 527.378906 30.445312 C 528.164062 30.445312 528.796875 31.082031 528.796875 31.863281 " fill-opacity="1" fill-rule="nonzero"/><path fill="#f2b10f" d="M 535.578125 31.863281 C 535.578125 32.648438 534.941406 33.285156 534.15625 33.285156 C 533.375 33.285156 532.738281 32.648438 532.738281 31.863281 C 532.738281 31.082031 533.375 30.445312 534.15625 30.445312 C 534.941406 30.445312 535.578125 31.082031 535.578125 31.863281 " fill-opacity="1" fill-rule="nonzero"/><g fill="#faf7ed" fill-opacity="1"><g transform="translate(131.578485, 63.305482)"><g><path d="M 19.09375 2.765625 C 20.53125 3.8125 22.4375 3.265625 23.171875 1.59375 C 23.6875 0.421875 23.328125 -0.78125 22.25 -1.671875 C 20.015625 -3.3125 17.5625 -6.3125 15 -9.3125 C 14.640625 -9.703125 14.296875 -10.046875 13.875 -10.28125 C 16.859375 -15.421875 19.46875 -18.390625 23.453125 -22.78125 C 24.46875 -23.921875 25.90625 -25.515625 24.703125 -27.390625 C 23.875 -28.59375 22.3125 -28.703125 21.078125 -27.65625 C 16.25 -23.5625 10.359375 -15 6.734375 -9.578125 C 6.703125 -14.453125 6.890625 -19.40625 7.328125 -24.625 C 7.4375 -26.171875 6.390625 -27.46875 4.875 -27.625 C 3.265625 -27.78125 1.984375 -26.6875 1.875 -25.046875 C 1.171875 -16.171875 1.75 -7.046875 2.1875 -1.75 C 2.34375 0.1875 3.46875 1.5625 4.90625 1.5625 C 6.078125 1.5625 7.015625 0.703125 7.984375 -0.9375 C 8.953125 -2.609375 9.734375 -4.09375 10.828125 -5.796875 C 13.59375 -2.5 16.484375 0.78125 19.09375 2.765625 Z M 19.09375 2.765625 "/></g></g></g><g fill="#faf7ed" fill-opacity="1"><g transform="translate(157.517806, 63.305482)"><g><path d="M 4.4375 2.0625 C 6.109375 2.109375 6.96875 1.25 7.171875 -0.46875 C 8.40625 -11.171875 12.5 -15.65625 15 -15.65625 C 16.78125 -15.65625 17.453125 -13.90625 17.453125 -9.46875 C 17.453125 -7.125 17.140625 -4.25 16.640625 -1.640625 C 16.328125 -0.1875 17.0625 1.046875 18.421875 1.4375 C 19.9375 1.828125 21.265625 0.9375 21.546875 -0.546875 C 22.046875 -3.109375 22.515625 -6.421875 22.515625 -9.46875 C 22.515625 -16.359375 20.71875 -20.71875 15.3125 -20.71875 C 11.953125 -20.71875 9 -18.421875 6.703125 -14.140625 C 6.734375 -19.046875 6.96875 -23.484375 7.171875 -26.09375 C 7.28125 -27.578125 6.859375 -29.09375 5.140625 -29.328125 C 3.734375 -29.53125 2.375 -28.515625 2.1875 -26.875 C 1.28125 -20.171875 1.4375 -7.796875 1.984375 -0.234375 C 2.109375 1.09375 3.109375 2.03125 4.4375 2.0625 Z M 4.4375 2.0625 "/></g></g></g><g fill="#faf7ed" fill-opacity="1"><g transform="translate(181.198149, 63.305482)"><g><path d="M 8.453125 2.796875 C 12.3125 2.796875 15.3125 -0.234375 18.265625 -6.109375 C 18.390625 -4.953125 18.546875 -3.859375 18.734375 -2.875 C 19.171875 -1.125 21.078125 -0.625 22.625 -1.59375 C 23.5625 -2.1875 23.796875 -3.15625 23.609375 -4.203125 C 23.0625 -7.171875 23.171875 -12.78125 24.109375 -18 C 24.5 -20.171875 23.875 -21.96875 22.4375 -22.3125 C 21.46875 -22.515625 20.484375 -22.203125 19.90625 -21.46875 C 19.703125 -21.78125 19.46875 -22.125 19.125 -22.390625 C 17.765625 -23.53125 16.171875 -24 14.40625 -24 C 7.984375 -24 1.171875 -14.328125 1.171875 -5.6875 C 1.171875 -0.8125 4.09375 2.796875 8.453125 2.796875 Z M 6.234375 -5.6875 C 6.234375 -11.375 11.0625 -18.9375 14.40625 -18.9375 C 15.1875 -18.9375 15.703125 -18.546875 16.328125 -18.1875 C 16.9375 -17.84375 17.765625 -17.640625 18.546875 -17.875 C 15.390625 -9.15625 10.90625 -2.265625 8.453125 -2.265625 C 7.125 -2.265625 6.234375 -3.5 6.234375 -5.6875 Z M 11.109375 -27.234375 C 11.609375 -25.828125 13.015625 -25.203125 14.453125 -25.828125 C 17.453125 -27.109375 20.171875 -28.515625 22.359375 -30.109375 C 23.40625 -30.890625 23.53125 -32.453125 22.546875 -33.609375 C 21.65625 -34.671875 20.09375 -34.625 18.96875 -33.84375 C 17.171875 -32.640625 15.078125 -31.546875 12.625 -30.5 C 11.25 -29.921875 10.59375 -28.625 11.109375 -27.234375 Z M 11.109375 -27.234375 "/></g></g></g><g fill="#faf7ed" fill-opacity="1"><g transform="translate(206.98168, 63.305482)"><g><path d="M 9.625 2.765625 C 12.734375 2.765625 15.1875 1.328125 17.21875 -1.640625 C 18.15625 -3 17.5625 -4.640625 16.171875 -5.296875 C 14.953125 -5.875 13.71875 -5.421875 12.890625 -4.25 C 11.921875 -2.84375 10.90625 -2.296875 9.625 -2.296875 C 7.875 -2.296875 6.234375 -5.140625 6.234375 -8.640625 C 6.234375 -13.640625 9.859375 -18.078125 12.78125 -18.078125 C 13.71875 -18.078125 14.453125 -17.484375 14.953125 -16.359375 C 15.65625 -14.796875 16.40625 -14.375 17.953125 -14.53125 C 19.359375 -14.6875 20.40625 -16.09375 19.859375 -17.6875 C 18.734375 -21.03125 16.171875 -23.140625 12.78125 -23.140625 C 6.890625 -23.140625 1.171875 -16.359375 1.171875 -8.640625 C 1.171875 -2.453125 4.671875 2.765625 9.625 2.765625 Z M 9.625 2.765625 "/></g></g></g><g fill="#faf7ed" fill-opacity="1"><g transform="translate(228.169357, 63.305482)"><g><path d="M 4.4375 2.0625 C 6.109375 2.109375 6.96875 1.25 7.171875 -0.46875 C 8.40625 -11.171875 12.5 -15.65625 15 -15.65625 C 16.78125 -15.65625 17.453125 -13.90625 17.453125 -9.46875 C 17.453125 -7.125 17.140625 -4.25 16.640625 -1.640625 C 16.328125 -0.1875 17.0625 1.046875 18.421875 1.4375 C 19.9375 1.828125 21.265625 0.9375 21.546875 -0.546875 C 22.046875 -3.109375 22.515625 -6.421875 22.515625 -9.46875 C 22.515625 -16.359375 20.71875 -20.71875 15.3125 -20.71875 C 11.953125 -20.71875 9 -18.421875 6.703125 -14.140625 C 6.734375 -19.046875 6.96875 -23.484375 7.171875 -26.09375 C 7.28125 -27.578125 6.859375 -29.09375 5.140625 -29.328125 C 3.734375 -29.53125 2.375 -28.515625 2.1875 -26.875 C 1.28125 -20.171875 1.4375 -7.796875 1.984375 -0.234375 C 2.109375 1.09375 3.109375 2.03125 4.4375 2.0625 Z M 4.4375 2.0625 "/></g></g></g><g fill="#faf7ed" fill-opacity="1"><g transform="translate(251.8497, 63.305482)"><g/></g></g><g fill="#faf7ed" fill-opacity="1"><g transform="translate(271.323657, 63.305482)"><g><path d="M 5.5625 8.921875 C 12.65625 8.921875 16.203125 2.875 20.21875 -17.640625 C 20.53125 -19.25 19.703125 -20.5625 18.265625 -20.84375 C 16.828125 -21.109375 15.578125 -20.25 15.265625 -18.78125 C 13.90625 -12.265625 12.78125 -8.140625 11.640625 -4.59375 C 10.09375 -7.09375 7.75 -11.640625 5.84375 -18.078125 C 5.421875 -19.515625 4.09375 -20.296875 2.6875 -19.90625 C 1.28125 -19.515625 0.546875 -18.15625 0.96875 -16.640625 C 3.578125 -7.328125 7.59375 -1.015625 9.3125 1.25 C 8.375 2.875 7.203125 3.859375 5.5625 3.859375 C 5.265625 3.859375 4.953125 3.78125 4.515625 3.421875 C 3.9375 2.953125 3 2.609375 1.796875 3.421875 C 0.34375 4.40625 0.5 6.625 1.984375 7.71875 C 3 8.453125 4.25 8.921875 5.5625 8.921875 Z M 5.5625 8.921875 "/></g></g></g><g fill="#faf7ed" fill-opacity="1"><g transform="translate(292.394483, 63.305482)"><g><path d="M 10.046875 2.140625 C 13.25 2.140625 15.578125 1.328125 18.421875 -1.09375 C 19.625 -2.109375 19.671875 -3.703125 18.65625 -4.796875 C 17.6875 -5.84375 16.203125 -5.84375 15.03125 -4.875 C 13.171875 -3.3125 11.921875 -2.921875 10.046875 -2.921875 C 7.984375 -2.921875 6.234375 -4.640625 6.234375 -6.96875 C 6.234375 -7.25 6.234375 -7.484375 6.265625 -7.75 L 6.390625 -7.71875 C 14.328125 -5.765625 23.296875 -9.9375 23.296875 -16.28125 C 23.296875 -20.71875 19.75 -24.265625 15.1875 -24.265625 C 7.875 -24.265625 1.171875 -15.96875 1.171875 -6.96875 C 1.171875 -1.875 4.984375 2.140625 10.046875 2.140625 Z M 7.484375 -12.625 C 9.109375 -16.40625 12.1875 -19.203125 15.1875 -19.203125 C 16.9375 -19.203125 18.234375 -17.921875 18.234375 -16.28125 C 18.234375 -13.59375 12.5 -11.5625 7.796875 -12.578125 C 7.671875 -12.625 7.5625 -12.625 7.484375 -12.625 Z M 9.421875 -26.921875 C 10.4375 -25.90625 11.84375 -26.40625 12.96875 -27.234375 L 16.203125 -29.5625 L 18.5 -27.15625 C 19.46875 -26.09375 20.640625 -25.625 21.859375 -26.5625 C 22.984375 -27.421875 23.171875 -28.90625 22.3125 -30.03125 C 21.265625 -31.390625 19.90625 -32.53125 18.703125 -33.734375 C 17.484375 -34.9375 16.046875 -34.90625 14.765625 -34.125 C 13.71875 -33.5 10.953125 -31.75 9.625 -30.609375 C 8.40625 -29.5625 8.375 -27.96875 9.421875 -26.921875 Z M 9.421875 -26.921875 "/></g></g></g><g fill="#faf7ed" fill-opacity="1"><g transform="translate(316.464294, 63.305482)"><g><path d="M 9.390625 1.953125 C 10.953125 1.953125 12.34375 1.28125 13.59375 -0.03125 C 14.53125 -1.046875 15.5 -2.421875 16.125 -4.015625 C 16.5625 -2.421875 17.015625 -1.328125 17.328125 -0.421875 C 17.875 1.09375 19.59375 1.59375 20.921875 0.8125 C 22.125 0.109375 22.4375 -1.09375 21.9375 -2.375 C 20.484375 -6.03125 20.171875 -10.671875 20.921875 -17.71875 C 21.03125 -19.09375 20.296875 -20.375 18.65625 -20.609375 C 17.21875 -20.796875 15.96875 -19.90625 15.734375 -18.421875 C 14.484375 -9.859375 12.109375 -3.109375 9.390625 -3.109375 C 7.125 -3.109375 6 -8.6875 7.28125 -18 C 7.484375 -19.4375 6.859375 -20.640625 5.5 -21.03125 C 3.96875 -21.46875 2.609375 -20.640625 2.296875 -19.09375 C 0.1875 -8.53125 2.453125 1.953125 9.390625 1.953125 Z M 9.390625 1.953125 "/></g></g></g><g fill="#faf7ed" fill-opacity="1"><g transform="translate(339.794086, 63.305482)"><g/></g></g><g fill="#faf7ed" fill-opacity="1"><g transform="translate(359.268043, 63.305482)"><g><path d="M 9.625 2.765625 C 12.734375 2.765625 15.1875 1.328125 17.21875 -1.640625 C 18.15625 -3 17.5625 -4.640625 16.171875 -5.296875 C 14.953125 -5.875 13.71875 -5.421875 12.890625 -4.25 C 11.921875 -2.84375 10.90625 -2.296875 9.625 -2.296875 C 7.875 -2.296875 6.234375 -5.140625 6.234375 -8.640625 C 6.234375 -13.640625 9.859375 -18.078125 12.78125 -18.078125 C 13.71875 -18.078125 14.453125 -17.484375 14.953125 -16.359375 C 15.65625 -14.796875 16.40625 -14.375 17.953125 -14.53125 C 19.359375 -14.6875 20.40625 -16.09375 19.859375 -17.6875 C 18.734375 -21.03125 16.171875 -23.140625 12.78125 -23.140625 C 6.890625 -23.140625 1.171875 -16.359375 1.171875 -8.640625 C 1.171875 -2.453125 4.671875 2.765625 9.625 2.765625 Z M 9.625 2.765625 "/></g></g></g><g fill="#faf7ed" fill-opacity="1"><g transform="translate(380.455719, 63.305482)"><g><path d="M 8.453125 2.796875 C 12.3125 2.796875 15.3125 -0.234375 18.265625 -6.109375 C 18.390625 -4.953125 18.546875 -3.859375 18.734375 -2.875 C 19.171875 -1.125 21.078125 -0.625 22.625 -1.59375 C 23.5625 -2.1875 23.796875 -3.15625 23.609375 -4.203125 C 23.0625 -7.171875 23.171875 -12.78125 24.109375 -18 C 24.5 -20.171875 23.875 -21.96875 22.4375 -22.3125 C 21.46875 -22.515625 20.484375 -22.203125 19.90625 -21.46875 C 19.703125 -21.78125 19.46875 -22.125 19.125 -22.390625 C 17.765625 -23.53125 16.171875 -24 14.40625 -24 C 7.984375 -24 1.171875 -14.328125 1.171875 -5.6875 C 1.171875 -0.8125 4.09375 2.796875 8.453125 2.796875 Z M 6.234375 -5.6875 C 6.234375 -11.375 11.0625 -18.9375 14.40625 -18.9375 C 15.1875 -18.9375 15.703125 -18.546875 16.328125 -18.1875 C 16.9375 -17.84375 17.765625 -17.640625 18.546875 -17.875 C 15.390625 -9.15625 10.90625 -2.265625 8.453125 -2.265625 C 7.125 -2.265625 6.234375 -3.5 6.234375 -5.6875 Z M 10.640625 -25.984375 C 11.640625 -24.96875 13.046875 -25.46875 14.171875 -26.296875 L 16.359375 -27.890625 L 18.03125 -26.53125 C 19.171875 -25.625 20.453125 -25.125 21.546875 -26.09375 C 22.4375 -26.875 22.859375 -28.390625 21.859375 -29.40625 C 20.765625 -30.5 19.703125 -31.390625 18.859375 -32.0625 C 17.484375 -33.109375 16.203125 -33.234375 14.921875 -32.453125 C 14.09375 -31.9375 11.875 -30.578125 10.828125 -29.6875 C 9.625 -28.625 9.578125 -27.03125 10.640625 -25.984375 Z M 16.09375 -39.96875 C 15.34375 -38.921875 15.34375 -37.515625 16.484375 -36.6875 C 18.46875 -35.25 19.75 -34.28125 20.40625 -33.6875 C 21.34375 -32.875 22.625 -33 23.453125 -34.046875 C 24.234375 -35.0625 24.109375 -36.453125 23.0625 -37.359375 C 21.9375 -38.328125 20.21875 -39.8125 18.625 -40.703125 C 17.84375 -41.140625 16.828125 -41.015625 16.09375 -39.96875 Z M 16.09375 -39.96875 "/></g></g></g><g fill="#faf7ed" fill-opacity="1"><g transform="translate(406.23925, 63.305482)"><g><path d="M 9.390625 1.953125 C 10.953125 1.953125 12.34375 1.28125 13.59375 -0.03125 C 14.53125 -1.046875 15.5 -2.421875 16.125 -4.015625 C 16.5625 -2.421875 17.015625 -1.328125 17.328125 -0.421875 C 17.875 1.09375 19.59375 1.59375 20.921875 0.8125 C 22.125 0.109375 22.4375 -1.09375 21.9375 -2.375 C 20.484375 -6.03125 20.171875 -10.671875 20.921875 -17.71875 C 21.03125 -19.09375 20.296875 -20.375 18.65625 -20.609375 C 17.21875 -20.796875 15.96875 -19.90625 15.734375 -18.421875 C 14.484375 -9.859375 12.109375 -3.109375 9.390625 -3.109375 C 7.125 -3.109375 6 -8.6875 7.28125 -18 C 7.484375 -19.4375 6.859375 -20.640625 5.5 -21.03125 C 3.96875 -21.46875 2.609375 -20.640625 2.296875 -19.09375 C 0.1875 -8.53125 2.453125 1.953125 9.390625 1.953125 Z M 9.390625 1.953125 "/></g></g></g></svg>