<svg xmlns="http://www.w3.org/2000/svg" xmlns:xlink="http://www.w3.org/1999/xlink" width="769" zoomAndPan="magnify" viewBox="0 0 576.75 92.999996" height="124" preserveAspectRatio="xMidYMid meet" version="1.0"><defs><g/><clipPath id="ba37a9ce0b"><path d="M 0 0.0195312 L 561.414062 0.0195312 L 561.414062 92.503906 L 0 92.503906 Z M 0 0.0195312 " clip-rule="nonzero"/></clipPath><clipPath id="c02fcc88be"><path d="M 37.484375 0.0195312 L 523.667969 0.0195312 C 533.609375 0.0195312 543.144531 3.96875 550.175781 11 C 557.203125 18.027344 561.152344 27.5625 561.152344 37.503906 L 561.152344 55.019531 C 561.152344 64.960938 557.203125 74.496094 550.175781 81.527344 C 543.144531 88.554688 533.609375 92.503906 523.667969 92.503906 L 37.484375 92.503906 C 27.542969 92.503906 18.007812 88.554688 10.980469 81.527344 C 3.949219 74.496094 0 64.960938 0 55.019531 L 0 37.503906 C 0 27.5625 3.949219 18.027344 10.980469 11 C 18.007812 3.96875 27.542969 0.0195312 37.484375 0.0195312 Z M 37.484375 0.0195312 " clip-rule="nonzero"/></clipPath><clipPath id="b9a3a5baa2"><path d="M 499.65625 2.578125 L 576.121094 2.578125 L 576.121094 91.792969 L 499.65625 91.792969 Z M 499.65625 2.578125 " clip-rule="nonzero"/></clipPath><clipPath id="f2048be0d8"><path d="M 537.808594 25.113281 L 525.121094 31.457031 L 525.121094 47.183594 L 526.714844 47.183594 L 526.714844 39.226562 C 526.714844 38.347656 527.425781 37.636719 528.304688 37.636719 L 534.671875 37.636719 C 535.550781 37.636719 536.261719 38.347656 536.261719 39.226562 L 536.261719 47.183594 L 550.585938 47.183594 L 550.585938 31.457031 L 537.902344 25.113281 C 537.871094 25.101562 537.835938 25.101562 537.808594 25.113281 Z M 534.671875 36.042969 L 528.304688 36.042969 C 527.425781 36.042969 526.714844 35.332031 526.714844 34.453125 C 526.714844 33.574219 527.425781 32.859375 528.304688 32.859375 L 534.671875 32.859375 C 535.550781 32.859375 536.261719 33.574219 536.261719 34.453125 C 536.261719 35.332031 535.550781 36.042969 534.671875 36.042969 Z M 539.445312 34.453125 C 539.445312 33.574219 540.160156 32.859375 541.039062 32.859375 L 547.402344 32.859375 C 548.28125 32.859375 548.996094 33.574219 548.996094 34.453125 L 548.996094 40.820312 C 548.996094 41.699219 548.28125 42.410156 547.402344 42.410156 L 541.039062 42.410156 C 540.160156 42.410156 539.445312 41.699219 539.445312 40.820312 Z M 529.894531 40.820312 L 533.078125 40.820312 L 533.078125 47.183594 L 529.894531 47.183594 Z M 545.8125 39.226562 L 542.628906 39.226562 L 542.628906 36.042969 L 545.8125 36.042969 Z M 550.585938 21.53125 L 547.402344 19.941406 L 547.402344 18.535156 L 550.585938 18.535156 Z M 536.382812 22.265625 L 520.5 30.210938 C 520.480469 30.21875 520.445312 30.234375 520.398438 30.207031 C 520.347656 30.175781 520.347656 30.136719 520.347656 30.117188 L 520.347656 27.542969 C 520.347656 27.503906 520.367188 27.46875 520.40625 27.449219 L 537.808594 18.75 C 537.835938 18.734375 537.871094 18.734375 537.902344 18.75 L 555.304688 27.449219 C 555.339844 27.46875 555.363281 27.503906 555.363281 27.542969 L 555.363281 30.117188 C 555.363281 30.136719 555.363281 30.175781 555.3125 30.207031 C 555.261719 30.234375 555.230469 30.21875 555.210938 30.210938 L 539.324219 22.265625 C 538.863281 22.039062 538.359375 21.921875 537.855469 21.921875 C 537.347656 21.921875 536.84375 22.039062 536.382812 22.265625 Z M 576.050781 85.382812 C 576.050781 85.402344 575.441406 87.496094 565.679688 89.449219 C 558.261719 90.933594 548.378906 91.75 537.855469 91.75 C 527.328125 91.75 517.445312 90.933594 510.03125 89.449219 C 500.265625 87.496094 499.65625 85.402344 499.65625 85.382812 C 499.65625 85.363281 500.265625 83.269531 510.03125 81.316406 C 514.980469 80.328125 521.027344 79.636719 527.632812 79.285156 C 532.488281 85.148438 536.242188 89.175781 536.691406 89.65625 C 536.992188 89.976562 537.414062 90.160156 537.855469 90.160156 C 538.292969 90.160156 538.714844 89.976562 539.015625 89.65625 C 539.070312 89.59375 542.960938 85.433594 548.046875 79.285156 C 554.660156 79.636719 560.722656 80.324219 565.675781 81.316406 C 575.441406 83.269531 576.050781 85.363281 576.050781 85.382812 Z M 537.851562 86.210938 C 543.710938 79.746094 569.6875 50.164062 569.6875 34.453125 C 569.6875 16.902344 555.40625 2.621094 537.855469 2.621094 C 520.300781 2.621094 506.023438 16.902344 506.023438 34.453125 C 506.023438 41.65625 511.691406 53.078125 522.417969 67.480469 C 528.820312 76.074219 535.277344 83.371094 537.851562 86.210938 Z M 509.207031 34.453125 C 509.207031 18.65625 522.058594 5.804688 537.855469 5.804688 C 553.652344 5.804688 566.503906 18.65625 566.503906 34.453125 C 566.503906 50.25 553.652344 63.101562 537.855469 63.101562 C 522.058594 63.101562 509.207031 50.25 509.207031 34.453125 Z M 563.320312 34.453125 C 563.320312 20.410156 551.894531 8.988281 537.855469 8.988281 C 523.8125 8.988281 512.390625 20.410156 512.390625 34.453125 C 512.390625 48.496094 523.8125 59.917969 537.855469 59.917969 C 551.894531 59.917969 563.320312 48.496094 563.320312 34.453125 Z M 521.9375 48.777344 L 521.9375 33.050781 L 521.921875 33.058594 C 520.894531 33.570312 519.699219 33.515625 518.722656 32.914062 C 517.746094 32.308594 517.164062 31.261719 517.164062 30.113281 L 517.164062 27.542969 C 517.164062 26.289062 517.859375 25.164062 518.980469 24.601562 L 536.382812 15.902344 C 537.304688 15.441406 538.402344 15.441406 539.324219 15.902344 L 544.21875 18.347656 L 544.21875 16.945312 C 544.21875 16.066406 544.933594 15.355469 545.8125 15.355469 L 552.179688 15.355469 C 553.058594 15.355469 553.769531 16.066406 553.769531 16.945312 L 553.769531 23.125 L 556.726562 24.601562 C 557.847656 25.164062 558.546875 26.289062 558.546875 27.542969 L 558.546875 30.117188 C 558.546875 31.261719 557.960938 32.308594 556.984375 32.914062 C 556.453125 33.242188 555.855469 33.40625 555.257812 33.40625 C 554.757812 33.40625 554.253906 33.289062 553.785156 33.058594 L 553.769531 33.050781 L 553.769531 48.777344 C 553.769531 49.65625 553.058594 50.367188 552.179688 50.367188 L 523.53125 50.367188 C 522.652344 50.367188 521.9375 49.65625 521.9375 48.777344 Z M 521.9375 48.777344 " clip-rule="nonzero"/></clipPath><linearGradient x1="71.614988" gradientTransform="matrix(0.198949, 0, 0, 0.198949, 486.923187, -3.745572)" y1="487.615004" x2="487.614996" gradientUnits="userSpaceOnUse" y2="71.615025" id="d42b38a70a"><stop stop-opacity="1" stop-color="rgb(100%, 39.99939%, 76.899719%)" offset="0"/><stop stop-opacity="1" stop-color="rgb(100%, 39.99939%, 76.899719%)" offset="0.03125"/><stop stop-opacity="1" stop-color="rgb(99.855042%, 39.945984%, 76.786804%)" offset="0.0390625"/><stop stop-opacity="1" stop-color="rgb(98.881531%, 39.588928%, 76.029968%)" offset="0.0429688"/><stop stop-opacity="1" stop-color="rgb(98.052979%, 39.283752%, 75.384521%)" offset="0.046875"/><stop stop-opacity="1" stop-color="rgb(97.2229%, 38.978577%, 74.739075%)" offset="0.0507812"/><stop stop-opacity="1" stop-color="rgb(96.392822%, 38.674927%, 74.095154%)" offset="0.0546875"/><stop stop-opacity="1" stop-color="rgb(95.562744%, 38.369751%, 73.449707%)" offset="0.0585938"/><stop stop-opacity="1" stop-color="rgb(94.734192%, 38.066101%, 72.80426%)" offset="0.0625"/><stop stop-opacity="1" stop-color="rgb(93.904114%, 37.760925%, 72.158813%)" offset="0.0664063"/><stop stop-opacity="1" stop-color="rgb(93.075562%, 37.457275%, 71.513367%)" offset="0.0703125"/><stop stop-opacity="1" stop-color="rgb(92.245483%, 37.1521%, 70.86792%)" offset="0.0742188"/><stop stop-opacity="1" stop-color="rgb(91.415405%, 36.84845%, 70.223999%)" offset="0.078125"/><stop stop-opacity="1" stop-color="rgb(90.585327%, 36.543274%, 69.578552%)" offset="0.0820313"/><stop stop-opacity="1" stop-color="rgb(89.756775%, 36.239624%, 68.933105%)" offset="0.0859375"/><stop stop-opacity="1" stop-color="rgb(88.926697%, 35.934448%, 68.287659%)" offset="0.0898438"/><stop stop-opacity="1" stop-color="rgb(88.098145%, 35.630798%, 67.642212%)" offset="0.09375"/><stop stop-opacity="1" stop-color="rgb(87.268066%, 35.325623%, 66.996765%)" offset="0.0976563"/><stop stop-opacity="1" stop-color="rgb(86.439514%, 35.021973%, 66.352844%)" offset="0.101562"/><stop stop-opacity="1" stop-color="rgb(85.609436%, 34.716797%, 65.707397%)" offset="0.105469"/><stop stop-opacity="1" stop-color="rgb(84.779358%, 34.411621%, 65.061951%)" offset="0.109375"/><stop stop-opacity="1" stop-color="rgb(83.94928%, 34.106445%, 64.416504%)" offset="0.113281"/><stop stop-opacity="1" stop-color="rgb(83.120728%, 33.802795%, 63.771057%)" offset="0.117188"/><stop stop-opacity="1" stop-color="rgb(82.290649%, 33.49762%, 63.12561%)" offset="0.121094"/><stop stop-opacity="1" stop-color="rgb(81.462097%, 33.19397%, 62.481689%)" offset="0.125"/><stop stop-opacity="1" stop-color="rgb(80.632019%, 32.888794%, 61.836243%)" offset="0.128906"/><stop stop-opacity="1" stop-color="rgb(79.803467%, 32.585144%, 61.190796%)" offset="0.132813"/><stop stop-opacity="1" stop-color="rgb(78.973389%, 32.279968%, 60.545349%)" offset="0.136719"/><stop stop-opacity="1" stop-color="rgb(78.143311%, 31.976318%, 59.899902%)" offset="0.140625"/><stop stop-opacity="1" stop-color="rgb(77.313232%, 31.671143%, 59.254456%)" offset="0.144531"/><stop stop-opacity="1" stop-color="rgb(76.48468%, 31.367493%, 58.610535%)" offset="0.148438"/><stop stop-opacity="1" stop-color="rgb(75.654602%, 31.062317%, 57.965088%)" offset="0.152344"/><stop stop-opacity="1" stop-color="rgb(74.82605%, 30.758667%, 57.319641%)" offset="0.15625"/><stop stop-opacity="1" stop-color="rgb(73.995972%, 30.453491%, 56.674194%)" offset="0.160156"/><stop stop-opacity="1" stop-color="rgb(73.167419%, 30.148315%, 56.028748%)" offset="0.164062"/><stop stop-opacity="1" stop-color="rgb(72.337341%, 29.84314%, 55.383301%)" offset="0.167969"/><stop stop-opacity="1" stop-color="rgb(71.507263%, 29.53949%, 54.73938%)" offset="0.171875"/><stop stop-opacity="1" stop-color="rgb(70.677185%, 29.234314%, 54.093933%)" offset="0.175781"/><stop stop-opacity="1" stop-color="rgb(69.848633%, 28.930664%, 53.448486%)" offset="0.179688"/><stop stop-opacity="1" stop-color="rgb(69.018555%, 28.625488%, 52.80304%)" offset="0.183594"/><stop stop-opacity="1" stop-color="rgb(68.190002%, 28.321838%, 52.159119%)" offset="0.1875"/><stop stop-opacity="1" stop-color="rgb(67.359924%, 28.016663%, 51.513672%)" offset="0.191406"/><stop stop-opacity="1" stop-color="rgb(66.529846%, 27.713013%, 50.868225%)" offset="0.195313"/><stop stop-opacity="1" stop-color="rgb(65.699768%, 27.407837%, 50.222778%)" offset="0.199219"/><stop stop-opacity="1" stop-color="rgb(64.871216%, 27.104187%, 49.577332%)" offset="0.203125"/><stop stop-opacity="1" stop-color="rgb(64.041138%, 26.799011%, 48.931885%)" offset="0.207031"/><stop stop-opacity="1" stop-color="rgb(63.212585%, 26.495361%, 48.287964%)" offset="0.210938"/><stop stop-opacity="1" stop-color="rgb(62.382507%, 26.190186%, 47.642517%)" offset="0.214844"/><stop stop-opacity="1" stop-color="rgb(61.553955%, 25.88501%, 46.99707%)" offset="0.21875"/><stop stop-opacity="1" stop-color="rgb(60.723877%, 25.579834%, 46.351624%)" offset="0.222656"/><stop stop-opacity="1" stop-color="rgb(59.893799%, 25.276184%, 45.706177%)" offset="0.226563"/><stop stop-opacity="1" stop-color="rgb(59.063721%, 24.971008%, 45.06073%)" offset="0.230469"/><stop stop-opacity="1" stop-color="rgb(58.235168%, 24.667358%, 44.416809%)" offset="0.234375"/><stop stop-opacity="1" stop-color="rgb(57.40509%, 24.362183%, 43.771362%)" offset="0.238281"/><stop stop-opacity="1" stop-color="rgb(56.576538%, 24.058533%, 43.125916%)" offset="0.242187"/><stop stop-opacity="1" stop-color="rgb(55.74646%, 23.753357%, 42.480469%)" offset="0.246094"/><stop stop-opacity="1" stop-color="rgb(54.917908%, 23.449707%, 41.835022%)" offset="0.25"/><stop stop-opacity="1" stop-color="rgb(54.08783%, 23.144531%, 41.189575%)" offset="0.253906"/><stop stop-opacity="1" stop-color="rgb(53.257751%, 22.840881%, 40.545654%)" offset="0.257812"/><stop stop-opacity="1" stop-color="rgb(52.427673%, 22.535706%, 39.900208%)" offset="0.261719"/><stop stop-opacity="1" stop-color="rgb(51.599121%, 22.232056%, 39.254761%)" offset="0.265625"/><stop stop-opacity="1" stop-color="rgb(50.769043%, 21.92688%, 38.609314%)" offset="0.269531"/><stop stop-opacity="1" stop-color="rgb(49.940491%, 21.621704%, 37.963867%)" offset="0.273438"/><stop stop-opacity="1" stop-color="rgb(49.110413%, 21.316528%, 37.31842%)" offset="0.277344"/><stop stop-opacity="1" stop-color="rgb(48.28186%, 21.012878%, 36.6745%)" offset="0.28125"/><stop stop-opacity="1" stop-color="rgb(47.451782%, 20.707703%, 36.029053%)" offset="0.285156"/><stop stop-opacity="1" stop-color="rgb(46.621704%, 20.404053%, 35.383606%)" offset="0.289062"/><stop stop-opacity="1" stop-color="rgb(45.791626%, 20.098877%, 34.738159%)" offset="0.292969"/><stop stop-opacity="1" stop-color="rgb(44.963074%, 19.795227%, 34.092712%)" offset="0.296875"/><stop stop-opacity="1" stop-color="rgb(44.132996%, 19.490051%, 33.447266%)" offset="0.300781"/><stop stop-opacity="1" stop-color="rgb(43.304443%, 19.186401%, 32.803345%)" offset="0.304688"/><stop stop-opacity="1" stop-color="rgb(42.474365%, 18.881226%, 32.157898%)" offset="0.308594"/><stop stop-opacity="1" stop-color="rgb(41.644287%, 18.577576%, 31.512451%)" offset="0.3125"/><stop stop-opacity="1" stop-color="rgb(40.814209%, 18.2724%, 30.867004%)" offset="0.316406"/><stop stop-opacity="1" stop-color="rgb(39.985657%, 17.96875%, 30.221558%)" offset="0.320313"/><stop stop-opacity="1" stop-color="rgb(39.155579%, 17.663574%, 29.576111%)" offset="0.324219"/><stop stop-opacity="1" stop-color="rgb(38.327026%, 17.359924%, 28.93219%)" offset="0.328125"/><stop stop-opacity="1" stop-color="rgb(37.496948%, 17.054749%, 28.286743%)" offset="0.332031"/><stop stop-opacity="1" stop-color="rgb(36.668396%, 16.749573%, 27.641296%)" offset="0.335938"/><stop stop-opacity="1" stop-color="rgb(35.838318%, 16.444397%, 26.99585%)" offset="0.339844"/><stop stop-opacity="1" stop-color="rgb(35.00824%, 16.140747%, 26.350403%)" offset="0.34375"/><stop stop-opacity="1" stop-color="rgb(34.178162%, 15.835571%, 25.704956%)" offset="0.347656"/><stop stop-opacity="1" stop-color="rgb(33.349609%, 15.531921%, 25.061035%)" offset="0.351562"/><stop stop-opacity="1" stop-color="rgb(32.519531%, 15.226746%, 24.415588%)" offset="0.355469"/><stop stop-opacity="1" stop-color="rgb(31.690979%, 14.923096%, 23.770142%)" offset="0.359375"/><stop stop-opacity="1" stop-color="rgb(30.860901%, 14.61792%, 23.124695%)" offset="0.363281"/><stop stop-opacity="1" stop-color="rgb(30.032349%, 14.31427%, 22.480774%)" offset="0.367188"/><stop stop-opacity="1" stop-color="rgb(29.202271%, 14.009094%, 21.835327%)" offset="0.371094"/><stop stop-opacity="1" stop-color="rgb(28.372192%, 13.705444%, 21.18988%)" offset="0.375"/><stop stop-opacity="1" stop-color="rgb(27.542114%, 13.400269%, 20.544434%)" offset="0.378906"/><stop stop-opacity="1" stop-color="rgb(26.713562%, 13.096619%, 19.898987%)" offset="0.382812"/><stop stop-opacity="1" stop-color="rgb(25.883484%, 12.791443%, 19.25354%)" offset="0.386719"/><stop stop-opacity="1" stop-color="rgb(25.054932%, 12.486267%, 18.609619%)" offset="0.390625"/><stop stop-opacity="1" stop-color="rgb(24.224854%, 12.181091%, 17.964172%)" offset="0.394531"/><stop stop-opacity="1" stop-color="rgb(23.396301%, 11.877441%, 17.318726%)" offset="0.398438"/><stop stop-opacity="1" stop-color="rgb(22.566223%, 11.572266%, 16.673279%)" offset="0.402344"/><stop stop-opacity="1" stop-color="rgb(21.736145%, 11.268616%, 16.027832%)" offset="0.40625"/><stop stop-opacity="1" stop-color="rgb(20.906067%, 10.96344%, 15.382385%)" offset="0.410156"/><stop stop-opacity="1" stop-color="rgb(20.077515%, 10.65979%, 14.738464%)" offset="0.414062"/><stop stop-opacity="1" stop-color="rgb(19.247437%, 10.354614%, 14.093018%)" offset="0.417969"/><stop stop-opacity="1" stop-color="rgb(18.418884%, 10.050964%, 13.447571%)" offset="0.421875"/><stop stop-opacity="1" stop-color="rgb(17.588806%, 9.745789%, 12.802124%)" offset="0.425781"/><stop stop-opacity="1" stop-color="rgb(16.758728%, 9.442139%, 12.156677%)" offset="0.429687"/><stop stop-opacity="1" stop-color="rgb(15.92865%, 9.136963%, 11.51123%)" offset="0.433594"/><stop stop-opacity="1" stop-color="rgb(15.100098%, 8.833313%, 10.86731%)" offset="0.4375"/><stop stop-opacity="1" stop-color="rgb(14.27002%, 8.528137%, 10.221863%)" offset="0.441406"/><stop stop-opacity="1" stop-color="rgb(13.441467%, 8.222961%, 9.576416%)" offset="0.445312"/><stop stop-opacity="1" stop-color="rgb(12.611389%, 7.917786%, 8.930969%)" offset="0.449219"/><stop stop-opacity="1" stop-color="rgb(11.782837%, 7.614136%, 8.285522%)" offset="0.453125"/><stop stop-opacity="1" stop-color="rgb(10.952759%, 7.30896%, 7.640076%)" offset="0.457031"/><stop stop-opacity="1" stop-color="rgb(10.122681%, 7.00531%, 6.996155%)" offset="0.460937"/><stop stop-opacity="1" stop-color="rgb(9.292603%, 6.700134%, 6.350708%)" offset="0.464844"/><stop stop-opacity="1" stop-color="rgb(8.46405%, 6.396484%, 5.705261%)" offset="0.46875"/><stop stop-opacity="1" stop-color="rgb(8.94928%, 6.660461%, 6.335449%)" offset="0.472656"/><stop stop-opacity="1" stop-color="rgb(9.436035%, 6.924438%, 6.967163%)" offset="0.476562"/><stop stop-opacity="1" stop-color="rgb(10.173035%, 7.296753%, 7.839966%)" offset="0.480469"/><stop stop-opacity="1" stop-color="rgb(10.910034%, 7.669067%, 8.714294%)" offset="0.484375"/><stop stop-opacity="1" stop-color="rgb(11.645508%, 8.041382%, 9.587097%)" offset="0.488281"/><stop stop-opacity="1" stop-color="rgb(12.382507%, 8.413696%, 10.461426%)" offset="0.492188"/><stop stop-opacity="1" stop-color="rgb(13.117981%, 8.786011%, 11.334229%)" offset="0.496094"/><stop stop-opacity="1" stop-color="rgb(13.85498%, 9.158325%, 12.208557%)" offset="0.5"/><stop stop-opacity="1" stop-color="rgb(14.590454%, 9.53064%, 13.08136%)" offset="0.503906"/><stop stop-opacity="1" stop-color="rgb(15.327454%, 9.902954%, 13.955688%)" offset="0.507812"/><stop stop-opacity="1" stop-color="rgb(16.062927%, 10.275269%, 14.828491%)" offset="0.511719"/><stop stop-opacity="1" stop-color="rgb(16.799927%, 10.647583%, 15.70282%)" offset="0.515625"/><stop stop-opacity="1" stop-color="rgb(17.5354%, 11.019897%, 16.575623%)" offset="0.519531"/><stop stop-opacity="1" stop-color="rgb(18.2724%, 11.392212%, 17.449951%)" offset="0.523438"/><stop stop-opacity="1" stop-color="rgb(19.009399%, 11.764526%, 18.322754%)" offset="0.527344"/><stop stop-opacity="1" stop-color="rgb(19.746399%, 12.136841%, 19.197083%)" offset="0.53125"/><stop stop-opacity="1" stop-color="rgb(20.481873%, 12.509155%, 20.069885%)" offset="0.535156"/><stop stop-opacity="1" stop-color="rgb(21.218872%, 12.88147%, 20.944214%)" offset="0.539063"/><stop stop-opacity="1" stop-color="rgb(21.954346%, 13.253784%, 21.817017%)" offset="0.542969"/><stop stop-opacity="1" stop-color="rgb(22.691345%, 13.626099%, 22.691345%)" offset="0.546875"/><stop stop-opacity="1" stop-color="rgb(23.426819%, 13.998413%, 23.564148%)" offset="0.550781"/><stop stop-opacity="1" stop-color="rgb(24.163818%, 14.370728%, 24.438477%)" offset="0.554688"/><stop stop-opacity="1" stop-color="rgb(24.899292%, 14.743042%, 25.311279%)" offset="0.558594"/><stop stop-opacity="1" stop-color="rgb(25.636292%, 15.115356%, 26.185608%)" offset="0.5625"/><stop stop-opacity="1" stop-color="rgb(26.371765%, 15.487671%, 27.058411%)" offset="0.566406"/><stop stop-opacity="1" stop-color="rgb(27.108765%, 15.859985%, 27.931213%)" offset="0.570312"/><stop stop-opacity="1" stop-color="rgb(27.845764%, 16.2323%, 28.804016%)" offset="0.574219"/><stop stop-opacity="1" stop-color="rgb(28.582764%, 16.604614%, 29.678345%)" offset="0.578125"/><stop stop-opacity="1" stop-color="rgb(29.318237%, 16.976929%, 30.551147%)" offset="0.582031"/><stop stop-opacity="1" stop-color="rgb(30.055237%, 17.349243%, 31.425476%)" offset="0.585938"/><stop stop-opacity="1" stop-color="rgb(30.79071%, 17.721558%, 32.298279%)" offset="0.589844"/><stop stop-opacity="1" stop-color="rgb(31.52771%, 18.093872%, 33.172607%)" offset="0.59375"/><stop stop-opacity="1" stop-color="rgb(32.263184%, 18.466187%, 34.04541%)" offset="0.597656"/><stop stop-opacity="1" stop-color="rgb(33.000183%, 18.838501%, 34.919739%)" offset="0.601562"/><stop stop-opacity="1" stop-color="rgb(33.735657%, 19.210815%, 35.792542%)" offset="0.605469"/><stop stop-opacity="1" stop-color="rgb(34.472656%, 19.58313%, 36.66687%)" offset="0.609375"/><stop stop-opacity="1" stop-color="rgb(35.20813%, 19.955444%, 37.539673%)" offset="0.613281"/><stop stop-opacity="1" stop-color="rgb(35.945129%, 20.327759%, 38.414001%)" offset="0.617188"/><stop stop-opacity="1" stop-color="rgb(36.682129%, 20.700073%, 39.286804%)" offset="0.621094"/><stop stop-opacity="1" stop-color="rgb(37.419128%, 21.072388%, 40.161133%)" offset="0.625"/><stop stop-opacity="1" stop-color="rgb(38.154602%, 21.444702%, 41.033936%)" offset="0.628906"/><stop stop-opacity="1" stop-color="rgb(38.891602%, 21.817017%, 41.908264%)" offset="0.632813"/><stop stop-opacity="1" stop-color="rgb(39.627075%, 22.189331%, 42.781067%)" offset="0.636719"/><stop stop-opacity="1" stop-color="rgb(40.364075%, 22.561646%, 43.655396%)" offset="0.640625"/><stop stop-opacity="1" stop-color="rgb(41.099548%, 22.93396%, 44.528198%)" offset="0.644531"/><stop stop-opacity="1" stop-color="rgb(41.836548%, 23.306274%, 45.402527%)" offset="0.648438"/><stop stop-opacity="1" stop-color="rgb(42.572021%, 23.678589%, 46.27533%)" offset="0.652344"/><stop stop-opacity="1" stop-color="rgb(43.309021%, 24.050903%, 47.149658%)" offset="0.65625"/><stop stop-opacity="1" stop-color="rgb(44.044495%, 24.423218%, 48.022461%)" offset="0.660156"/><stop stop-opacity="1" stop-color="rgb(44.781494%, 24.795532%, 48.89679%)" offset="0.664062"/><stop stop-opacity="1" stop-color="rgb(45.518494%, 25.167847%, 49.769592%)" offset="0.667969"/><stop stop-opacity="1" stop-color="rgb(46.255493%, 25.540161%, 50.643921%)" offset="0.671875"/><stop stop-opacity="1" stop-color="rgb(46.990967%, 25.912476%, 51.516724%)" offset="0.675781"/><stop stop-opacity="1" stop-color="rgb(47.727966%, 26.28479%, 52.391052%)" offset="0.679688"/><stop stop-opacity="1" stop-color="rgb(48.46344%, 26.657104%, 53.263855%)" offset="0.683594"/><stop stop-opacity="1" stop-color="rgb(49.200439%, 27.029419%, 54.138184%)" offset="0.6875"/><stop stop-opacity="1" stop-color="rgb(49.935913%, 27.401733%, 55.010986%)" offset="0.691406"/><stop stop-opacity="1" stop-color="rgb(50.672913%, 27.774048%, 55.885315%)" offset="0.695312"/><stop stop-opacity="1" stop-color="rgb(51.408386%, 28.146362%, 56.758118%)" offset="0.699219"/><stop stop-opacity="1" stop-color="rgb(52.145386%, 28.518677%, 57.632446%)" offset="0.703125"/><stop stop-opacity="1" stop-color="rgb(52.880859%, 28.890991%, 58.505249%)" offset="0.707031"/><stop stop-opacity="1" stop-color="rgb(53.617859%, 29.263306%, 59.379578%)" offset="0.710938"/><stop stop-opacity="1" stop-color="rgb(54.354858%, 29.63562%, 60.25238%)" offset="0.714844"/><stop stop-opacity="1" stop-color="rgb(55.091858%, 30.007935%, 61.126709%)" offset="0.71875"/><stop stop-opacity="1" stop-color="rgb(55.827332%, 30.380249%, 61.999512%)" offset="0.722656"/><stop stop-opacity="1" stop-color="rgb(56.564331%, 30.752563%, 62.87384%)" offset="0.726562"/><stop stop-opacity="1" stop-color="rgb(57.299805%, 31.124878%, 63.746643%)" offset="0.730469"/><stop stop-opacity="1" stop-color="rgb(58.036804%, 31.497192%, 64.619446%)" offset="0.734375"/><stop stop-opacity="1" stop-color="rgb(58.772278%, 31.869507%, 65.492249%)" offset="0.738281"/><stop stop-opacity="1" stop-color="rgb(59.509277%, 32.241821%, 66.366577%)" offset="0.742188"/><stop stop-opacity="1" stop-color="rgb(60.244751%, 32.614136%, 67.23938%)" offset="0.746094"/><stop stop-opacity="1" stop-color="rgb(60.98175%, 32.98645%, 68.113708%)" offset="0.75"/><stop stop-opacity="1" stop-color="rgb(61.717224%, 33.358765%, 68.986511%)" offset="0.753906"/><stop stop-opacity="1" stop-color="rgb(62.454224%, 33.731079%, 69.86084%)" offset="0.757812"/><stop stop-opacity="1" stop-color="rgb(63.191223%, 34.103394%, 70.733643%)" offset="0.761719"/><stop stop-opacity="1" stop-color="rgb(63.928223%, 34.475708%, 71.607971%)" offset="0.765625"/><stop stop-opacity="1" stop-color="rgb(64.663696%, 34.848022%, 72.480774%)" offset="0.769531"/><stop stop-opacity="1" stop-color="rgb(65.400696%, 35.220337%, 73.355103%)" offset="0.773438"/><stop stop-opacity="1" stop-color="rgb(66.136169%, 35.592651%, 74.227905%)" offset="0.777344"/><stop stop-opacity="1" stop-color="rgb(66.873169%, 35.964966%, 75.102234%)" offset="0.78125"/><stop stop-opacity="1" stop-color="rgb(67.608643%, 36.33728%, 75.975037%)" offset="0.785156"/><stop stop-opacity="1" stop-color="rgb(68.345642%, 36.709595%, 76.849365%)" offset="0.789062"/><stop stop-opacity="1" stop-color="rgb(69.081116%, 37.081909%, 77.722168%)" offset="0.792969"/><stop stop-opacity="1" stop-color="rgb(69.818115%, 37.454224%, 78.596497%)" offset="0.796875"/><stop stop-opacity="1" stop-color="rgb(70.553589%, 37.826538%, 79.469299%)" offset="0.800781"/><stop stop-opacity="1" stop-color="rgb(71.290588%, 38.198853%, 80.343628%)" offset="0.804688"/><stop stop-opacity="1" stop-color="rgb(72.027588%, 38.571167%, 81.216431%)" offset="0.808594"/><stop stop-opacity="1" stop-color="rgb(72.764587%, 38.943481%, 82.090759%)" offset="0.8125"/><stop stop-opacity="1" stop-color="rgb(73.500061%, 39.315796%, 82.963562%)" offset="0.816406"/><stop stop-opacity="1" stop-color="rgb(74.237061%, 39.68811%, 83.837891%)" offset="0.820312"/><stop stop-opacity="1" stop-color="rgb(74.972534%, 40.060425%, 84.710693%)" offset="0.824219"/><stop stop-opacity="1" stop-color="rgb(75.709534%, 40.432739%, 85.585022%)" offset="0.828125"/><stop stop-opacity="1" stop-color="rgb(76.445007%, 40.805054%, 86.457825%)" offset="0.832031"/><stop stop-opacity="1" stop-color="rgb(77.182007%, 41.177368%, 87.332153%)" offset="0.835938"/><stop stop-opacity="1" stop-color="rgb(77.91748%, 41.549683%, 88.204956%)" offset="0.839844"/><stop stop-opacity="1" stop-color="rgb(78.65448%, 41.921997%, 89.079285%)" offset="0.84375"/><stop stop-opacity="1" stop-color="rgb(79.125977%, 42.160034%, 89.639282%)" offset="0.847656"/><stop stop-opacity="1" stop-color="rgb(79.598999%, 42.399597%, 90.19928%)" offset="0.851562"/><stop stop-opacity="1" stop-color="rgb(79.598999%, 42.399597%, 90.19928%)" offset="0.859375"/><stop stop-opacity="1" stop-color="rgb(79.598999%, 42.399597%, 90.19928%)" offset="0.875"/><stop stop-opacity="1" stop-color="rgb(79.598999%, 42.399597%, 90.19928%)" offset="1"/></linearGradient></defs><g clip-path="url(#ba37a9ce0b)"><g clip-path="url(#c02fcc88be)"><path fill="#be9fd4" d="M 0 0.0195312 L 561.050781 0.0195312 L 561.050781 92.503906 L 0 92.503906 Z M 0 0.0195312 " fill-opacity="1" fill-rule="nonzero"/></g></g><g clip-path="url(#b9a3a5baa2)"><g clip-path="url(#f2048be0d8)"><path fill="url(#d42b38a70a)" d="M 499.65625 2.621094 L 499.65625 91.75 L 576.050781 91.75 L 576.050781 2.621094 Z M 499.65625 2.621094 " fill-rule="nonzero"/></g></g><g fill="#faf7ed" fill-opacity="1"><g transform="translate(86.996249, 58.432363)"><g><path d="M 12.890625 1.671875 C 22.359375 1.671875 31.75 -4.59375 31.75 -10.953125 C 31.75 -17.875 23.375 -17.40625 17.171875 -17.09375 C 13.40625 -16.90625 10.5625 -16.75 10.5625 -18.078125 C 10.5625 -20.09375 17.5625 -23.375 22.046875 -23.375 C 23.921875 -23.375 24.859375 -22.78125 25.203125 -21.546875 C 25.546875 -20.296875 26.921875 -20.0625 28.078125 -20.53125 C 29.21875 -21 30.15625 -22.09375 29.84375 -23.609375 C 29.21875 -26.71875 26.0625 -28.828125 22.046875 -28.828125 C 13.984375 -28.828125 4.875 -22.859375 4.875 -17.5625 C 4.875 -11.6875 12.625 -12 18.734375 -12.265625 C 22.9375 -12.421875 26.296875 -12.578125 26.296875 -10.953125 C 26.296875 -7.640625 19.171875 -3.78125 12.890625 -3.78125 C 8.71875 -3.78125 5.796875 -5.84375 6.9375 -8.03125 C 7.59375 -9.46875 6.859375 -10.875 5.71875 -11.5625 C 4.75 -12.15625 3.46875 -12.234375 2.53125 -11.25 C 1.5625 -10.25 0.96875 -8.71875 0.96875 -7.328125 C 0.9375 -3 5.0625 1.671875 12.890625 1.671875 Z M 12.890625 1.671875 "/></g></g></g><g fill="#faf7ed" fill-opacity="1"><g transform="translate(120.10198, 58.432363)"><g><path d="M 8.453125 2.796875 C 12.3125 2.796875 15.3125 -0.234375 18.265625 -6.109375 C 18.390625 -4.953125 18.546875 -3.859375 18.734375 -2.875 C 19.171875 -1.125 21.078125 -0.625 22.625 -1.59375 C 23.5625 -2.1875 23.796875 -3.15625 23.609375 -4.203125 C 23.0625 -7.171875 23.171875 -12.78125 24.109375 -18 C 24.5 -20.171875 23.875 -21.96875 22.4375 -22.3125 C 21.46875 -22.515625 20.484375 -22.203125 19.90625 -21.46875 C 19.703125 -21.78125 19.46875 -22.125 19.125 -22.390625 C 17.765625 -23.53125 16.171875 -24 14.40625 -24 C 7.984375 -24 1.171875 -14.328125 1.171875 -5.6875 C 1.171875 -0.8125 4.09375 2.796875 8.453125 2.796875 Z M 6.234375 -5.6875 C 6.234375 -11.375 11.0625 -18.9375 14.40625 -18.9375 C 15.1875 -18.9375 15.703125 -18.546875 16.328125 -18.1875 C 16.9375 -17.84375 17.765625 -17.640625 18.546875 -17.875 C 15.390625 -9.15625 10.90625 -2.265625 8.453125 -2.265625 C 7.125 -2.265625 6.234375 -3.5 6.234375 -5.6875 Z M 13.28125 -33.421875 C 14.5625 -33.234375 16.015625 -32.796875 16.015625 -31.984375 C 16.015625 -31.46875 15.421875 -30.96875 15.234375 -30.8125 C 14.40625 -30.15625 14.015625 -29.296875 14.375 -28.046875 C 14.765625 -26.640625 16.640625 -26.0625 18.109375 -26.796875 C 19.9375 -27.703125 21.078125 -29.5625 21.078125 -31.984375 C 21.078125 -35.640625 17.09375 -38.296875 13.640625 -38.296875 C 10.90625 -38.296875 10.28125 -33.84375 13.28125 -33.421875 Z M 13.28125 -33.421875 "/></g></g></g><g fill="#faf7ed" fill-opacity="1"><g transform="translate(145.885511, 58.432363)"><g><path d="M 4.671875 1.484375 C 6.109375 1.484375 7.25 0.421875 7.25 -1.09375 C 7.25 -9.65625 10.4375 -16.828125 13.5625 -16.828125 C 16.046875 -16.828125 17.40625 -10.71875 16.015625 -2.875 C 15.734375 -1.40625 16.484375 -0.109375 17.875 0.234375 L 17.921875 0.234375 C 19.328125 0.578125 20.640625 -0.3125 20.953125 -1.828125 C 23.09375 -13.359375 20.140625 -21.890625 13.5625 -21.890625 C 10.75 -21.890625 7.984375 -19.859375 6.734375 -17.21875 L 6.578125 -19.359375 C 6.5 -20.484375 5.375 -21.265625 3.9375 -21.1875 C 2.5 -21.109375 1.484375 -19.984375 1.5625 -18.5 C 1.828125 -14.484375 2.0625 -9.234375 2.109375 -2.109375 C 2.140625 0.78125 3.1875 1.484375 4.671875 1.484375 Z M 4.671875 1.484375 "/></g></g></g><g fill="#faf7ed" fill-opacity="1"><g transform="translate(169.098474, 58.432363)"><g/></g></g><g fill="#faf7ed" fill-opacity="1"><g transform="translate(188.572431, 58.432363)"><g><path d="M 3.546875 8.40625 L 3.578125 8.40625 C 5.03125 8.40625 6.15625 7.484375 6.3125 5.953125 C 6.546875 3.546875 6.859375 1.25 7.203125 -0.8125 C 8.53125 1.09375 10.5625 2.0625 13.40625 2.109375 C 19.328125 2.140625 24.1875 -4.171875 24.1875 -11.484375 C 24.1875 -18.1875 20.875 -23.609375 15.859375 -23.609375 C 12.3125 -23.609375 9.390625 -21.5 7.046875 -17.484375 C 6.78125 -18.78125 5.609375 -19.59375 4.28125 -19.4375 C 2.84375 -19.28125 1.953125 -18.15625 2.03125 -16.703125 C 2.34375 -10.90625 1.875 -3.34375 1.171875 5.640625 C 1.046875 7.125 2.0625 8.40625 3.546875 8.40625 Z M 8.609375 -7.515625 C 10.484375 -14.640625 13.046875 -18.546875 15.859375 -18.546875 C 17.53125 -18.546875 19.125 -15.546875 19.125 -11.484375 C 19.125 -7.015625 16.359375 -2.875 13.484375 -2.953125 C 11.875 -3 11.109375 -3.46875 10.671875 -5.265625 C 10.359375 -6.46875 9.65625 -7.359375 8.609375 -7.515625 Z M 8.609375 -7.515625 "/></g></g></g><g fill="#faf7ed" fill-opacity="1"><g transform="translate(213.927532, 58.432363)"><g><path d="M 4.4375 2.0625 C 6.109375 2.109375 6.96875 1.25 7.171875 -0.46875 C 8.40625 -11.171875 12.5 -15.65625 15 -15.65625 C 16.78125 -15.65625 17.453125 -13.90625 17.453125 -9.46875 C 17.453125 -7.125 17.140625 -4.25 16.640625 -1.640625 C 16.328125 -0.1875 17.0625 1.046875 18.421875 1.4375 C 19.9375 1.828125 21.265625 0.9375 21.546875 -0.546875 C 22.046875 -3.109375 22.515625 -6.421875 22.515625 -9.46875 C 22.515625 -16.359375 20.71875 -20.71875 15.3125 -20.71875 C 11.953125 -20.71875 9 -18.421875 6.703125 -14.140625 C 6.734375 -19.046875 6.96875 -23.484375 7.171875 -26.09375 C 7.28125 -27.578125 6.859375 -29.09375 5.140625 -29.328125 C 3.734375 -29.53125 2.375 -28.515625 2.1875 -26.875 C 1.28125 -20.171875 1.4375 -7.796875 1.984375 -0.234375 C 2.109375 1.09375 3.109375 2.03125 4.4375 2.0625 Z M 4.4375 2.0625 "/></g></g></g><g fill="#faf7ed" fill-opacity="1"><g transform="translate(237.607876, 58.432363)"><g><path d="M 8.453125 2.796875 C 12.3125 2.796875 15.3125 -0.234375 18.265625 -6.109375 C 18.390625 -4.953125 18.546875 -3.859375 18.734375 -2.875 C 19.171875 -1.125 21.078125 -0.625 22.625 -1.59375 C 23.5625 -2.1875 23.796875 -3.15625 23.609375 -4.203125 C 23.0625 -7.171875 23.171875 -12.78125 24.109375 -18 C 24.5 -20.171875 23.875 -21.96875 22.4375 -22.3125 C 21.46875 -22.515625 20.484375 -22.203125 19.90625 -21.46875 C 19.703125 -21.78125 19.46875 -22.125 19.125 -22.390625 C 17.765625 -23.53125 16.171875 -24 14.40625 -24 C 7.984375 -24 1.171875 -14.328125 1.171875 -5.6875 C 1.171875 -0.8125 4.09375 2.796875 8.453125 2.796875 Z M 6.234375 -5.6875 C 6.234375 -11.375 11.0625 -18.9375 14.40625 -18.9375 C 15.1875 -18.9375 15.703125 -18.546875 16.328125 -18.1875 C 16.9375 -17.84375 17.765625 -17.640625 18.546875 -17.875 C 15.390625 -9.15625 10.90625 -2.265625 8.453125 -2.265625 C 7.125 -2.265625 6.234375 -3.5 6.234375 -5.6875 Z M 10.640625 -25.984375 C 11.640625 -24.96875 13.046875 -25.46875 14.171875 -26.296875 L 16.359375 -27.890625 L 18.03125 -26.53125 C 19.171875 -25.625 20.453125 -25.125 21.546875 -26.09375 C 22.4375 -26.875 22.859375 -28.390625 21.859375 -29.40625 C 20.765625 -30.5 19.703125 -31.390625 18.859375 -32.0625 C 17.484375 -33.109375 16.203125 -33.234375 14.921875 -32.453125 C 14.09375 -31.9375 11.875 -30.578125 10.828125 -29.6875 C 9.625 -28.625 9.578125 -27.03125 10.640625 -25.984375 Z M 19.203125 -38.21875 C 20.0625 -38.09375 20.921875 -37.625 20.921875 -36.96875 C 20.921875 -36.53125 20.40625 -36.15625 20.25 -36 C 19.78125 -35.53125 19.546875 -34.828125 19.859375 -33.921875 C 20.25 -32.84375 21.65625 -32.375 22.78125 -32.921875 C 24.3125 -33.65625 25.125 -34.984375 25.125 -36.96875 C 25.125 -39.921875 22.75 -42.109375 19.859375 -42.109375 C 17.40625 -42.109375 16.90625 -38.53125 19.203125 -38.21875 Z M 19.203125 -38.21875 "/></g></g></g><g fill="#faf7ed" fill-opacity="1"><g transform="translate(263.391407, 58.432363)"><g><path d="M 4.984375 0.3125 C 6.390625 0.15625 7.484375 -1.125 7.484375 -2.578125 C 7.484375 -11.5625 10.71875 -17.53125 13.328125 -17.53125 C 15.546875 -17.53125 14.765625 -11.328125 14.0625 -2.6875 C 13.984375 -1.5625 14.53125 -0.34375 16.09375 -0.15625 C 17.53125 0.03125 18.890625 -0.859375 19.015625 -2.296875 C 19.546875 -9.265625 22.203125 -17.484375 25.9375 -17.484375 C 26.796875 -17.484375 27.3125 -17.140625 27.34375 -15.9375 C 27.421875 -13.203125 25.78125 -7.359375 25.78125 -2.875 C 25.78125 -1.25 26.71875 0 28.3125 0 C 29.640625 0 30.84375 -0.9375 30.765625 -2.265625 C 30.546875 -6.078125 32.140625 -11.609375 32.25 -15 C 32.40625 -19.9375 30.6875 -22.546875 26.40625 -22.546875 C 23.640625 -22.546875 21.421875 -20.953125 19.46875 -18.390625 C 18.625 -20.140625 16.90625 -22.59375 13.328125 -22.59375 C 10.125 -22.59375 7.71875 -19.125 6.546875 -16.046875 C 6.46875 -16.828125 6.5 -19.125 6.5 -20.21875 C 6.5 -21.3125 5.5 -22.28125 4.28125 -22.28125 C 2.796875 -22.28125 1.640625 -21.34375 1.59375 -19.75 C 1.4375 -12.890625 1.984375 -6.390625 2.421875 -1.875 C 2.5 -1.046875 3.078125 0.5 4.984375 0.3125 Z M 4.984375 0.3125 "/></g></g></g><g fill="#faf7ed" fill-opacity="1"><g transform="translate(297.198208, 58.432363)"><g/></g></g><g fill="#faf7ed" fill-opacity="1"><g transform="translate(316.672165, 58.432363)"><g><path d="M 9.625 2.765625 C 12.734375 2.765625 15.1875 1.328125 17.21875 -1.640625 C 18.15625 -3 17.5625 -4.640625 16.171875 -5.296875 C 14.953125 -5.875 13.71875 -5.421875 12.890625 -4.25 C 11.921875 -2.84375 10.90625 -2.296875 9.625 -2.296875 C 7.875 -2.296875 6.234375 -5.140625 6.234375 -8.640625 C 6.234375 -13.640625 9.859375 -18.078125 12.78125 -18.078125 C 13.71875 -18.078125 14.453125 -17.484375 14.953125 -16.359375 C 15.65625 -14.796875 16.40625 -14.375 17.953125 -14.53125 C 19.359375 -14.6875 20.40625 -16.09375 19.859375 -17.6875 C 18.734375 -21.03125 16.171875 -23.140625 12.78125 -23.140625 C 6.890625 -23.140625 1.171875 -16.359375 1.171875 -8.640625 C 1.171875 -2.453125 4.671875 2.765625 9.625 2.765625 Z M 9.625 2.765625 "/></g></g></g><g fill="#faf7ed" fill-opacity="1"><g transform="translate(337.859842, 58.432363)"><g><path d="M 13.59375 2.765625 C 20.0625 2.765625 24.96875 -2.921875 24.703125 -9.890625 C 24.46875 -16.09375 20.09375 -20.84375 14.484375 -20.84375 C 14.328125 -20.84375 14.171875 -20.84375 14.015625 -20.796875 C 13.671875 -21.703125 12.734375 -22.4375 11.40625 -22.4375 C 5.53125 -22.4375 1.171875 -17.296875 1.171875 -10.515625 C 1.171875 -3 6.46875 2.765625 13.59375 2.765625 Z M 6.234375 -10.515625 C 6.234375 -14.5625 8.453125 -17.375 11.40625 -17.375 C 11.640625 -17.375 11.84375 -17.375 12.03125 -17.40625 C 12.3125 -16.515625 13.125 -15.78125 14.484375 -15.78125 C 17.296875 -15.78125 19.515625 -13.203125 19.625 -9.734375 C 19.78125 -5.5625 17.140625 -2.296875 13.59375 -2.296875 C 9.3125 -2.296875 6.234375 -5.765625 6.234375 -10.515625 Z M 7.875 -26.171875 C 8.375 -24.78125 9.78125 -24.15625 11.21875 -24.78125 C 14.21875 -26.0625 16.9375 -27.46875 19.125 -29.0625 C 20.171875 -29.84375 20.296875 -31.390625 19.328125 -32.5625 C 18.421875 -33.609375 16.859375 -33.578125 15.734375 -32.796875 C 13.9375 -31.59375 11.84375 -30.5 9.390625 -29.453125 C 8.03125 -28.859375 7.359375 -27.578125 7.875 -26.171875 Z M 7.875 -26.171875 "/></g></g></g><g fill="#faf7ed" fill-opacity="1"><g transform="translate(363.721273, 58.432363)"><g/></g></g><g fill="#faf7ed" fill-opacity="1"><g transform="translate(383.19523, 58.432363)"><g><path d="M 9.859375 2.109375 C 15.78125 2.109375 21.3125 -2.53125 21.3125 -7.40625 C 21.3125 -16.09375 7.203125 -11.109375 7.203125 -14.84375 C 7.203125 -16.328125 10.359375 -17.296875 12.3125 -17.296875 C 14.0625 -17.296875 15.3125 -16.90625 16.703125 -15.8125 C 17.84375 -14.953125 19.09375 -14.875 20.140625 -15.78125 C 21.1875 -16.671875 21.3125 -18.546875 20.09375 -19.546875 C 17.765625 -21.546875 15.34375 -22.359375 12.3125 -22.359375 C 7.59375 -22.359375 2.140625 -18.78125 2.140625 -14.40625 C 2.140625 -5.609375 16.25 -10.359375 16.25 -7.046875 C 16.25 -5.1875 12.96875 -2.953125 9.859375 -2.953125 C 7.515625 -2.953125 6.390625 -4.25 5.609375 -5.1875 C 4.71875 -6.234375 3.8125 -6.578125 2.609375 -6.03125 C 1.671875 -5.609375 0.65625 -4.09375 1.484375 -2.578125 C 2.84375 0 5.609375 2.109375 9.859375 2.109375 Z M 9.859375 2.109375 "/></g></g></g><g fill="#faf7ed" fill-opacity="1"><g transform="translate(405.668185, 58.432363)"><g><path d="M 8.453125 2.796875 C 12.3125 2.796875 15.3125 -0.234375 18.265625 -6.109375 C 18.390625 -4.953125 18.546875 -3.859375 18.734375 -2.875 C 19.171875 -1.125 21.078125 -0.625 22.625 -1.59375 C 23.5625 -2.1875 23.796875 -3.15625 23.609375 -4.203125 C 23.0625 -7.171875 23.171875 -12.78125 24.109375 -18 C 24.5 -20.171875 23.875 -21.96875 22.4375 -22.3125 C 21.46875 -22.515625 20.484375 -22.203125 19.90625 -21.46875 C 19.703125 -21.78125 19.46875 -22.125 19.125 -22.390625 C 17.765625 -23.53125 16.171875 -24 14.40625 -24 C 7.984375 -24 1.171875 -14.328125 1.171875 -5.6875 C 1.171875 -0.8125 4.09375 2.796875 8.453125 2.796875 Z M 6.234375 -5.6875 C 6.234375 -11.375 11.0625 -18.9375 14.40625 -18.9375 C 15.1875 -18.9375 15.703125 -18.546875 16.328125 -18.1875 C 16.9375 -17.84375 17.765625 -17.640625 18.546875 -17.875 C 15.390625 -9.15625 10.90625 -2.265625 8.453125 -2.265625 C 7.125 -2.265625 6.234375 -3.5 6.234375 -5.6875 Z M 9.78125 -36.84375 C 9.234375 -35.765625 9.265625 -34.625 10.171875 -34.125 C 11.0625 -33.609375 12 -33.84375 12.46875 -34.390625 C 12.859375 -34.859375 13.25 -35.296875 13.875 -35.296875 C 14.921875 -35.296875 16.671875 -33.1875 18.890625 -33.1875 C 20.40625 -33.1875 21.65625 -34.203125 22.515625 -35.640625 C 23.171875 -36.734375 23.015625 -38.09375 21.96875 -38.6875 C 21.078125 -39.1875 20.171875 -38.6875 19.90625 -38.21875 C 19.625 -37.703125 19.328125 -37.46875 18.890625 -37.46875 C 17.609375 -37.46875 16.015625 -39.734375 13.875 -39.734375 C 12.234375 -39.734375 10.59375 -38.53125 9.78125 -36.84375 Z M 9.9375 -28.9375 C 11.109375 -26.484375 13.640625 -25.234375 16.28125 -25.28125 C 18.625 -25.3125 21.234375 -26.6875 22.4375 -28.515625 C 23.25 -29.765625 22.703125 -31.125 21.625 -31.59375 C 20.296875 -32.140625 19.40625 -31.59375 18.625 -30.65625 C 18 -29.921875 17.0625 -29.484375 16.125 -29.453125 C 15.265625 -29.40625 14.453125 -29.875 13.984375 -30.765625 C 13.359375 -31.984375 12.421875 -32.21875 11.171875 -31.90625 C 9.9375 -31.59375 9.3125 -30.265625 9.9375 -28.9375 Z M 9.9375 -28.9375 "/></g></g></g><g fill="#faf7ed" fill-opacity="1"><g transform="translate(431.451716, 58.432363)"><g><path d="M 4.671875 1.484375 C 6.109375 1.484375 7.25 0.421875 7.25 -1.09375 C 7.25 -9.65625 10.4375 -16.828125 13.5625 -16.828125 C 16.046875 -16.828125 17.40625 -10.71875 16.015625 -2.875 C 15.734375 -1.40625 16.484375 -0.109375 17.875 0.234375 L 17.921875 0.234375 C 19.328125 0.578125 20.640625 -0.3125 20.953125 -1.828125 C 23.09375 -13.359375 20.140625 -21.890625 13.5625 -21.890625 C 10.75 -21.890625 7.984375 -19.859375 6.734375 -17.21875 L 6.578125 -19.359375 C 6.5 -20.484375 5.375 -21.265625 3.9375 -21.1875 C 2.5 -21.109375 1.484375 -19.984375 1.5625 -18.5 C 1.828125 -14.484375 2.0625 -9.234375 2.109375 -2.109375 C 2.140625 0.78125 3.1875 1.484375 4.671875 1.484375 Z M 4.671875 1.484375 "/></g></g></g><g fill="#faf7ed" fill-opacity="1"><g transform="translate(454.664988, 58.432363)"><g/></g></g></svg>